<svg width="85" height="13" viewBox="0 0 85 13" fill="none" xmlns="http://www.w3.org/2000/svg">
<path d="M9.90915 -5.91454e-06V12.2773H8.20663L1.96605 3.27315H1.85214V12.2773H-0.000249219V-5.91454e-06H1.71426L7.96084 9.01617H8.07475V-5.91454e-06H9.90915ZM16.3461 12.4632C15.4828 12.4632 14.7295 12.2654 14.086 11.8697C13.4426 11.474 12.943 10.9205 12.5873 10.2091C12.2316 9.49775 12.0538 8.66648 12.0538 7.7153C12.0538 6.76013 12.2316 5.92485 12.5873 5.20947C12.943 4.4941 13.4426 3.93858 14.086 3.54292C14.7295 3.14726 15.4828 2.94944 16.3461 2.94944C17.2093 2.94944 17.9627 3.14726 18.6061 3.54292C19.2496 3.93858 19.7491 4.4941 20.1048 5.20947C20.4605 5.92485 20.6383 6.76013 20.6383 7.7153C20.6383 8.66648 20.4605 9.49775 20.1048 10.2091C19.7491 10.9205 19.2496 11.474 18.6061 11.8697C17.9627 12.2654 17.2093 12.4632 16.3461 12.4632ZM16.3521 10.9585C16.9116 10.9585 17.3752 10.8106 17.7429 10.5149C18.1105 10.2191 18.3823 9.82547 18.5582 9.3339C18.738 8.84232 18.8279 8.30079 18.8279 7.70931C18.8279 7.12182 18.738 6.58228 18.5582 6.09071C18.3823 5.59514 18.1105 5.19749 17.7429 4.89775C17.3752 4.59801 16.9116 4.44814 16.3521 4.44814C15.7886 4.44814 15.321 4.59801 14.9493 4.89775C14.5816 5.19749 14.3078 5.59514 14.128 6.09071C13.9521 6.58228 13.8642 7.12182 13.8642 7.70931C13.8642 8.30079 13.9521 8.84232 14.128 9.3339C14.3078 9.82547 14.5816 10.2191 14.9493 10.5149C15.321 10.8106 15.7886 10.9585 16.3521 10.9585ZM30.203 3.06933L26.8639 12.2773H24.9456L21.6005 3.06933H23.5248L25.8568 10.1552H25.9527L28.2787 3.06933H30.203ZM34.3035 12.4812C33.72 12.4812 33.1925 12.3733 32.7209 12.1574C32.2493 11.9376 31.8756 11.6199 31.5998 11.2043C31.3281 10.7886 31.1922 10.2791 31.1922 9.6756C31.1922 9.15605 31.2921 8.72842 31.4919 8.39271C31.6918 8.057 31.9615 7.79124 32.3012 7.59541C32.6409 7.39958 33.0206 7.2517 33.4402 7.15179C33.8599 7.05188 34.2875 6.97594 34.7231 6.92399C35.2746 6.86004 35.7223 6.80809 36.066 6.76812C36.4097 6.72416 36.6594 6.65422 36.8153 6.55831C36.9712 6.46239 37.0491 6.30652 37.0491 6.09071V6.04875C37.0491 5.5252 36.9012 5.11955 36.6055 4.8318C36.3137 4.54405 35.8781 4.40018 35.2986 4.40018C34.6952 4.40018 34.2196 4.53406 33.8719 4.80183C33.5282 5.0656 33.2904 5.35935 33.1585 5.68306L31.4739 5.2994C31.6738 4.73988 31.9655 4.28827 32.3492 3.94457C32.7369 3.59687 33.1825 3.34509 33.686 3.18923C34.1896 3.02937 34.7191 2.94944 35.2746 2.94944C35.6423 2.94944 36.032 2.9934 36.4436 3.08132C36.8593 3.16525 37.2469 3.32111 37.6066 3.54892C37.9703 3.77672 38.2681 4.10244 38.4999 4.52607C38.7317 4.9457 38.8475 5.49123 38.8475 6.16265V12.2773H37.0971V11.0184H37.0251C36.9092 11.2502 36.7354 11.478 36.5036 11.7018C36.2718 11.9256 35.974 12.1115 35.6104 12.2594C35.2467 12.4072 34.8111 12.4812 34.3035 12.4812ZM34.6932 11.0424C35.1887 11.0424 35.6124 10.9445 35.9641 10.7487C36.3197 10.5528 36.5895 10.2971 36.7733 9.98134C36.9612 9.66161 37.0551 9.31991 37.0551 8.95622V7.76925C36.9912 7.8332 36.8673 7.89315 36.6834 7.9491C36.5036 8.00105 36.2978 8.04701 36.066 8.08698C35.8342 8.12295 35.6084 8.15692 35.3886 8.18889C35.1687 8.21687 34.9849 8.24085 34.837 8.26083C34.4893 8.30479 34.1716 8.37873 33.8839 8.48264C33.6001 8.58655 33.3723 8.73642 33.2004 8.93225C33.0326 9.12408 32.9487 9.37986 32.9487 9.69958C32.9487 10.1432 33.1125 10.4789 33.4402 10.7067C33.768 10.9305 34.1856 11.0424 34.6932 11.0424ZM41.3789 12.2773V-5.91454e-06H43.2312V10.6827H48.7944V12.2773H41.3789ZM54.7323 12.4632C53.8251 12.4632 53.0437 12.2694 52.3883 11.8817C51.7369 11.49 51.2333 10.9405 50.8776 10.2331C50.5259 9.52173 50.3501 8.68846 50.3501 7.73329C50.3501 6.7901 50.5259 5.95882 50.8776 5.23945C51.2333 4.52007 51.7289 3.95856 52.3643 3.55491C53.0038 3.15126 53.7511 2.94944 54.6064 2.94944C55.1259 2.94944 55.6295 3.03536 56.1171 3.20721C56.6046 3.37906 57.0423 3.64883 57.4299 4.01651C57.8176 4.38419 58.1233 4.86178 58.3471 5.44927C58.5709 6.03276 58.6828 6.74215 58.6828 7.57742V8.21287H51.3632V6.87003H56.9264C56.9264 6.39844 56.8304 5.98081 56.6386 5.61712C56.4468 5.24944 56.177 4.95969 55.8293 4.74788C55.4856 4.53606 55.082 4.43015 54.6184 4.43015C54.1148 4.43015 53.6752 4.55404 53.2995 4.80183C52.9278 5.04562 52.6401 5.36534 52.4363 5.761C52.2364 6.15266 52.1365 6.57829 52.1365 7.03789V8.08698C52.1365 8.70244 52.2444 9.22599 52.4602 9.65762C52.6801 10.0892 52.9858 10.419 53.3774 10.6468C53.7691 10.8706 54.2267 10.9825 54.7503 10.9825C55.09 10.9825 55.3997 10.9345 55.6794 10.8386C55.9592 10.7387 56.201 10.5908 56.4048 10.395C56.6086 10.1991 56.7645 9.95736 56.8724 9.66961L58.5689 9.97534C58.4331 10.4749 58.1893 10.9125 57.8376 11.2882C57.4899 11.6599 57.0523 11.9496 56.5247 12.1574C56.0012 12.3613 55.4037 12.4632 54.7323 12.4632ZM63.3513 12.4812C62.7678 12.4812 62.2403 12.3733 61.7687 12.1574C61.2971 11.9376 60.9234 11.6199 60.6476 11.2043C60.3759 10.7886 60.24 10.2791 60.24 9.6756C60.24 9.15605 60.3399 8.72842 60.5397 8.39271C60.7396 8.057 61.0093 7.79124 61.349 7.59541C61.6887 7.39958 62.0684 7.2517 62.488 7.15179C62.9077 7.05188 63.3353 6.97594 63.7709 6.92399C64.3225 6.86004 64.7701 6.80809 65.1138 6.76812C65.4575 6.72416 65.7072 6.65422 65.8631 6.55831C66.019 6.46239 66.0969 6.30652 66.0969 6.09071V6.04875C66.0969 5.5252 65.949 5.11955 65.6533 4.8318C65.3615 4.54405 64.9259 4.40018 64.3464 4.40018C63.743 4.40018 63.2674 4.53406 62.9197 4.80183C62.576 5.0656 62.3382 5.35935 62.2063 5.68306L60.5217 5.2994C60.7216 4.73988 61.0133 4.28827 61.397 3.94457C61.7847 3.59687 62.2303 3.34509 62.7338 3.18923C63.2374 3.02937 63.7669 2.94944 64.3225 2.94944C64.6901 2.94944 65.0798 2.9934 65.4914 3.08132C65.9071 3.16525 66.2947 3.32111 66.6544 3.54892C67.0181 3.77672 67.3159 4.10244 67.5477 4.52607C67.7795 4.9457 67.8954 5.49123 67.8954 6.16265V12.2773H66.1449V11.0184H66.0729C65.957 11.2502 65.7832 11.478 65.5514 11.7018C65.3196 11.9256 65.0218 12.1115 64.6582 12.2594C64.2945 12.4072 63.8589 12.4812 63.3513 12.4812ZM63.741 11.0424C64.2365 11.0424 64.6602 10.9445 65.0119 10.7487C65.3675 10.5528 65.6373 10.2971 65.8212 9.98134C66.009 9.66161 66.1029 9.31991 66.1029 8.95622V7.76925C66.039 7.8332 65.9151 7.89315 65.7312 7.9491C65.5514 8.00105 65.3456 8.04701 65.1138 8.08698C64.882 8.12295 64.6562 8.15692 64.4364 8.18889C64.2165 8.21687 64.0327 8.24085 63.8848 8.26083C63.5371 8.30479 63.2194 8.37873 62.9317 8.48264C62.6479 8.58655 62.4201 8.73642 62.2483 8.93225C62.0804 9.12408 61.9965 9.37986 61.9965 9.69958C61.9965 10.1432 62.1603 10.4789 62.488 10.7067C62.8158 10.9305 63.2334 11.0424 63.741 11.0424ZM70.2828 12.2773V3.06933H72.0153V4.53206H72.1112C72.279 4.03649 72.5748 3.64683 72.9984 3.36308C73.426 3.07533 73.9096 2.93145 74.4492 2.93145C74.5611 2.93145 74.6929 2.93545 74.8448 2.94344C75.0007 2.95143 75.1226 2.96142 75.2105 2.97341V4.68793C75.1386 4.66794 75.0107 4.64596 74.8268 4.62198C74.643 4.59401 74.4592 4.58002 74.2753 4.58002C73.8517 4.58002 73.474 4.66994 73.1423 4.84979C72.8146 5.02563 72.5548 5.27142 72.363 5.58715C72.1711 5.89888 72.0752 6.25457 72.0752 6.65422V12.2773H70.2828ZM78.5541 6.81009V12.2773H76.7617V3.06933H78.4822V4.56803H78.5961C78.8079 4.08045 79.1396 3.68879 79.5912 3.39305C80.0468 3.09731 80.6203 2.94944 81.3117 2.94944C81.9392 2.94944 82.4887 3.08132 82.9603 3.34509C83.4319 3.60487 83.7976 3.99253 84.0573 4.50808C84.3171 5.02364 84.447 5.66108 84.447 6.42042V12.2773H82.6545V6.63624C82.6545 5.96882 82.4807 5.44727 82.133 5.07159C81.7853 4.69192 81.3077 4.50209 80.7002 4.50209C80.2846 4.50209 79.9149 4.59201 79.5912 4.77185C79.2715 4.9517 79.0177 5.21547 78.8299 5.56317C78.646 5.90687 78.5541 6.32251 78.5541 6.81009Z" fill="#2A201A"/>
</svg>
