<svg width="965" height="965" viewBox="0 0 965 965" fill="none" xmlns="http://www.w3.org/2000/svg">
<path opacity="0.5" d="M96.8488 0.5V963.988M193.198 0.5V963.988M289.546 0.5V963.988M385.895 0.5V963.988M482.244 0.5V963.988M578.593 0.5V963.988M674.942 0.5V963.988M771.291 0.5V963.988M867.639 0.5V963.988M0.5 96.8488H963.988M0.5 193.198H963.988M0.5 289.546H963.988M0.5 385.895H963.988M0.5 482.244H963.988M0.5 578.593H963.988M0.5 674.942H963.988M0.5 771.291H963.988M0.5 867.639H963.988M0.5 0.5V963.988H963.988V0.5H0.5Z" stroke="#999999" stroke-linecap="round" stroke-dasharray="0.1 6"/>
</svg>
