<svg width="28" height="28" viewBox="0 0 28 28" fill="none" xmlns="http://www.w3.org/2000/svg">
<path d="M20.4231 2.35585C14.9671 3.30763 14 8.75065 14 8.75065V25.6673C14 25.6673 15.0345 19.9824 21.0004 19.3193C21.6408 19.2481 22.1667 18.7345 22.1667 18.0908V3.95926C22.1667 2.99362 21.3752 2.18976 20.4231 2.35585Z" stroke="#B3A59E" stroke-width="1.5" stroke-linecap="round" stroke-linejoin="round"/>
<path d="M14.0007 8.75065H14.7507C14.7507 8.53522 14.658 8.33018 14.4963 8.1878L14.0007 8.75065ZM6.22287 5.834V6.584L6.22392 6.584L6.22287 5.834ZM14.0007 25.6673L13.505 26.2302C13.7261 26.4249 14.0409 26.4721 14.3095 26.3508C14.578 26.2294 14.7507 25.962 14.7507 25.6673H14.0007ZM6.22287 22.7507V23.5007L6.22392 23.5007L6.22287 22.7507ZM3.08679 22.493L2.68247 23.1247H2.68247L3.08679 22.493ZM2.59165 21.9979L1.95997 22.4022V22.4022L2.59165 21.9979ZM5.58049 5.85102L5.6203 6.59996L5.58049 5.85102ZM14.0007 8.75065L14.4963 8.1878C12.2211 6.18413 9.27356 5.07973 6.22183 5.084L6.22287 5.834L6.22392 6.584C8.91326 6.58024 11.5067 7.55371 13.505 9.3135L14.0007 8.75065ZM6.22287 5.834V5.084C5.99406 5.084 5.7666 5.09007 5.54068 5.10208L5.58049 5.85102L5.6203 6.59996C5.8197 6.58937 6.02061 6.584 6.22287 6.584V5.834ZM14.0007 25.6673L14.4963 25.1045C12.2211 23.1008 9.27356 21.9964 6.22183 22.0007L6.22287 22.7507L6.22392 23.5007C8.91326 23.4969 11.5067 24.4704 13.505 26.2302L14.0007 25.6673ZM2.33398 9.80441H1.58398V19.4407H2.33398H3.08398V9.80441H2.33398ZM14.0007 25.6673H14.7507V8.75065H14.0007H13.2507V25.6673H14.0007ZM6.22287 22.7507V22.0007C5.30094 22.0007 4.64634 22.0003 4.17007 21.97C3.93412 21.9549 3.76613 21.9338 3.64627 21.9083C3.52385 21.8823 3.4875 21.859 3.49112 21.8613L3.08679 22.493L2.68247 23.1247C3.06451 23.3692 3.57499 23.4351 4.07476 23.4669C4.6103 23.501 5.32246 23.5007 6.22287 23.5007V22.7507ZM2.33398 19.4407H1.58398C1.58398 20.1461 1.58343 20.7199 1.6185 21.1658C1.65275 21.6012 1.72685 22.038 1.95997 22.4022L2.59165 21.9979L3.22334 21.5935C3.19879 21.5552 3.14405 21.4316 3.11388 21.0481C3.08454 20.6751 3.08398 20.1716 3.08398 19.4407H2.33398ZM3.08679 22.493L3.49112 21.8613C3.39079 21.7971 3.35649 21.7673 3.33693 21.7477C3.31737 21.7282 3.28755 21.6939 3.22334 21.5935L2.59165 21.9979L1.95997 22.4022C2.05045 22.5435 2.14736 22.6795 2.27627 22.8084C2.40519 22.9373 2.5411 23.0342 2.68247 23.1247L3.08679 22.493ZM5.58049 5.85102L5.54068 5.10208C4.28634 5.16875 3.30793 5.18871 2.42996 6.11459L2.97418 6.63065L3.5184 7.14672C3.92083 6.72233 4.25316 6.67263 5.6203 6.59996L5.58049 5.85102ZM2.33398 9.80441H3.08398C3.08398 8.94807 3.08616 8.39282 3.15461 7.96438C3.21668 7.57595 3.32544 7.35021 3.5184 7.14672L2.97418 6.63065L2.42996 6.11459C1.98273 6.58622 1.77139 7.11448 1.6734 7.72771C1.58181 8.30093 1.58398 8.99499 1.58398 9.80441H2.33398Z" fill="#B3A59E"/>
<path d="M14 25.6685C16.1367 23.7868 18.9072 22.7478 21.7778 22.7519C23.6001 22.7519 24.5113 22.7519 24.9139 22.4942C25.1555 22.3395 25.2543 22.2407 25.409 21.999C25.6667 21.5965 25.6667 20.8783 25.6667 19.4418V9.8056C25.6667 8.13985 25.6667 7.30697 25.0265 6.63184C24.3863 5.95672 23.4774 5.90365 22.1667 5.83398" stroke="#B3A59E" stroke-width="1.5" stroke-linecap="round" stroke-linejoin="round"/>
</svg>
