<svg width="56" height="56" viewBox="0 0 56 56" fill="none" xmlns="http://www.w3.org/2000/svg">
<rect width="56" height="56" rx="16" fill="#F9F7F5"/>
<path d="M22.6829 20.75V19.6667C22.6829 18.1346 22.6829 17.3686 23.1588 16.8926C23.6348 16.4167 24.4008 16.4167 25.9329 16.4167H30.2662C31.7983 16.4167 32.5643 16.4167 33.0402 16.8926C33.5162 17.3686 33.5162 18.1346 33.5162 19.6667V20.75C33.5162 22.2821 33.5162 23.0481 33.0402 23.5241C32.5643 24 31.7983 24 30.2662 24H29.1829L25.9329 26.1667V24C24.4008 24 23.6348 24 23.1588 23.5241C22.6829 23.0481 22.6829 22.2821 22.6829 20.75Z" stroke="#27272A" stroke-width="1.625" stroke-linejoin="round"/>
<path d="M18.9888 34.5525C18.3076 35.0088 16.5216 35.9406 17.6094 37.1065C18.1408 37.676 18.7326 38.0833 19.4767 38.0833H21.5996H23.7225C24.4666 38.0833 25.0584 37.676 25.5898 37.1065C26.6776 35.9406 24.8916 35.0088 24.2104 34.5525C22.613 33.4825 20.5861 33.4825 18.9888 34.5525Z" stroke="#27272A" stroke-width="1.625"/>
<path d="M31.9888 34.5525C31.3076 35.0088 29.5216 35.9406 30.6094 37.1065C31.1408 37.676 31.7326 38.0833 32.4767 38.0833H34.5996H36.7225C37.4666 38.0833 38.0584 37.676 38.5898 37.1065C39.6776 35.9406 37.8916 35.0088 37.2104 34.5525C35.613 33.4825 33.5861 33.4825 31.9888 34.5525Z" stroke="#27272A" stroke-width="1.625"/>
<path d="M23.7662 28.875C23.7662 30.0717 22.7961 31.0417 21.5995 31.0417C20.4029 31.0417 19.4329 30.0717 19.4329 28.875C19.4329 27.6784 20.4029 26.7084 21.5995 26.7084C22.7961 26.7084 23.7662 27.6784 23.7662 28.875Z" stroke="#27272A" stroke-width="1.625"/>
<path d="M36.7662 28.875C36.7662 30.0717 35.7961 31.0417 34.5995 31.0417C33.4029 31.0417 32.4329 30.0717 32.4329 28.875C32.4329 27.6784 33.4029 26.7084 34.5995 26.7084C35.7961 26.7084 36.7662 27.6784 36.7662 28.875Z" stroke="#27272A" stroke-width="1.625"/>
</svg>
