<svg width="56" height="56" viewBox="0 0 56 56" fill="none" xmlns="http://www.w3.org/2000/svg">
<rect width="56" height="56" rx="16" fill="#F9F7F5"/>
<path d="M32.6652 19.6476L34.1838 18.129C35.0225 17.2903 36.3822 17.2903 37.2209 18.129C38.0596 18.9677 38.0596 20.3275 37.2209 21.1662L35.7023 22.6847M32.6652 19.6476L26.9952 25.3176C25.8628 26.45 25.2966 27.0162 24.911 27.7062C24.5254 28.3962 24.1375 30.0254 23.7666 31.5833C25.3245 31.2124 26.9538 30.8245 27.6437 30.4389C28.3337 30.0534 28.8999 29.4872 30.0323 28.3548L35.7023 22.6847M32.6652 19.6476L35.7023 22.6847" stroke="#27272A" stroke-width="1.625" stroke-linecap="round" stroke-linejoin="round"/>
<path d="M37.85 27.25C37.85 31.8462 37.85 34.1443 36.4221 35.5721C34.9943 37 32.6962 37 28.1 37C23.5038 37 21.2057 37 19.7778 35.5721C18.35 34.1443 18.35 31.8462 18.35 27.25C18.35 22.6538 18.35 20.3557 19.7778 18.9279C21.2057 17.5 23.5038 17.5 28.1 17.5" stroke="#27272A" stroke-width="1.625" stroke-linecap="round"/>
</svg>
