<svg width="56" height="56" viewBox="0 0 56 56" fill="none" xmlns="http://www.w3.org/2000/svg">
<rect width="56" height="56" rx="16" fill="#F9F7F5"/>
<path d="M22.6833 19.125C20.8883 19.125 19.4333 20.5801 19.4333 22.375C19.4333 22.9911 19.6047 23.5671 19.9024 24.058C18.4011 24.3451 17.2666 25.6651 17.2666 27.25C17.2666 28.835 18.4011 30.1549 19.9024 30.4421M22.6833 19.125C22.6833 17.6292 23.8958 16.4167 25.3916 16.4167C26.8874 16.4167 28.0999 17.6292 28.0999 19.125V35.375C28.0999 36.8708 26.8874 38.0834 25.3916 38.0834C23.8958 38.0834 22.6833 36.8708 22.6833 35.375C20.8883 35.375 19.4333 33.9199 19.4333 32.125C19.4333 31.509 19.6047 30.933 19.9024 30.4421M22.6833 19.125C22.6833 20.0111 23.1088 20.7978 23.7666 21.2919M19.9024 30.4421C20.2885 29.8054 20.8872 29.3119 21.5999 29.06" stroke="#27272A" stroke-width="1.625" stroke-linecap="round" stroke-linejoin="round"/>
<path d="M35.9541 19.3956L33.5166 21.8331H31.35M35.1416 19.3956C35.1416 19.8444 35.5054 20.2081 35.9541 20.2081C36.4029 20.2081 36.7666 19.8444 36.7666 19.3956C36.7666 18.9469 36.4029 18.5831 35.9541 18.5831C35.5054 18.5831 35.1416 18.9469 35.1416 19.3956Z" stroke="#27272A" stroke-width="1.625" stroke-linecap="round" stroke-linejoin="round"/>
<path d="M35.9541 35.1039L33.5166 32.6664H31.35M35.1416 35.1039C35.1416 34.6552 35.5054 34.2914 35.9541 34.2914C36.4029 34.2914 36.7666 34.6552 36.7666 35.1039C36.7666 35.5527 36.4029 35.9164 35.9541 35.9164C35.5054 35.9164 35.1416 35.5527 35.1416 35.1039Z" stroke="#27272A" stroke-width="1.625" stroke-linecap="round" stroke-linejoin="round"/>
<path d="M35.9541 27.2498H31.35M35.1416 27.2498C35.1416 27.6985 35.5054 28.0623 35.9541 28.0623C36.4029 28.0623 36.7666 27.6985 36.7666 27.2498C36.7666 26.801 36.4029 26.4373 35.9541 26.4373C35.5054 26.4373 35.1416 26.801 35.1416 27.2498Z" stroke="#27272A" stroke-width="1.625" stroke-linecap="round" stroke-linejoin="round"/>
</svg>
