<svg width="56" height="56" viewBox="0 0 56 56" fill="none" xmlns="http://www.w3.org/2000/svg">
<rect width="56" height="56" rx="16" fill="#F9F7F5"/>
<path d="M33.5163 26.9167C33.5163 29.9082 31.0912 32.3334 28.0997 32.3334C25.1081 32.3334 22.683 29.9082 22.683 26.9167V22.5834C22.683 19.5918 25.1081 17.1667 28.0997 17.1667" stroke="#27272A" stroke-width="1.625" stroke-linecap="round" stroke-linejoin="round"/>
<path d="M36.7663 26.9167C36.7663 31.7032 32.8861 35.5834 28.0997 35.5834M28.0997 35.5834C23.3132 35.5834 19.433 31.7032 19.433 26.9167M28.0997 35.5834V38.8334" stroke="#27272A" stroke-width="1.625" stroke-linecap="round" stroke-linejoin="round"/>
<path d="M30.6268 20.0333C31.9341 19.8706 32.9703 18.8344 33.133 17.5271C33.1576 17.3292 33.3169 17.1667 33.5164 17.1667C33.7158 17.1667 33.8751 17.3292 33.8997 17.5271C34.0624 18.8344 35.0986 19.8706 36.406 20.0333C36.6039 20.0579 36.7664 20.2173 36.7664 20.4167C36.7664 20.6161 36.6039 20.7754 36.406 20.8001C35.0986 20.9627 34.0624 21.999 33.8997 23.3063C33.8751 23.5042 33.7158 23.6667 33.5164 23.6667C33.3169 23.6667 33.1576 23.5042 33.133 23.3063C32.9703 21.999 31.9341 20.9627 30.6268 20.8001C30.4288 20.7754 30.2664 20.6161 30.2664 20.4167C30.2664 20.2173 30.4288 20.0579 30.6268 20.0333Z" stroke="#27272A" stroke-width="1.625" stroke-linecap="round" stroke-linejoin="round"/>
</svg>
