<svg width="113" height="31" viewBox="0 0 113 31" fill="none" xmlns="http://www.w3.org/2000/svg">
<path d="M0.800301 16.5448C15.2425 24.6195 28.6266 0.732329 0.800301 16.5448ZM0.800301 16.5448C19.865 9.18273 22.6839 48.6797 0.800301 16.5448ZM0.800301 16.5448C27.8024 -11.0485 28.3481 3.18985 0.800301 16.5448ZM0.800301 16.5448C12.5452 58.64 25.0666 -31.767 0.800301 16.5448Z" stroke="#2A201A" stroke-width="1.5"/>
<path d="M106.706 15.2826V20.7499H104.914V11.5419H106.634V13.0406H106.748C106.96 12.553 107.291 12.1613 107.743 11.8656C108.199 11.5698 108.772 11.422 109.464 11.422C110.091 11.422 110.641 11.5539 111.112 11.8176C111.584 12.0774 111.949 12.4651 112.209 12.9806C112.469 13.4962 112.599 14.1336 112.599 14.893V20.7499H110.806V15.1088C110.806 14.4414 110.633 13.9198 110.285 13.5441C109.937 13.1645 109.46 12.9746 108.852 12.9746C108.436 12.9746 108.067 13.0646 107.743 13.2444C107.423 13.4242 107.17 13.688 106.982 14.0357C106.798 14.3794 106.706 14.7951 106.706 15.2826Z" fill="#2A201A"/>
<path d="M98.4346 20.7499V11.5419H100.167V13.0046H100.263C100.431 12.509 100.727 12.1194 101.15 11.8356C101.578 11.5479 102.061 11.404 102.601 11.404C102.713 11.404 102.845 11.408 102.997 11.416C103.153 11.424 103.274 11.434 103.362 11.446V13.1605C103.29 13.1405 103.163 13.1185 102.979 13.0945C102.795 13.0666 102.611 13.0526 102.427 13.0526C102.004 13.0526 101.626 13.1425 101.294 13.3223C100.966 13.4982 100.707 13.744 100.515 14.0597C100.323 14.3714 100.227 14.7271 100.227 15.1268V20.7499H98.4346Z" fill="#2A201A"/>
<path d="M91.5032 20.9537C90.9197 20.9537 90.3921 20.8458 89.9205 20.63C89.4489 20.4102 89.0753 20.0925 88.7995 19.6768C88.5277 19.2612 88.3919 18.7516 88.3919 18.1481C88.3919 17.6286 88.4918 17.201 88.6916 16.8653C88.8914 16.5295 89.1612 16.2638 89.5009 16.0679C89.8406 15.8721 90.2203 15.7242 90.6399 15.6243C91.0595 15.5244 91.4872 15.4485 91.9228 15.3965C92.4743 15.3326 92.9219 15.2806 93.2656 15.2407C93.6093 15.1967 93.8591 15.1268 94.015 15.0308C94.1708 14.9349 94.2488 14.7791 94.2488 14.5633V14.5213C94.2488 13.9977 94.1009 13.5921 93.8052 13.3043C93.5134 13.0166 93.0778 12.8727 92.4983 12.8727C91.8948 12.8727 91.4192 13.0066 91.0715 13.2744C90.7278 13.5381 90.49 13.8319 90.3581 14.1556L88.6736 13.7719C88.8734 13.2124 89.1652 12.7608 89.5488 12.4171C89.9365 12.0694 90.3821 11.8176 90.8857 11.6618C91.3892 11.5019 91.9188 11.422 92.4743 11.422C92.842 11.422 93.2317 11.4659 93.6433 11.5539C94.0589 11.6378 94.4466 11.7937 94.8063 12.0215C95.17 12.2493 95.4677 12.575 95.6995 12.9986C95.9313 13.4182 96.0472 13.9638 96.0472 14.6352V20.7499H94.2967V19.491H94.2248C94.1089 19.7228 93.935 19.9506 93.7032 20.1744C93.4714 20.3982 93.1737 20.584 92.81 20.7319C92.4463 20.8798 92.0107 20.9537 91.5032 20.9537ZM91.8928 19.515C92.3884 19.515 92.812 19.417 93.1637 19.2212C93.5194 19.0254 93.7892 18.7696 93.973 18.4539C94.1608 18.1342 94.2548 17.7925 94.2548 17.4288V16.2418C94.1908 16.3057 94.0669 16.3657 93.8831 16.4216C93.7032 16.4736 93.4974 16.5196 93.2656 16.5595C93.0338 16.5955 92.808 16.6295 92.5882 16.6614C92.3684 16.6894 92.1846 16.7134 92.0367 16.7334C91.689 16.7773 91.3713 16.8513 91.0835 16.9552C90.7998 17.0591 90.572 17.209 90.4001 17.4048C90.2323 17.5966 90.1483 17.8524 90.1483 18.1721C90.1483 18.6157 90.3122 18.9514 90.6399 19.1792C90.9676 19.4031 91.3853 19.515 91.8928 19.515Z" fill="#2A201A"/>
<path d="M82.8841 20.9357C81.9769 20.9357 81.1956 20.7419 80.5402 20.3542C79.8887 19.9626 79.3852 19.413 79.0295 18.7057C78.6778 17.9943 78.5019 17.161 78.5019 16.2058C78.5019 15.2626 78.6778 14.4314 79.0295 13.712C79.3852 12.9926 79.8807 12.4311 80.5162 12.0275C81.1556 11.6238 81.903 11.422 82.7582 11.422C83.2778 11.422 83.7814 11.5079 84.2689 11.6798C84.7565 11.8516 85.1941 12.1214 85.5818 12.4891C85.9695 12.8567 86.2752 13.3343 86.499 13.9218C86.7228 14.5053 86.8347 15.2147 86.8347 16.05V16.6854H79.5151V15.3426H85.0782C85.0782 14.871 84.9823 14.4533 84.7905 14.0897C84.5986 13.722 84.3289 13.4322 83.9812 13.2204C83.6375 13.0086 83.2338 12.9027 82.7702 12.9027C82.2667 12.9027 81.827 13.0266 81.4514 13.2744C81.0797 13.5182 80.7919 13.8379 80.5881 14.2335C80.3883 14.6252 80.2884 15.0508 80.2884 15.5104V16.5595C80.2884 17.175 80.3963 17.6985 80.6121 18.1302C80.8319 18.5618 81.1376 18.8915 81.5293 19.1193C81.921 19.3431 82.3786 19.455 82.9021 19.455C83.2418 19.455 83.5515 19.4071 83.8313 19.3111C84.1111 19.2112 84.3529 19.0633 84.5567 18.8675C84.7605 18.6717 84.9164 18.4299 85.0243 18.1421L86.7208 18.4479C86.5849 18.9474 86.3411 19.3851 85.9894 19.7607C85.6417 20.1324 85.2041 20.4222 84.6766 20.63C84.153 20.8338 83.5555 20.9357 82.8841 20.9357Z" fill="#2A201A"/>
<path d="M69.5307 20.7499V8.47254H71.3831V19.1553H76.9463V20.7499H69.5307Z" fill="#2A201A"/>
<path d="M62.4554 20.9537C61.8719 20.9537 61.3443 20.8458 60.8727 20.63C60.4011 20.4102 60.0275 20.0925 59.7517 19.6768C59.4799 19.2612 59.3441 18.7516 59.3441 18.1481C59.3441 17.6286 59.444 17.201 59.6438 16.8653C59.8436 16.5295 60.1134 16.2638 60.4531 16.0679C60.7928 15.8721 61.1725 15.7242 61.5921 15.6243C62.0117 15.5244 62.4394 15.4485 62.875 15.3965C63.4265 15.3326 63.8741 15.2806 64.2178 15.2407C64.5615 15.1967 64.8113 15.1268 64.9672 15.0308C65.123 14.9349 65.201 14.7791 65.201 14.5633V14.5213C65.201 13.9977 65.0531 13.5921 64.7574 13.3043C64.4656 13.0166 64.03 12.8727 63.4505 12.8727C62.847 12.8727 62.3714 13.0066 62.0237 13.2744C61.68 13.5381 61.4422 13.8319 61.3103 14.1556L59.6258 13.7719C59.8256 13.2124 60.1174 12.7608 60.501 12.4171C60.8887 12.0694 61.3343 11.8176 61.8379 11.6618C62.3415 11.5019 62.871 11.422 63.4265 11.422C63.7942 11.422 64.1839 11.4659 64.5955 11.5539C65.0111 11.6378 65.3988 11.7937 65.7585 12.0215C66.1222 12.2493 66.4199 12.575 66.6517 12.9986C66.8835 13.4182 66.9994 13.9638 66.9994 14.6352V20.7499H65.2489V19.491H65.177C65.0611 19.7228 64.8872 19.9506 64.6554 20.1744C64.4236 20.3982 64.1259 20.584 63.7622 20.7319C63.3985 20.8798 62.9629 20.9537 62.4554 20.9537ZM62.845 19.515C63.3406 19.515 63.7642 19.417 64.1159 19.2212C64.4716 19.0254 64.7414 18.7696 64.9252 18.4539C65.113 18.1342 65.207 17.7925 65.207 17.4288V16.2418C65.143 16.3057 65.0191 16.3657 64.8353 16.4216C64.6554 16.4736 64.4496 16.5196 64.2178 16.5595C63.986 16.5955 63.7602 16.6295 63.5404 16.6614C63.3206 16.6894 63.1368 16.7134 62.9889 16.7334C62.6412 16.7773 62.3235 16.8513 62.0357 16.9552C61.752 17.0591 61.5242 17.209 61.3523 17.4048C61.1845 17.5966 61.1005 17.8524 61.1005 18.1721C61.1005 18.6157 61.2644 18.9514 61.5921 19.1792C61.9198 19.4031 62.3375 19.515 62.845 19.515Z" fill="#2A201A"/>
<path d="M58.3549 11.5419L55.0158 20.7499H53.0975L49.7524 11.5419H51.6767L54.0087 18.6277H54.1046L56.4306 11.5419H58.3549Z" fill="#2A201A"/>
<path d="M44.4979 20.9357C43.6347 20.9357 42.8813 20.7379 42.2379 20.3422C41.5945 19.9466 41.0949 19.3931 40.7392 18.6817C40.3835 17.9703 40.2057 17.139 40.2057 16.1878C40.2057 15.2327 40.3835 14.3974 40.7392 13.682C41.0949 12.9666 41.5945 12.4111 42.2379 12.0155C42.8813 11.6198 43.6347 11.422 44.4979 11.422C45.3612 11.422 46.1145 11.6198 46.758 12.0155C47.4014 12.4111 47.901 12.9666 48.2567 13.682C48.6124 14.3974 48.7902 15.2327 48.7902 16.1878C48.7902 17.139 48.6124 17.9703 48.2567 18.6817C47.901 19.3931 47.4014 19.9466 46.758 20.3422C46.1145 20.7379 45.3612 20.9357 44.4979 20.9357ZM44.5039 19.431C45.0634 19.431 45.527 19.2832 45.8947 18.9874C46.2624 18.6917 46.5342 18.298 46.71 17.8064C46.8899 17.3149 46.9798 16.7733 46.9798 16.1818C46.9798 15.5944 46.8899 15.0548 46.71 14.5633C46.5342 14.0677 46.2624 13.67 45.8947 13.3703C45.527 13.0705 45.0634 12.9207 44.5039 12.9207C43.9404 12.9207 43.4728 13.0705 43.1011 13.3703C42.7335 13.67 42.4597 14.0677 42.2799 14.5633C42.104 15.0548 42.0161 15.5944 42.0161 16.1818C42.0161 16.7733 42.104 17.3149 42.2799 17.8064C42.4597 18.298 42.7335 18.6917 43.1011 18.9874C43.4728 19.2832 43.9404 19.431 44.5039 19.431Z" fill="#2A201A"/>
<path d="M38.061 8.47254V20.7499H36.3585L30.1179 11.7457H30.004V20.7499H28.1516V8.47254H29.8661L36.1127 17.4887H36.2266V8.47254H38.061Z" fill="#2A201A"/>
</svg>
