<svg width="152" height="152" viewBox="0 0 152 152" fill="none" xmlns="http://www.w3.org/2000/svg">
<path d="M75.1896 108.411C93.0894 108.411 107.6 93.8999 107.6 76.0001C107.6 58.1003 93.0894 43.5897 75.1896 43.5897C57.2898 43.5897 42.7792 58.1003 42.7792 76.0001C42.7792 93.8999 57.2898 108.411 75.1896 108.411Z" fill="#F9F7F5" stroke="#B3A59E" stroke-width="1.21539" stroke-linecap="round" stroke-linejoin="round"/>
<path opacity="0.5" d="M107.815 75.7866C121.129 95.3737 135.074 121.719 128.13 128.715C118.084 138.834 86.6201 123.547 57.854 94.5698C29.0883 65.5921 13.9124 33.897 23.9592 23.7769C30.817 16.868 47.6573 21.8003 66.8064 34.8458L77.315 43.2674M42.815 74.7674C29.1283 94.6557 16.9283 121.131 23.9592 128.212C34.0051 138.333 63.6424 121.759 92.4085 92.7817C121.175 63.8041 138.176 33.3952 128.13 23.2751C121.195 16.289 104.054 21.4102 84.6397 34.7843L74.815 43.2674" stroke="#B3A59E" stroke-width="1.21539" stroke-linecap="round" stroke-linejoin="round" stroke-dasharray="4.05 4.05"/>
</svg>
