<svg width="217" height="153" viewBox="0 0 217 153" fill="none" xmlns="http://www.w3.org/2000/svg">
<rect x="0.316187" y="8.42086" width="215.379" height="143.512" rx="71.7559" stroke="#F9F7F5" stroke-width="0.632375"/>
<rect x="9.74529" y="17.85" width="196.521" height="124.654" rx="62.3269" stroke="#F1ECE9" stroke-width="0.929963"/>
<path d="M76.69 72.8548C75.4079 76.747 73.2235 80.2231 70.3873 83.0301M28.69 72.8689C29.9727 76.7555 32.1552 80.2266 34.988 83.0301M70.3873 83.0301L76.69 88.5029M70.3873 83.0301C67.5071 85.8805 63.9547 88.0408 59.9925 89.246M34.988 83.0301L28.69 88.5029M34.988 83.0301C37.8682 85.8805 41.4206 88.0408 45.3827 89.246M59.9925 89.246C57.6798 89.9495 55.2274 90.3276 52.6876 90.3276C50.1478 90.3276 47.6955 89.9495 45.3827 89.246M59.9925 89.246L62.887 96.8548M45.3827 89.246L43.0164 96.8548" stroke="#B3A59E" stroke-width="1.22" stroke-linecap="round" stroke-linejoin="round"/>
<g clip-path="url(#clip0_4_21)">
<circle cx="143.939" cy="80.1769" r="53.5117" fill="#F9F7F5"/>
<circle cx="143.939" cy="80.1769" r="53.0467" stroke="#DDD7D4" stroke-opacity="0.64" stroke-width="0.929963"/>
<path d="M126.195 61.8098C132.651 61.8008 138.883 64.1376 143.689 68.3699V106.419C138.883 102.186 132.651 99.8497 126.195 99.8587C122.096 99.8587 120.047 99.8587 119.141 99.2792C118.598 98.9313 118.376 98.7091 118.028 98.1655C117.448 97.2601 117.448 95.6447 117.448 92.4139V70.74C117.448 66.9934 117.448 65.1201 118.888 63.6016C120.328 62.0831 121.802 62.0048 124.75 61.8481C125.228 61.8227 125.71 61.8098 126.195 61.8098Z" fill="white"/>
<path d="M143.689 68.3699H144.299C144.299 68.1947 144.223 68.028 144.092 67.9122L143.689 68.3699ZM126.195 61.8098V62.4198L126.196 62.4198L126.195 61.8098ZM143.689 106.419L143.286 106.877C143.465 107.035 143.721 107.073 143.94 106.975C144.158 106.876 144.299 106.659 144.299 106.419H143.689ZM126.195 99.8587V100.469H126.196L126.195 99.8587ZM119.141 99.2792L118.812 99.793V99.793L119.141 99.2792ZM118.028 98.1655L117.514 98.4944H117.514L118.028 98.1655ZM124.75 61.8481L124.782 62.4572L124.75 61.8481ZM143.689 68.3699L144.092 67.9122C139.173 63.5806 132.798 61.1906 126.194 61.1998L126.195 61.8098L126.196 62.4198C132.505 62.411 138.592 64.6945 143.286 68.8277L143.689 68.3699ZM126.195 61.8098V61.1998C125.699 61.1998 125.207 61.213 124.718 61.239L124.75 61.8481L124.782 62.4572C125.25 62.4324 125.721 62.4198 126.195 62.4198V61.8098ZM143.689 106.419L144.092 105.961C139.173 101.63 132.798 99.2395 126.194 99.2487L126.195 99.8587L126.196 100.469C132.505 100.46 138.592 102.743 143.286 106.877L143.689 106.419ZM117.448 70.74H116.838V92.4139H117.448H118.058V70.74H117.448ZM143.689 106.419H144.299V68.3699H143.689H143.079V106.419H143.689ZM126.195 99.8587V99.2487C124.137 99.2487 122.623 99.2484 121.509 99.1775C120.366 99.1048 119.776 98.9611 119.47 98.7654L119.141 99.2792L118.812 99.793C119.412 100.177 120.299 100.323 121.432 100.395C122.594 100.469 124.154 100.469 126.195 100.469V99.8587ZM117.448 92.4139H116.838C116.838 94.0189 116.838 95.259 116.912 96.2096C116.986 97.1516 117.139 97.9091 117.514 98.4944L118.028 98.1655L118.541 97.8367C118.336 97.5165 118.199 97.0136 118.129 96.1139C118.058 95.2226 118.058 94.0397 118.058 92.4139H117.448ZM119.141 99.2792L119.47 98.7654C119.215 98.6021 119.065 98.4869 118.942 98.3644C118.82 98.2419 118.705 98.0918 118.541 97.8367L118.028 98.1655L117.514 98.4944C117.698 98.7829 117.868 99.0156 118.08 99.2271C118.291 99.4385 118.524 99.6083 118.812 99.793L119.141 99.2792ZM124.75 61.8481L124.718 61.239C121.815 61.3932 120.079 61.4595 118.445 63.1819L118.888 63.6016L119.331 64.0214C120.577 62.7068 121.788 62.6164 124.782 62.4572L124.75 61.8481ZM117.448 70.74H118.058C118.058 68.8477 118.06 67.4991 118.23 66.4316C118.396 65.3965 118.714 64.6716 119.331 64.0214L118.888 63.6016L118.445 63.1819C117.622 64.0502 117.22 65.0212 117.026 66.2391C116.836 67.4244 116.838 68.8858 116.838 70.74H117.448Z" fill="#B3A59E"/>
<path d="M161.182 99.8614C154.726 99.8524 148.494 102.189 143.688 106.422L148.201 81.8559L162.057 61.8098C165.005 61.9665 167.049 62.0858 168.489 63.6043C169.929 65.1228 169.929 66.9961 169.929 70.7427V92.4166C169.929 95.6474 169.929 97.2628 169.349 98.1682C169.001 98.7118 168.779 98.9339 168.236 99.2819C167.33 99.8614 165.281 99.8614 161.182 99.8614Z" fill="white" stroke="#B3A59E" stroke-width="1.22" stroke-linecap="round" stroke-linejoin="round"/>
<path d="M158.135 53.9859C145.863 56.1267 143.688 68.3691 143.688 68.3691V106.418C143.688 106.418 146.015 93.6316 159.434 92.14C160.874 91.9799 162.057 90.8248 162.057 89.3769V57.5923C162.057 55.4204 160.276 53.6124 158.135 53.9859Z" fill="white" stroke="#B3A59E" stroke-width="1.22" stroke-linecap="round" stroke-linejoin="round"/>
</g>
<defs>
<clipPath id="clip0_4_21">
<path d="M90.4273 80.1769C90.4273 50.6232 114.385 26.6653 143.939 26.6653V26.6653C173.493 26.6653 197.451 50.6232 197.451 80.1769V80.1769C197.451 109.731 173.493 133.689 143.939 133.689V133.689C114.385 133.689 90.4273 109.731 90.4273 80.1769V80.1769Z" fill="white"/>
</clipPath>
</defs>
</svg>
