<svg width="152" height="152" viewBox="0 0 152 152" fill="none" xmlns="http://www.w3.org/2000/svg">
<g clip-path="url(#clip0_4_7)">
<g clip-path="url(#clip1_4_7)">
<g opacity="0.87">
<path d="M-63.4035 -14.347L-64.2021 -15.1456L-65.0006 -14.347L-64.2021 -13.5484L-63.4035 -14.347Z" fill="url(#dotGrad)"/>
<path d="M-53.3649 -14.347L-54.1635 -15.1456L-54.9621 -14.347L-54.1635 -13.5484L-53.3649 -14.347Z" fill="url(#dotGrad)"/>
<path d="M-43.3264 -14.347L-44.125 -15.1456L-44.9236 -14.347L-44.125 -13.5484L-43.3264 -14.347Z" fill="url(#dotGrad)"/>
<path d="M-33.2879 -14.347L-34.0864 -15.1456L-34.885 -14.347L-34.0864 -13.5484L-33.2879 -14.347Z" fill="url(#dotGrad)"/>
<path d="M-23.2493 -14.347L-24.0478 -15.1456L-24.8464 -14.347L-24.0478 -13.5484L-23.2493 -14.347Z" fill="url(#dotGrad)"/>
<path d="M-13.2108 -14.347L-14.0093 -15.1456L-14.8079 -14.347L-14.0093 -13.5484L-13.2108 -14.347Z" fill="url(#dotGrad)"/>
<path d="M-3.17221 -14.347L-3.97077 -15.1456L-4.76933 -14.347L-3.97077 -13.5484L-3.17221 -14.347Z" fill="url(#dotGrad)"/>
<path d="M6.86628 -14.347L6.06772 -15.1456L5.26916 -14.347L6.06772 -13.5484L6.86628 -14.347Z" fill="url(#dotGrad)"/>
<path d="M16.9049 -14.347L16.1063 -15.1456L15.3077 -14.347L16.1063 -13.5484L16.9049 -14.347Z" fill="url(#dotGrad)"/>
<path d="M26.9435 -14.347L26.1449 -15.1456L25.3463 -14.347L26.1449 -13.5484L26.9435 -14.347Z" fill="url(#dotGrad)"/>
<path d="M36.9819 -14.347L36.1834 -15.1456L35.3848 -14.347L36.1834 -13.5484L36.9819 -14.347Z" fill="url(#dotGrad)"/>
<path d="M47.0205 -14.347L46.222 -15.1456L45.4234 -14.347L46.222 -13.5484L47.0205 -14.347Z" fill="url(#dotGrad)"/>
<path d="M57.0591 -14.347L56.2606 -15.1456L55.462 -14.347L56.2606 -13.5484L57.0591 -14.347Z" fill="url(#dotGrad)"/>
<path d="M67.0976 -14.347L66.2991 -15.1456L65.5005 -14.347L66.2991 -13.5484L67.0976 -14.347Z" fill="url(#dotGrad)"/>
<path d="M77.1362 -14.347L76.3376 -15.1456L75.5391 -14.347L76.3376 -13.5484L77.1362 -14.347Z" fill="url(#dotGrad)"/>
<path d="M87.1747 -14.347L86.3761 -15.1456L85.5776 -14.347L86.3761 -13.5484L87.1747 -14.347Z" fill="url(#dotGrad)"/>
<path d="M97.2133 -14.347L96.4147 -15.1456L95.6161 -14.347L96.4147 -13.5484L97.2133 -14.347Z" fill="url(#dotGrad)"/>
<path d="M107.252 -14.347L106.453 -15.1456L105.655 -14.347L106.453 -13.5484L107.252 -14.347Z" fill="url(#dotGrad)"/>
<path d="M117.29 -14.347L116.492 -15.1456L115.693 -14.347L116.492 -13.5484L117.29 -14.347Z" fill="url(#dotGrad)"/>
<path d="M-63.4035 -4.30841L-64.2021 -5.10697L-65.0006 -4.30841L-64.2021 -3.50985L-63.4035 -4.30841Z" fill="url(#dotGrad)"/>
<path d="M-53.3649 -4.30841L-54.1635 -5.10697L-54.9621 -4.30841L-54.1635 -3.50985L-53.3649 -4.30841Z" fill="url(#dotGrad)"/>
<path d="M-43.3264 -4.30841L-44.125 -5.10697L-44.9236 -4.30841L-44.125 -3.50985L-43.3264 -4.30841Z" fill="url(#dotGrad)"/>
<path d="M-33.2879 -4.30841L-34.0864 -5.10697L-34.885 -4.30841L-34.0864 -3.50985L-33.2879 -4.30841Z" fill="url(#dotGrad)"/>
<path d="M-23.2493 -4.30841L-24.0478 -5.10697L-24.8464 -4.30841L-24.0478 -3.50985L-23.2493 -4.30841Z" fill="url(#dotGrad)"/>
<path d="M-13.2108 -4.30841L-14.0093 -5.10697L-14.8079 -4.30841L-14.0093 -3.50985L-13.2108 -4.30841Z" fill="url(#dotGrad)"/>
<path d="M-3.17221 -4.30841L-3.97077 -5.10697L-4.76933 -4.30841L-3.97077 -3.50985L-3.17221 -4.30841Z" fill="url(#dotGrad)"/>
<path d="M6.86628 -4.30841L6.06772 -5.10697L5.26916 -4.30841L6.06772 -3.50985L6.86628 -4.30841Z" fill="url(#dotGrad)"/>
<path d="M16.9049 -4.30841L16.1063 -5.10697L15.3077 -4.30841L16.1063 -3.50985L16.9049 -4.30841Z" fill="url(#dotGrad)"/>
<path d="M26.9435 -4.30841L26.1449 -5.10697L25.3463 -4.30841L26.1449 -3.50985L26.9435 -4.30841Z" fill="url(#dotGrad)"/>
<path d="M36.9819 -4.30841L36.1834 -5.10697L35.3848 -4.30841L36.1834 -3.50985L36.9819 -4.30841Z" fill="url(#dotGrad)"/>
<path d="M47.0205 -4.30841L46.222 -5.10697L45.4234 -4.30841L46.222 -3.50985L47.0205 -4.30841Z" fill="url(#dotGrad)"/>
<path d="M57.0591 -4.30841L56.2606 -5.10697L55.462 -4.30841L56.2606 -3.50985L57.0591 -4.30841Z" fill="url(#dotGrad)"/>
<path d="M67.0976 -4.30841L66.2991 -5.10697L65.5005 -4.30841L66.2991 -3.50985L67.0976 -4.30841Z" fill="url(#dotGrad)"/>
<path d="M77.1362 -4.30841L76.3376 -5.10697L75.5391 -4.30841L76.3376 -3.50985L77.1362 -4.30841Z" fill="url(#dotGrad)"/>
<path d="M87.1747 -4.30841L86.3761 -5.10697L85.5776 -4.30841L86.3761 -3.50985L87.1747 -4.30841Z" fill="url(#dotGrad)"/>
<path d="M97.2133 -4.30841L96.4147 -5.10697L95.6161 -4.30841L96.4147 -3.50985L97.2133 -4.30841Z" fill="url(#dotGrad)"/>
<path d="M107.252 -4.30841L106.453 -5.10697L105.655 -4.30841L106.453 -3.50985L107.252 -4.30841Z" fill="url(#dotGrad)"/>
<path d="M117.29 -4.30841L116.492 -5.10697L115.693 -4.30841L116.492 -3.50985L117.29 -4.30841Z" fill="url(#dotGrad)"/>
<path d="M-63.4035 5.73019L-64.2021 4.93163L-65.0006 5.73019L-64.2021 6.52875L-63.4035 5.73019Z" fill="url(#dotGrad)"/>
<path d="M-53.3649 5.73019L-54.1635 4.93163L-54.9621 5.73019L-54.1635 6.52875L-53.3649 5.73019Z" fill="url(#dotGrad)"/>
<path d="M-43.3264 5.73019L-44.125 4.93163L-44.9236 5.73019L-44.125 6.52875L-43.3264 5.73019Z" fill="url(#dotGrad)"/>
<path d="M-33.2879 5.73019L-34.0864 4.93163L-34.885 5.73019L-34.0864 6.52875L-33.2879 5.73019Z" fill="url(#dotGrad)"/>
<path d="M-23.2493 5.73019L-24.0478 4.93163L-24.8464 5.73019L-24.0478 6.52875L-23.2493 5.73019Z" fill="url(#dotGrad)"/>
<path d="M-13.2108 5.73019L-14.0093 4.93163L-14.8079 5.73019L-14.0093 6.52875L-13.2108 5.73019Z" fill="url(#dotGrad)"/>
<path d="M-3.17221 5.73019L-3.97077 4.93163L-4.76933 5.73019L-3.97077 6.52875L-3.17221 5.73019Z" fill="url(#dotGrad)"/>
<path d="M6.86628 5.73019L6.06772 4.93163L5.26916 5.73019L6.06772 6.52875L6.86628 5.73019Z" fill="url(#dotGrad)"/>
<path d="M16.9049 5.73019L16.1063 4.93163L15.3077 5.73019L16.1063 6.52875L16.9049 5.73019Z" fill="url(#dotGrad)"/>
<path d="M26.9435 5.73019L26.1449 4.93163L25.3463 5.73019L26.1449 6.52875L26.9435 5.73019Z" fill="url(#dotGrad)"/>
<path d="M36.9819 5.73019L36.1834 4.93163L35.3848 5.73019L36.1834 6.52875L36.9819 5.73019Z" fill="url(#dotGrad)"/>
<path d="M47.0205 5.73019L46.222 4.93163L45.4234 5.73019L46.222 6.52875L47.0205 5.73019Z" fill="url(#dotGrad)"/>
<path d="M57.0591 5.73019L56.2606 4.93163L55.462 5.73019L56.2606 6.52875L57.0591 5.73019Z" fill="url(#dotGrad)"/>
<path d="M67.0976 5.73019L66.2991 4.93163L65.5005 5.73019L66.2991 6.52875L67.0976 5.73019Z" fill="url(#dotGrad)"/>
<path d="M77.1362 5.73019L76.3376 4.93163L75.5391 5.73019L76.3376 6.52875L77.1362 5.73019Z" fill="url(#dotGrad)"/>
<path d="M87.1747 5.73019L86.3761 4.93163L85.5776 5.73019L86.3761 6.52875L87.1747 5.73019Z" fill="url(#dotGrad)"/>
<path d="M97.2133 5.73019L96.4147 4.93163L95.6161 5.73019L96.4147 6.52875L97.2133 5.73019Z" fill="url(#dotGrad)"/>
<path d="M107.252 5.73019L106.453 4.93163L105.655 5.73019L106.453 6.52875L107.252 5.73019Z" fill="url(#dotGrad)"/>
<path d="M117.29 5.73019L116.492 4.93163L115.693 5.73019L116.492 6.52875L117.29 5.73019Z" fill="url(#dotGrad)"/>
<path d="M-63.4035 15.7688L-64.2021 14.9702L-65.0006 15.7688L-64.2021 16.5673L-63.4035 15.7688Z" fill="url(#dotGrad)"/>
<path d="M-53.3649 15.7688L-54.1635 14.9702L-54.9621 15.7688L-54.1635 16.5673L-53.3649 15.7688Z" fill="url(#dotGrad)"/>
<path d="M-43.3264 15.7688L-44.125 14.9702L-44.9236 15.7688L-44.125 16.5673L-43.3264 15.7688Z" fill="url(#dotGrad)"/>
<path d="M-33.2879 15.7688L-34.0864 14.9702L-34.885 15.7688L-34.0864 16.5673L-33.2879 15.7688Z" fill="url(#dotGrad)"/>
<path d="M-23.2493 15.7688L-24.0478 14.9702L-24.8464 15.7688L-24.0478 16.5673L-23.2493 15.7688Z" fill="url(#dotGrad)"/>
<path d="M-13.2108 15.7688L-14.0093 14.9702L-14.8079 15.7688L-14.0093 16.5673L-13.2108 15.7688Z" fill="url(#dotGrad)"/>
<path d="M-3.17221 15.7688L-3.97077 14.9702L-4.76933 15.7688L-3.97077 16.5673L-3.17221 15.7688Z" fill="url(#dotGrad)"/>
<path d="M6.86628 15.7688L6.06772 14.9702L5.26916 15.7688L6.06772 16.5673L6.86628 15.7688Z" fill="url(#dotGrad)"/>
<path d="M16.9049 15.7688L16.1063 14.9702L15.3077 15.7688L16.1063 16.5673L16.9049 15.7688Z" fill="url(#dotGrad)"/>
<path d="M26.9435 15.7688L26.1449 14.9702L25.3463 15.7688L26.1449 16.5673L26.9435 15.7688Z" fill="url(#dotGrad)"/>
<path d="M36.9819 15.7688L36.1834 14.9702L35.3848 15.7688L36.1834 16.5673L36.9819 15.7688Z" fill="url(#dotGrad)"/>
<path d="M47.0205 15.7688L46.222 14.9702L45.4234 15.7688L46.222 16.5673L47.0205 15.7688Z" fill="url(#dotGrad)"/>
<path d="M57.0591 15.7688L56.2606 14.9702L55.462 15.7688L56.2606 16.5673L57.0591 15.7688Z" fill="url(#dotGrad)"/>
<path d="M67.0976 15.7688L66.2991 14.9702L65.5005 15.7688L66.2991 16.5673L67.0976 15.7688Z" fill="url(#dotGrad)"/>
<path d="M77.1362 15.7688L76.3376 14.9702L75.5391 15.7688L76.3376 16.5673L77.1362 15.7688Z" fill="url(#dotGrad)"/>
<path d="M87.1747 15.7688L86.3761 14.9702L85.5776 15.7688L86.3761 16.5673L87.1747 15.7688Z" fill="url(#dotGrad)"/>
<path d="M97.2133 15.7688L96.4147 14.9702L95.6161 15.7688L96.4147 16.5673L97.2133 15.7688Z" fill="url(#dotGrad)"/>
<path d="M107.252 15.7688L106.453 14.9702L105.655 15.7688L106.453 16.5673L107.252 15.7688Z" fill="url(#dotGrad)"/>
<path d="M117.29 15.7688L116.492 14.9702L115.693 15.7688L116.492 16.5673L117.29 15.7688Z" fill="url(#dotGrad)"/>
<path d="M-63.4035 25.8073L-64.2021 25.0087L-65.0006 25.8073L-64.2021 26.6058L-63.4035 25.8073Z" fill="url(#dotGrad)"/>
<path d="M-53.3649 25.8073L-54.1635 25.0087L-54.9621 25.8073L-54.1635 26.6058L-53.3649 25.8073Z" fill="url(#dotGrad)"/>
<path d="M-43.3264 25.8073L-44.125 25.0087L-44.9236 25.8073L-44.125 26.6058L-43.3264 25.8073Z" fill="url(#dotGrad)"/>
<path d="M-33.2879 25.8073L-34.0864 25.0087L-34.885 25.8073L-34.0864 26.6058L-33.2879 25.8073Z" fill="url(#dotGrad)"/>
<path d="M-23.2493 25.8073L-24.0478 25.0087L-24.8464 25.8073L-24.0478 26.6058L-23.2493 25.8073Z" fill="url(#dotGrad)"/>
<path d="M-13.2108 25.8073L-14.0093 25.0087L-14.8079 25.8073L-14.0093 26.6058L-13.2108 25.8073Z" fill="url(#dotGrad)"/>
<path d="M-3.17221 25.8073L-3.97077 25.0087L-4.76933 25.8073L-3.97077 26.6058L-3.17221 25.8073Z" fill="url(#dotGrad)"/>
<path d="M6.86628 25.8073L6.06772 25.0087L5.26916 25.8073L6.06772 26.6058L6.86628 25.8073Z" fill="url(#dotGrad)"/>
<path d="M16.9049 25.8073L16.1063 25.0087L15.3077 25.8073L16.1063 26.6058L16.9049 25.8073Z" fill="url(#dotGrad)"/>
<path d="M26.9435 25.8073L26.1449 25.0087L25.3463 25.8073L26.1449 26.6058L26.9435 25.8073Z" fill="url(#dotGrad)"/>
<path d="M36.9819 25.8073L36.1834 25.0087L35.3848 25.8073L36.1834 26.6058L36.9819 25.8073Z" fill="url(#dotGrad)"/>
<path d="M47.0205 25.8073L46.222 25.0087L45.4234 25.8073L46.222 26.6058L47.0205 25.8073Z" fill="url(#dotGrad)"/>
<path d="M57.0591 25.8073L56.2606 25.0087L55.462 25.8073L56.2606 26.6058L57.0591 25.8073Z" fill="url(#dotGrad)"/>
<path d="M67.0976 25.8073L66.2991 25.0087L65.5005 25.8073L66.2991 26.6058L67.0976 25.8073Z" fill="url(#dotGrad)"/>
<path d="M77.1362 25.8073L76.3376 25.0087L75.5391 25.8073L76.3376 26.6058L77.1362 25.8073Z" fill="url(#dotGrad)"/>
<path d="M87.1747 25.8073L86.3761 25.0087L85.5776 25.8073L86.3761 26.6058L87.1747 25.8073Z" fill="url(#dotGrad)"/>
<path d="M97.2133 25.8073L96.4147 25.0087L95.6161 25.8073L96.4147 26.6058L97.2133 25.8073Z" fill="url(#dotGrad)"/>
<path d="M107.252 25.8073L106.453 25.0087L105.655 25.8073L106.453 26.6058L107.252 25.8073Z" fill="url(#dotGrad)"/>
<path d="M117.29 25.8073L116.492 25.0087L115.693 25.8073L116.492 26.6058L117.29 25.8073Z" fill="url(#dotGrad)"/>
<path d="M-63.4035 35.8458L-64.2021 35.0473L-65.0006 35.8458L-64.2021 36.6444L-63.4035 35.8458Z" fill="url(#dotGrad)"/>
<path d="M-53.3649 35.8458L-54.1635 35.0473L-54.9621 35.8458L-54.1635 36.6444L-53.3649 35.8458Z" fill="url(#dotGrad)"/>
<path d="M-43.3264 35.8458L-44.125 35.0473L-44.9236 35.8458L-44.125 36.6444L-43.3264 35.8458Z" fill="url(#dotGrad)"/>
<path d="M-33.2879 35.8458L-34.0864 35.0473L-34.885 35.8458L-34.0864 36.6444L-33.2879 35.8458Z" fill="url(#dotGrad)"/>
<path d="M-23.2493 35.8458L-24.0478 35.0473L-24.8464 35.8458L-24.0478 36.6444L-23.2493 35.8458Z" fill="url(#dotGrad)"/>
<path d="M-13.2108 35.8458L-14.0093 35.0473L-14.8079 35.8458L-14.0093 36.6444L-13.2108 35.8458Z" fill="url(#dotGrad)"/>
<path d="M-3.17221 35.8458L-3.97077 35.0473L-4.76933 35.8458L-3.97077 36.6444L-3.17221 35.8458Z" fill="url(#dotGrad)"/>
<path d="M6.86628 35.8458L6.06772 35.0473L5.26916 35.8458L6.06772 36.6444L6.86628 35.8458Z" fill="url(#dotGrad)"/>
<path d="M16.9049 35.8458L16.1063 35.0473L15.3077 35.8458L16.1063 36.6444L16.9049 35.8458Z" fill="url(#dotGrad)"/>
<path d="M26.9435 35.8458L26.1449 35.0473L25.3463 35.8458L26.1449 36.6444L26.9435 35.8458Z" fill="url(#dotGrad)"/>
<path d="M36.9819 35.8458L36.1834 35.0473L35.3848 35.8458L36.1834 36.6444L36.9819 35.8458Z" fill="url(#dotGrad)"/>
<path d="M47.0205 35.8458L46.222 35.0473L45.4234 35.8458L46.222 36.6444L47.0205 35.8458Z" fill="url(#dotGrad)"/>
<path d="M57.0591 35.8458L56.2606 35.0473L55.462 35.8458L56.2606 36.6444L57.0591 35.8458Z" fill="url(#dotGrad)"/>
<path d="M67.0976 35.8458L66.2991 35.0473L65.5005 35.8458L66.2991 36.6444L67.0976 35.8458Z" fill="url(#dotGrad)"/>
<path d="M77.1362 35.8458L76.3376 35.0473L75.5391 35.8458L76.3376 36.6444L77.1362 35.8458Z" fill="url(#dotGrad)"/>
<path d="M87.1747 35.8458L86.3761 35.0473L85.5776 35.8458L86.3761 36.6444L87.1747 35.8458Z" fill="url(#dotGrad)"/>
<path d="M97.2133 35.8458L96.4147 35.0473L95.6161 35.8458L96.4147 36.6444L97.2133 35.8458Z" fill="url(#dotGrad)"/>
<path d="M107.252 35.8458L106.453 35.0473L105.655 35.8458L106.453 36.6444L107.252 35.8458Z" fill="url(#dotGrad)"/>
<path d="M117.29 35.8458L116.492 35.0473L115.693 35.8458L116.492 36.6444L117.29 35.8458Z" fill="url(#dotGrad)"/>
<path d="M-63.4035 45.8844L-64.2021 45.0859L-65.0006 45.8844L-64.2021 46.683L-63.4035 45.8844Z" fill="url(#dotGrad)"/>
<path d="M-53.3649 45.8844L-54.1635 45.0859L-54.9621 45.8844L-54.1635 46.683L-53.3649 45.8844Z" fill="url(#dotGrad)"/>
<path d="M-43.3264 45.8844L-44.125 45.0859L-44.9236 45.8844L-44.125 46.683L-43.3264 45.8844Z" fill="url(#dotGrad)"/>
<path d="M-33.2879 45.8844L-34.0864 45.0859L-34.885 45.8844L-34.0864 46.683L-33.2879 45.8844Z" fill="url(#dotGrad)"/>
<path d="M-23.2493 45.8844L-24.0478 45.0859L-24.8464 45.8844L-24.0478 46.683L-23.2493 45.8844Z" fill="url(#dotGrad)"/>
<path d="M-13.2108 45.8844L-14.0093 45.0859L-14.8079 45.8844L-14.0093 46.683L-13.2108 45.8844Z" fill="url(#dotGrad)"/>
<path d="M-3.17221 45.8844L-3.97077 45.0859L-4.76933 45.8844L-3.97077 46.683L-3.17221 45.8844Z" fill="url(#dotGrad)"/>
<path d="M6.86628 45.8844L6.06772 45.0859L5.26916 45.8844L6.06772 46.683L6.86628 45.8844Z" fill="url(#dotGrad)"/>
<path d="M16.9049 45.8844L16.1063 45.0859L15.3077 45.8844L16.1063 46.683L16.9049 45.8844Z" fill="url(#dotGrad)"/>
<path d="M26.9435 45.8844L26.1449 45.0859L25.3463 45.8844L26.1449 46.683L26.9435 45.8844Z" fill="url(#dotGrad)"/>
<path d="M36.9819 45.8844L36.1834 45.0859L35.3848 45.8844L36.1834 46.683L36.9819 45.8844Z" fill="url(#dotGrad)"/>
<path d="M47.0205 45.8844L46.222 45.0859L45.4234 45.8844L46.222 46.683L47.0205 45.8844Z" fill="url(#dotGrad)"/>
<path d="M57.0591 45.8844L56.2606 45.0859L55.462 45.8844L56.2606 46.683L57.0591 45.8844Z" fill="url(#dotGrad)"/>
<path d="M67.0976 45.8844L66.2991 45.0859L65.5005 45.8844L66.2991 46.683L67.0976 45.8844Z" fill="url(#dotGrad)"/>
<path d="M77.1362 45.8844L76.3376 45.0859L75.5391 45.8844L76.3376 46.683L77.1362 45.8844Z" fill="url(#dotGrad)"/>
<path d="M87.1747 45.8844L86.3761 45.0859L85.5776 45.8844L86.3761 46.683L87.1747 45.8844Z" fill="url(#dotGrad)"/>
<path d="M97.2133 45.8844L96.4147 45.0859L95.6161 45.8844L96.4147 46.683L97.2133 45.8844Z" fill="url(#dotGrad)"/>
<path d="M107.252 45.8844L106.453 45.0859L105.655 45.8844L106.453 46.683L107.252 45.8844Z" fill="url(#dotGrad)"/>
<path d="M117.29 45.8844L116.492 45.0859L115.693 45.8844L116.492 46.683L117.29 45.8844Z" fill="url(#dotGrad)"/>
<path d="M-63.4035 55.9228L-64.2021 55.1242L-65.0006 55.9228L-64.2021 56.7214L-63.4035 55.9228Z" fill="url(#dotGrad)"/>
<path d="M-53.3649 55.9228L-54.1635 55.1242L-54.9621 55.9228L-54.1635 56.7214L-53.3649 55.9228Z" fill="url(#dotGrad)"/>
<path d="M-43.3264 55.9228L-44.125 55.1242L-44.9236 55.9228L-44.125 56.7214L-43.3264 55.9228Z" fill="url(#dotGrad)"/>
<path d="M-33.2879 55.9228L-34.0864 55.1242L-34.885 55.9228L-34.0864 56.7214L-33.2879 55.9228Z" fill="url(#dotGrad)"/>
<path d="M-23.2493 55.9228L-24.0478 55.1242L-24.8464 55.9228L-24.0478 56.7214L-23.2493 55.9228Z" fill="url(#dotGrad)"/>
<path d="M-13.2108 55.9228L-14.0093 55.1242L-14.8079 55.9228L-14.0093 56.7214L-13.2108 55.9228Z" fill="url(#dotGrad)"/>
<path d="M-3.17221 55.9228L-3.97077 55.1242L-4.76933 55.9228L-3.97077 56.7214L-3.17221 55.9228Z" fill="url(#dotGrad)"/>
<path d="M6.86628 55.9228L6.06772 55.1242L5.26916 55.9228L6.06772 56.7214L6.86628 55.9228Z" fill="url(#dotGrad)"/>
<path d="M16.9049 55.9228L16.1063 55.1242L15.3077 55.9228L16.1063 56.7214L16.9049 55.9228Z" fill="url(#dotGrad)"/>
<path d="M26.9435 55.9228L26.1449 55.1242L25.3463 55.9228L26.1449 56.7214L26.9435 55.9228Z" fill="url(#dotGrad)"/>
<path d="M36.9819 55.9228L36.1834 55.1242L35.3848 55.9228L36.1834 56.7214L36.9819 55.9228Z" fill="url(#dotGrad)"/>
<path d="M47.0205 55.9228L46.222 55.1242L45.4234 55.9228L46.222 56.7214L47.0205 55.9228Z" fill="url(#dotGrad)"/>
<path d="M57.0591 55.9228L56.2606 55.1242L55.462 55.9228L56.2606 56.7214L57.0591 55.9228Z" fill="url(#dotGrad)"/>
<path d="M67.0976 55.9228L66.2991 55.1242L65.5005 55.9228L66.2991 56.7214L67.0976 55.9228Z" fill="url(#dotGrad)"/>
<path d="M77.1362 55.9228L76.3376 55.1242L75.5391 55.9228L76.3376 56.7214L77.1362 55.9228Z" fill="url(#dotGrad)"/>
<path d="M87.1747 55.9228L86.3761 55.1242L85.5776 55.9228L86.3761 56.7214L87.1747 55.9228Z" fill="url(#dotGrad)"/>
<path d="M97.2133 55.9228L96.4147 55.1242L95.6161 55.9228L96.4147 56.7214L97.2133 55.9228Z" fill="url(#dotGrad)"/>
<path d="M107.252 55.9228L106.453 55.1242L105.655 55.9228L106.453 56.7214L107.252 55.9228Z" fill="url(#dotGrad)"/>
<path d="M117.29 55.9228L116.492 55.1242L115.693 55.9228L116.492 56.7214L117.29 55.9228Z" fill="url(#dotGrad)"/>
<path d="M-63.4035 65.9615L-64.2021 65.163L-65.0006 65.9615L-64.2021 66.7601L-63.4035 65.9615Z" fill="url(#dotGrad)"/>
<path d="M-53.3649 65.9615L-54.1635 65.163L-54.9621 65.9615L-54.1635 66.7601L-53.3649 65.9615Z" fill="url(#dotGrad)"/>
<path d="M-43.3264 65.9615L-44.125 65.163L-44.9236 65.9615L-44.125 66.7601L-43.3264 65.9615Z" fill="url(#dotGrad)"/>
<path d="M-33.2879 65.9615L-34.0864 65.163L-34.885 65.9615L-34.0864 66.7601L-33.2879 65.9615Z" fill="url(#dotGrad)"/>
<path d="M-23.2493 65.9615L-24.0478 65.163L-24.8464 65.9615L-24.0478 66.7601L-23.2493 65.9615Z" fill="url(#dotGrad)"/>
<path d="M-13.2108 65.9615L-14.0093 65.163L-14.8079 65.9615L-14.0093 66.7601L-13.2108 65.9615Z" fill="url(#dotGrad)"/>
<path d="M-3.17221 65.9615L-3.97077 65.163L-4.76933 65.9615L-3.97077 66.7601L-3.17221 65.9615Z" fill="url(#dotGrad)"/>
<path d="M6.86628 65.9615L6.06772 65.163L5.26916 65.9615L6.06772 66.7601L6.86628 65.9615Z" fill="url(#dotGrad)"/>
<path d="M16.9049 65.9615L16.1063 65.163L15.3077 65.9615L16.1063 66.7601L16.9049 65.9615Z" fill="url(#dotGrad)"/>
<path d="M26.9435 65.9615L26.1449 65.163L25.3463 65.9615L26.1449 66.7601L26.9435 65.9615Z" fill="url(#dotGrad)"/>
<path d="M36.9819 65.9615L36.1834 65.163L35.3848 65.9615L36.1834 66.7601L36.9819 65.9615Z" fill="url(#dotGrad)"/>
<path d="M47.0205 65.9615L46.222 65.163L45.4234 65.9615L46.222 66.7601L47.0205 65.9615Z" fill="url(#dotGrad)"/>
<path d="M57.0591 65.9615L56.2606 65.163L55.462 65.9615L56.2606 66.7601L57.0591 65.9615Z" fill="url(#dotGrad)"/>
<path d="M67.0976 65.9615L66.2991 65.163L65.5005 65.9615L66.2991 66.7601L67.0976 65.9615Z" fill="url(#dotGrad)"/>
<path d="M77.1362 65.9615L76.3376 65.163L75.5391 65.9615L76.3376 66.7601L77.1362 65.9615Z" fill="url(#dotGrad)"/>
<path d="M87.1747 65.9615L86.3761 65.163L85.5776 65.9615L86.3761 66.7601L87.1747 65.9615Z" fill="url(#dotGrad)"/>
<path d="M97.2133 65.9615L96.4147 65.163L95.6161 65.9615L96.4147 66.7601L97.2133 65.9615Z" fill="url(#dotGrad)"/>
<path d="M107.252 65.9615L106.453 65.163L105.655 65.9615L106.453 66.7601L107.252 65.9615Z" fill="url(#dotGrad)"/>
<path d="M117.29 65.9615L116.492 65.163L115.693 65.9615L116.492 66.7601L117.29 65.9615Z" fill="url(#dotGrad)"/>
<path d="M-63.4035 76.0001L-64.2021 75.2015L-65.0006 76.0001L-64.2021 76.7987L-63.4035 76.0001Z" fill="url(#dotGrad)"/>
<path d="M-53.3649 76.0001L-54.1635 75.2015L-54.9621 76.0001L-54.1635 76.7987L-53.3649 76.0001Z" fill="url(#dotGrad)"/>
<path d="M-43.3264 76.0001L-44.125 75.2015L-44.9236 76.0001L-44.125 76.7987L-43.3264 76.0001Z" fill="url(#dotGrad)"/>
<path d="M-33.2879 76.0001L-34.0864 75.2015L-34.885 76.0001L-34.0864 76.7987L-33.2879 76.0001Z" fill="url(#dotGrad)"/>
<path d="M-23.2493 76.0001L-24.0478 75.2015L-24.8464 76.0001L-24.0478 76.7987L-23.2493 76.0001Z" fill="url(#dotGrad)"/>
<path d="M-13.2108 76.0001L-14.0093 75.2015L-14.8079 76.0001L-14.0093 76.7987L-13.2108 76.0001Z" fill="url(#dotGrad)"/>
<path d="M-3.17221 76.0001L-3.97077 75.2015L-4.76933 76.0001L-3.97077 76.7987L-3.17221 76.0001Z" fill="url(#dotGrad)"/>
<path d="M6.86628 76.0001L6.06772 75.2015L5.26916 76.0001L6.06772 76.7987L6.86628 76.0001Z" fill="url(#dotGrad)"/>
<path d="M16.9049 76.0001L16.1063 75.2015L15.3077 76.0001L16.1063 76.7987L16.9049 76.0001Z" fill="url(#dotGrad)"/>
<path d="M26.9435 76.0001L26.1449 75.2015L25.3463 76.0001L26.1449 76.7987L26.9435 76.0001Z" fill="url(#dotGrad)"/>
<path d="M36.9819 76.0001L36.1834 75.2015L35.3848 76.0001L36.1834 76.7987L36.9819 76.0001Z" fill="url(#dotGrad)"/>
<path d="M47.0205 76.0001L46.222 75.2015L45.4234 76.0001L46.222 76.7987L47.0205 76.0001Z" fill="url(#dotGrad)"/>
<path d="M57.0591 76.0001L56.2606 75.2015L55.462 76.0001L56.2606 76.7987L57.0591 76.0001Z" fill="url(#dotGrad)"/>
<path d="M67.0976 76.0001L66.2991 75.2015L65.5005 76.0001L66.2991 76.7987L67.0976 76.0001Z" fill="url(#dotGrad)"/>
<path d="M77.1362 76.0001L76.3376 75.2015L75.5391 76.0001L76.3376 76.7987L77.1362 76.0001Z" fill="url(#dotGrad)"/>
<path d="M87.1747 76.0001L86.3761 75.2015L85.5776 76.0001L86.3761 76.7987L87.1747 76.0001Z" fill="url(#dotGrad)"/>
<path d="M97.2133 76.0001L96.4147 75.2015L95.6161 76.0001L96.4147 76.7987L97.2133 76.0001Z" fill="url(#dotGrad)"/>
<path d="M107.252 76.0001L106.453 75.2015L105.655 76.0001L106.453 76.7987L107.252 76.0001Z" fill="url(#dotGrad)"/>
<path d="M117.29 76.0001L116.492 75.2015L115.693 76.0001L116.492 76.7987L117.29 76.0001Z" fill="url(#dotGrad)"/>
<path d="M-63.4035 86.0386L-64.2021 85.24L-65.0006 86.0386L-64.2021 86.8371L-63.4035 86.0386Z" fill="url(#dotGrad)"/>
<path d="M-53.3649 86.0386L-54.1635 85.24L-54.9621 86.0386L-54.1635 86.8371L-53.3649 86.0386Z" fill="url(#dotGrad)"/>
<path d="M-43.3264 86.0386L-44.125 85.24L-44.9236 86.0386L-44.125 86.8371L-43.3264 86.0386Z" fill="url(#dotGrad)"/>
<path d="M-33.2879 86.0386L-34.0864 85.24L-34.885 86.0386L-34.0864 86.8371L-33.2879 86.0386Z" fill="url(#dotGrad)"/>
<path d="M-23.2493 86.0386L-24.0478 85.24L-24.8464 86.0386L-24.0478 86.8371L-23.2493 86.0386Z" fill="url(#dotGrad)"/>
<path d="M-13.2108 86.0386L-14.0093 85.24L-14.8079 86.0386L-14.0093 86.8371L-13.2108 86.0386Z" fill="url(#dotGrad)"/>
<path d="M-3.17221 86.0386L-3.97077 85.24L-4.76933 86.0386L-3.97077 86.8371L-3.17221 86.0386Z" fill="url(#dotGrad)"/>
<path d="M6.86628 86.0386L6.06772 85.24L5.26916 86.0386L6.06772 86.8371L6.86628 86.0386Z" fill="url(#dotGrad)"/>
<path d="M16.9049 86.0386L16.1063 85.24L15.3077 86.0386L16.1063 86.8371L16.9049 86.0386Z" fill="url(#dotGrad)"/>
<path d="M26.9435 86.0386L26.1449 85.24L25.3463 86.0386L26.1449 86.8371L26.9435 86.0386Z" fill="url(#dotGrad)"/>
<path d="M36.9819 86.0386L36.1834 85.24L35.3848 86.0386L36.1834 86.8371L36.9819 86.0386Z" fill="url(#dotGrad)"/>
<path d="M47.0205 86.0386L46.222 85.24L45.4234 86.0386L46.222 86.8371L47.0205 86.0386Z" fill="url(#dotGrad)"/>
<path d="M57.0591 86.0386L56.2606 85.24L55.462 86.0386L56.2606 86.8371L57.0591 86.0386Z" fill="url(#dotGrad)"/>
<path d="M67.0976 86.0386L66.2991 85.24L65.5005 86.0386L66.2991 86.8371L67.0976 86.0386Z" fill="url(#dotGrad)"/>
<path d="M77.1362 86.0386L76.3376 85.24L75.5391 86.0386L76.3376 86.8371L77.1362 86.0386Z" fill="url(#dotGrad)"/>
<path d="M87.1747 86.0386L86.3761 85.24L85.5776 86.0386L86.3761 86.8371L87.1747 86.0386Z" fill="url(#dotGrad)"/>
<path d="M97.2133 86.0386L96.4147 85.24L95.6161 86.0386L96.4147 86.8371L97.2133 86.0386Z" fill="url(#dotGrad)"/>
<path d="M107.252 86.0386L106.453 85.24L105.655 86.0386L106.453 86.8371L107.252 86.0386Z" fill="url(#dotGrad)"/>
<path d="M117.29 86.0386L116.492 85.24L115.693 86.0386L116.492 86.8371L117.29 86.0386Z" fill="url(#dotGrad)"/>
<path d="M-63.4035 96.077L-64.2021 95.2785L-65.0006 96.077L-64.2021 96.8756L-63.4035 96.077Z" fill="url(#dotGrad)"/>
<path d="M-53.3649 96.077L-54.1635 95.2785L-54.9621 96.077L-54.1635 96.8756L-53.3649 96.077Z" fill="url(#dotGrad)"/>
<path d="M-43.3264 96.077L-44.125 95.2785L-44.9236 96.077L-44.125 96.8756L-43.3264 96.077Z" fill="url(#dotGrad)"/>
<path d="M-33.2879 96.077L-34.0864 95.2785L-34.885 96.077L-34.0864 96.8756L-33.2879 96.077Z" fill="url(#dotGrad)"/>
<path d="M-23.2493 96.077L-24.0478 95.2785L-24.8464 96.077L-24.0478 96.8756L-23.2493 96.077Z" fill="url(#dotGrad)"/>
<path d="M-13.2108 96.077L-14.0093 95.2785L-14.8079 96.077L-14.0093 96.8756L-13.2108 96.077Z" fill="url(#dotGrad)"/>
<path d="M-3.17221 96.077L-3.97077 95.2785L-4.76933 96.077L-3.97077 96.8756L-3.17221 96.077Z" fill="url(#dotGrad)"/>
<path d="M6.86628 96.077L6.06772 95.2785L5.26916 96.077L6.06772 96.8756L6.86628 96.077Z" fill="url(#dotGrad)"/>
<path d="M16.9049 96.077L16.1063 95.2785L15.3077 96.077L16.1063 96.8756L16.9049 96.077Z" fill="url(#dotGrad)"/>
<path d="M26.9435 96.077L26.1449 95.2785L25.3463 96.077L26.1449 96.8756L26.9435 96.077Z" fill="url(#dotGrad)"/>
<path d="M36.9819 96.077L36.1834 95.2785L35.3848 96.077L36.1834 96.8756L36.9819 96.077Z" fill="url(#dotGrad)"/>
<path d="M47.0205 96.077L46.222 95.2785L45.4234 96.077L46.222 96.8756L47.0205 96.077Z" fill="url(#dotGrad)"/>
<path d="M57.0591 96.077L56.2606 95.2785L55.462 96.077L56.2606 96.8756L57.0591 96.077Z" fill="url(#dotGrad)"/>
<path d="M67.0976 96.077L66.2991 95.2785L65.5005 96.077L66.2991 96.8756L67.0976 96.077Z" fill="url(#dotGrad)"/>
<path d="M77.1362 96.077L76.3376 95.2785L75.5391 96.077L76.3376 96.8756L77.1362 96.077Z" fill="url(#dotGrad)"/>
<path d="M87.1747 96.077L86.3761 95.2785L85.5776 96.077L86.3761 96.8756L87.1747 96.077Z" fill="url(#dotGrad)"/>
<path d="M97.2133 96.077L96.4147 95.2785L95.6161 96.077L96.4147 96.8756L97.2133 96.077Z" fill="url(#dotGrad)"/>
<path d="M107.252 96.077L106.453 95.2785L105.655 96.077L106.453 96.8756L107.252 96.077Z" fill="url(#dotGrad)"/>
<path d="M117.29 96.077L116.492 95.2785L115.693 96.077L116.492 96.8756L117.29 96.077Z" fill="url(#dotGrad)"/>
<path d="M-63.4035 106.116L-64.2021 105.317L-65.0006 106.116L-64.2021 106.914L-63.4035 106.116Z" fill="url(#dotGrad)"/>
<path d="M-53.3649 106.116L-54.1635 105.317L-54.9621 106.116L-54.1635 106.914L-53.3649 106.116Z" fill="url(#dotGrad)"/>
<path d="M-43.3264 106.116L-44.125 105.317L-44.9236 106.116L-44.125 106.914L-43.3264 106.116Z" fill="url(#dotGrad)"/>
<path d="M-33.2879 106.116L-34.0864 105.317L-34.885 106.116L-34.0864 106.914L-33.2879 106.116Z" fill="url(#dotGrad)"/>
<path d="M-23.2493 106.116L-24.0478 105.317L-24.8464 106.116L-24.0478 106.914L-23.2493 106.116Z" fill="url(#dotGrad)"/>
<path d="M-13.2108 106.116L-14.0093 105.317L-14.8079 106.116L-14.0093 106.914L-13.2108 106.116Z" fill="url(#dotGrad)"/>
<path d="M-3.17221 106.116L-3.97077 105.317L-4.76933 106.116L-3.97077 106.914L-3.17221 106.116Z" fill="url(#dotGrad)"/>
<path d="M6.86628 106.116L6.06772 105.317L5.26916 106.116L6.06772 106.914L6.86628 106.116Z" fill="url(#dotGrad)"/>
<path d="M16.9049 106.116L16.1063 105.317L15.3077 106.116L16.1063 106.914L16.9049 106.116Z" fill="url(#dotGrad)"/>
<path d="M26.9435 106.116L26.1449 105.317L25.3463 106.116L26.1449 106.914L26.9435 106.116Z" fill="url(#dotGrad)"/>
<path d="M36.9819 106.116L36.1834 105.317L35.3848 106.116L36.1834 106.914L36.9819 106.116Z" fill="url(#dotGrad)"/>
<path d="M47.0205 106.116L46.222 105.317L45.4234 106.116L46.222 106.914L47.0205 106.116Z" fill="url(#dotGrad)"/>
<path d="M57.0591 106.116L56.2606 105.317L55.462 106.116L56.2606 106.914L57.0591 106.116Z" fill="url(#dotGrad)"/>
<path d="M67.0976 106.116L66.2991 105.317L65.5005 106.116L66.2991 106.914L67.0976 106.116Z" fill="url(#dotGrad)"/>
<path d="M77.1362 106.116L76.3376 105.317L75.5391 106.116L76.3376 106.914L77.1362 106.116Z" fill="url(#dotGrad)"/>
<path d="M87.1747 106.116L86.3761 105.317L85.5776 106.116L86.3761 106.914L87.1747 106.116Z" fill="url(#dotGrad)"/>
<path d="M97.2133 106.116L96.4147 105.317L95.6161 106.116L96.4147 106.914L97.2133 106.116Z" fill="url(#dotGrad)"/>
<path d="M107.252 106.116L106.453 105.317L105.655 106.116L106.453 106.914L107.252 106.116Z" fill="url(#dotGrad)"/>
<path d="M117.29 106.116L116.492 105.317L115.693 106.116L116.492 106.914L117.29 106.116Z" fill="url(#dotGrad)"/>
<path d="M-63.4035 116.154L-64.2021 115.356L-65.0006 116.154L-64.2021 116.953L-63.4035 116.154Z" fill="url(#dotGrad)"/>
<path d="M-53.3649 116.154L-54.1635 115.356L-54.9621 116.154L-54.1635 116.953L-53.3649 116.154Z" fill="url(#dotGrad)"/>
<path d="M-43.3264 116.154L-44.125 115.356L-44.9236 116.154L-44.125 116.953L-43.3264 116.154Z" fill="url(#dotGrad)"/>
<path d="M-33.2879 116.154L-34.0864 115.356L-34.885 116.154L-34.0864 116.953L-33.2879 116.154Z" fill="url(#dotGrad)"/>
<path d="M-23.2493 116.154L-24.0478 115.356L-24.8464 116.154L-24.0478 116.953L-23.2493 116.154Z" fill="url(#dotGrad)"/>
<path d="M-13.2108 116.154L-14.0093 115.356L-14.8079 116.154L-14.0093 116.953L-13.2108 116.154Z" fill="url(#dotGrad)"/>
<path d="M-3.17221 116.154L-3.97077 115.356L-4.76933 116.154L-3.97077 116.953L-3.17221 116.154Z" fill="url(#dotGrad)"/>
<path d="M6.86628 116.154L6.06772 115.356L5.26916 116.154L6.06772 116.953L6.86628 116.154Z" fill="url(#dotGrad)"/>
<path d="M16.9049 116.154L16.1063 115.356L15.3077 116.154L16.1063 116.953L16.9049 116.154Z" fill="url(#dotGrad)"/>
<path d="M26.9435 116.154L26.1449 115.356L25.3463 116.154L26.1449 116.953L26.9435 116.154Z" fill="url(#dotGrad)"/>
<path d="M36.9819 116.154L36.1834 115.356L35.3848 116.154L36.1834 116.953L36.9819 116.154Z" fill="url(#dotGrad)"/>
<path d="M47.0205 116.154L46.222 115.356L45.4234 116.154L46.222 116.953L47.0205 116.154Z" fill="url(#dotGrad)"/>
<path d="M57.0591 116.154L56.2606 115.356L55.462 116.154L56.2606 116.953L57.0591 116.154Z" fill="url(#dotGrad)"/>
<path d="M67.0976 116.154L66.2991 115.356L65.5005 116.154L66.2991 116.953L67.0976 116.154Z" fill="url(#dotGrad)"/>
<path d="M87.1747 116.154L86.3761 115.356L85.5776 116.154L86.3761 116.953L87.1747 116.154Z" fill="url(#dotGrad)"/>
<path d="M97.2133 116.154L96.4147 115.356L95.6161 116.154L96.4147 116.953L97.2133 116.154Z" fill="url(#dotGrad)"/>
<path d="M107.252 116.154L106.453 115.356L105.655 116.154L106.453 116.953L107.252 116.154Z" fill="url(#dotGrad)"/>
<path d="M117.29 116.154L116.492 115.356L115.693 116.154L116.492 116.953L117.29 116.154Z" fill="url(#dotGrad)"/>
<path d="M-63.4035 126.193L-64.2021 125.394L-65.0006 126.193L-64.2021 126.991L-63.4035 126.193Z" fill="url(#dotGrad)"/>
<path d="M-53.3649 126.193L-54.1635 125.394L-54.9621 126.193L-54.1635 126.991L-53.3649 126.193Z" fill="url(#dotGrad)"/>
<path d="M-43.3264 126.193L-44.125 125.394L-44.9236 126.193L-44.125 126.991L-43.3264 126.193Z" fill="url(#dotGrad)"/>
<path d="M-33.2879 126.193L-34.0864 125.394L-34.885 126.193L-34.0864 126.991L-33.2879 126.193Z" fill="url(#dotGrad)"/>
<path d="M-23.2493 126.193L-24.0478 125.394L-24.8464 126.193L-24.0478 126.991L-23.2493 126.193Z" fill="url(#dotGrad)"/>
<path d="M-13.2108 126.193L-14.0093 125.394L-14.8079 126.193L-14.0093 126.991L-13.2108 126.193Z" fill="url(#dotGrad)"/>
<path d="M-3.17221 126.193L-3.97077 125.394L-4.76933 126.193L-3.97077 126.991L-3.17221 126.193Z" fill="url(#dotGrad)"/>
<path d="M6.86628 126.193L6.06772 125.394L5.26916 126.193L6.06772 126.991L6.86628 126.193Z" fill="url(#dotGrad)"/>
<path d="M16.9049 126.193L16.1063 125.394L15.3077 126.193L16.1063 126.991L16.9049 126.193Z" fill="url(#dotGrad)"/>
<path d="M26.9435 126.193L26.1449 125.394L25.3463 126.193L26.1449 126.991L26.9435 126.193Z" fill="url(#dotGrad)"/>
<path d="M36.9819 126.193L36.1834 125.394L35.3848 126.193L36.1834 126.991L36.9819 126.193Z" fill="url(#dotGrad)"/>
<path d="M47.0205 126.193L46.222 125.394L45.4234 126.193L46.222 126.991L47.0205 126.193Z" fill="url(#dotGrad)"/>
<path d="M57.0591 126.193L56.2606 125.394L55.462 126.193L56.2606 126.991L57.0591 126.193Z" fill="url(#dotGrad)"/>
<path d="M67.0976 126.193L66.2991 125.394L65.5005 126.193L66.2991 126.991L67.0976 126.193Z" fill="url(#dotGrad)"/>
<path d="M77.1362 126.193L76.3376 125.394L75.5391 126.193L76.3376 126.991L77.1362 126.193Z" fill="url(#dotGrad)"/>
<path d="M87.1747 126.193L86.3761 125.394L85.5776 126.193L86.3761 126.991L87.1747 126.193Z" fill="url(#dotGrad)"/>
<path d="M97.2133 126.193L96.4147 125.394L95.6161 126.193L96.4147 126.991L97.2133 126.193Z" fill="url(#dotGrad)"/>
<path d="M107.252 126.193L106.453 125.394L105.655 126.193L106.453 126.991L107.252 126.193Z" fill="url(#dotGrad)"/>
<path d="M117.29 126.193L116.492 125.394L115.693 126.193L116.492 126.991L117.29 126.193Z" fill="url(#dotGrad)"/>
<path d="M-63.4035 136.231L-64.2021 135.433L-65.0006 136.231L-64.2021 137.03L-63.4035 136.231Z" fill="url(#dotGrad)"/>
<path d="M-53.3649 136.231L-54.1635 135.433L-54.9621 136.231L-54.1635 137.03L-53.3649 136.231Z" fill="url(#dotGrad)"/>
<path d="M-43.3264 136.231L-44.125 135.433L-44.9236 136.231L-44.125 137.03L-43.3264 136.231Z" fill="url(#dotGrad)"/>
<path d="M-33.2879 136.231L-34.0864 135.433L-34.885 136.231L-34.0864 137.03L-33.2879 136.231Z" fill="url(#dotGrad)"/>
<path d="M-23.2493 136.231L-24.0478 135.433L-24.8464 136.231L-24.0478 137.03L-23.2493 136.231Z" fill="url(#dotGrad)"/>
<path d="M-13.2108 136.231L-14.0093 135.433L-14.8079 136.231L-14.0093 137.03L-13.2108 136.231Z" fill="url(#dotGrad)"/>
<path d="M-3.17221 136.231L-3.97077 135.433L-4.76933 136.231L-3.97077 137.03L-3.17221 136.231Z" fill="url(#dotGrad)"/>
<path d="M6.86628 136.231L6.06772 135.433L5.26916 136.231L6.06772 137.03L6.86628 136.231Z" fill="url(#dotGrad)"/>
<path d="M16.9049 136.231L16.1063 135.433L15.3077 136.231L16.1063 137.03L16.9049 136.231Z" fill="url(#dotGrad)"/>
<path d="M26.9435 136.231L26.1449 135.433L25.3463 136.231L26.1449 137.03L26.9435 136.231Z" fill="url(#dotGrad)"/>
<path d="M36.9819 136.231L36.1834 135.433L35.3848 136.231L36.1834 137.03L36.9819 136.231Z" fill="url(#dotGrad)"/>
<path d="M47.0205 136.231L46.222 135.433L45.4234 136.231L46.222 137.03L47.0205 136.231Z" fill="url(#dotGrad)"/>
<path d="M57.0591 136.231L56.2606 135.433L55.462 136.231L56.2606 137.03L57.0591 136.231Z" fill="url(#dotGrad)"/>
<path d="M67.0976 136.231L66.2991 135.433L65.5005 136.231L66.2991 137.03L67.0976 136.231Z" fill="url(#dotGrad)"/>
<path d="M77.1362 136.231L76.3376 135.433L75.5391 136.231L76.3376 137.03L77.1362 136.231Z" fill="url(#dotGrad)"/>
<path d="M87.1747 136.231L86.3761 135.433L85.5776 136.231L86.3761 137.03L87.1747 136.231Z" fill="url(#dotGrad)"/>
<path d="M97.2133 136.231L96.4147 135.433L95.6161 136.231L96.4147 137.03L97.2133 136.231Z" fill="url(#dotGrad)"/>
<path d="M107.252 136.231L106.453 135.433L105.655 136.231L106.453 137.03L107.252 136.231Z" fill="url(#dotGrad)"/>
<path d="M117.29 136.231L116.492 135.433L115.693 136.231L116.492 137.03L117.29 136.231Z" fill="url(#dotGrad)"/>
<path d="M-63.4035 146.27L-64.2021 145.471L-65.0006 146.27L-64.2021 147.068L-63.4035 146.27Z" fill="url(#dotGrad)"/>
<path d="M-53.3649 146.27L-54.1635 145.471L-54.9621 146.27L-54.1635 147.068L-53.3649 146.27Z" fill="url(#dotGrad)"/>
<path d="M-43.3264 146.27L-44.125 145.471L-44.9236 146.27L-44.125 147.068L-43.3264 146.27Z" fill="url(#dotGrad)"/>
<path d="M-33.2879 146.27L-34.0864 145.471L-34.885 146.27L-34.0864 147.068L-33.2879 146.27Z" fill="url(#dotGrad)"/>
<path d="M-23.2493 146.27L-24.0478 145.471L-24.8464 146.27L-24.0478 147.068L-23.2493 146.27Z" fill="url(#dotGrad)"/>
<path d="M-13.2108 146.27L-14.0093 145.471L-14.8079 146.27L-14.0093 147.068L-13.2108 146.27Z" fill="url(#dotGrad)"/>
<path d="M-3.17221 146.27L-3.97077 145.471L-4.76933 146.27L-3.97077 147.068L-3.17221 146.27Z" fill="url(#dotGrad)"/>
<path d="M6.86628 146.27L6.06772 145.471L5.26916 146.27L6.06772 147.068L6.86628 146.27Z" fill="url(#dotGrad)"/>
<path d="M16.9049 146.27L16.1063 145.471L15.3077 146.27L16.1063 147.068L16.9049 146.27Z" fill="url(#dotGrad)"/>
<path d="M26.9435 146.27L26.1449 145.471L25.3463 146.27L26.1449 147.068L26.9435 146.27Z" fill="url(#dotGrad)"/>
<path d="M36.9819 146.27L36.1834 145.471L35.3848 146.27L36.1834 147.068L36.9819 146.27Z" fill="url(#dotGrad)"/>
<path d="M47.0205 146.27L46.222 145.471L45.4234 146.27L46.222 147.068L47.0205 146.27Z" fill="url(#dotGrad)"/>
<path d="M57.0591 146.27L56.2606 145.471L55.462 146.27L56.2606 147.068L57.0591 146.27Z" fill="url(#dotGrad)"/>
<path d="M67.0976 146.27L66.2991 145.471L65.5005 146.27L66.2991 147.068L67.0976 146.27Z" fill="url(#dotGrad)"/>
<path d="M77.1362 146.27L76.3376 145.471L75.5391 146.27L76.3376 147.068L77.1362 146.27Z" fill="url(#dotGrad)"/>
<path d="M87.1747 146.27L86.3761 145.471L85.5776 146.27L86.3761 147.068L87.1747 146.27Z" fill="url(#dotGrad)"/>
<path d="M97.2133 146.27L96.4147 145.471L95.6161 146.27L96.4147 147.068L97.2133 146.27Z" fill="url(#dotGrad)"/>
<path d="M107.252 146.27L106.453 145.471L105.655 146.27L106.453 147.068L107.252 146.27Z" fill="url(#dotGrad)"/>
<path d="M117.29 146.27L116.492 145.471L115.693 146.27L116.492 147.068L117.29 146.27Z" fill="url(#dotGrad)"/>
<path d="M-63.4035 156.308L-64.2021 155.51L-65.0006 156.308L-64.2021 157.107L-63.4035 156.308Z" fill="url(#dotGrad)"/>
<path d="M-53.3649 156.308L-54.1635 155.51L-54.9621 156.308L-54.1635 157.107L-53.3649 156.308Z" fill="url(#dotGrad)"/>
<path d="M-43.3264 156.308L-44.125 155.51L-44.9236 156.308L-44.125 157.107L-43.3264 156.308Z" fill="url(#dotGrad)"/>
<path d="M-33.2879 156.308L-34.0864 155.51L-34.885 156.308L-34.0864 157.107L-33.2879 156.308Z" fill="url(#dotGrad)"/>
<path d="M-23.2493 156.308L-24.0478 155.51L-24.8464 156.308L-24.0478 157.107L-23.2493 156.308Z" fill="url(#dotGrad)"/>
<path d="M-13.2108 156.308L-14.0093 155.51L-14.8079 156.308L-14.0093 157.107L-13.2108 156.308Z" fill="url(#dotGrad)"/>
<path d="M-3.17221 156.308L-3.97077 155.51L-4.76933 156.308L-3.97077 157.107L-3.17221 156.308Z" fill="url(#dotGrad)"/>
<path d="M6.86628 156.308L6.06772 155.51L5.26916 156.308L6.06772 157.107L6.86628 156.308Z" fill="url(#dotGrad)"/>
<path d="M16.9049 156.308L16.1063 155.51L15.3077 156.308L16.1063 157.107L16.9049 156.308Z" fill="url(#dotGrad)"/>
<path d="M26.9435 156.308L26.1449 155.51L25.3463 156.308L26.1449 157.107L26.9435 156.308Z" fill="url(#dotGrad)"/>
<path d="M36.9819 156.308L36.1834 155.51L35.3848 156.308L36.1834 157.107L36.9819 156.308Z" fill="url(#dotGrad)"/>
<path d="M47.0205 156.308L46.222 155.51L45.4234 156.308L46.222 157.107L47.0205 156.308Z" fill="url(#dotGrad)"/>
<path d="M57.0591 156.308L56.2606 155.51L55.462 156.308L56.2606 157.107L57.0591 156.308Z" fill="url(#dotGrad)"/>
<path d="M67.0976 156.308L66.2991 155.51L65.5005 156.308L66.2991 157.107L67.0976 156.308Z" fill="url(#dotGrad)"/>
<path d="M77.1362 156.308L76.3376 155.51L75.5391 156.308L76.3376 157.107L77.1362 156.308Z" fill="url(#dotGrad)"/>
<path d="M87.1747 156.308L86.3761 155.51L85.5776 156.308L86.3761 157.107L87.1747 156.308Z" fill="url(#dotGrad)"/>
<path d="M97.2133 156.308L96.4147 155.51L95.6161 156.308L96.4147 157.107L97.2133 156.308Z" fill="url(#dotGrad)"/>
<path d="M107.252 156.308L106.453 155.51L105.655 156.308L106.453 157.107L107.252 156.308Z" fill="url(#dotGrad)"/>
<path d="M117.29 156.308L116.492 155.51L115.693 156.308L116.492 157.107L117.29 156.308Z" fill="url(#dotGrad)"/>
<path d="M-63.4035 166.347L-64.2021 165.549L-65.0006 166.347L-64.2021 167.146L-63.4035 166.347Z" fill="url(#dotGrad)"/>
<path d="M-53.3649 166.347L-54.1635 165.549L-54.9621 166.347L-54.1635 167.146L-53.3649 166.347Z" fill="url(#dotGrad)"/>
<path d="M-43.3264 166.347L-44.125 165.549L-44.9236 166.347L-44.125 167.146L-43.3264 166.347Z" fill="url(#dotGrad)"/>
<path d="M-33.2879 166.347L-34.0864 165.549L-34.885 166.347L-34.0864 167.146L-33.2879 166.347Z" fill="url(#dotGrad)"/>
<path d="M-23.2493 166.347L-24.0478 165.549L-24.8464 166.347L-24.0478 167.146L-23.2493 166.347Z" fill="url(#dotGrad)"/>
<path d="M-13.2108 166.347L-14.0093 165.549L-14.8079 166.347L-14.0093 167.146L-13.2108 166.347Z" fill="url(#dotGrad)"/>
<path d="M-3.17221 166.347L-3.97077 165.549L-4.76933 166.347L-3.97077 167.146L-3.17221 166.347Z" fill="url(#dotGrad)"/>
<path d="M6.86628 166.347L6.06772 165.549L5.26916 166.347L6.06772 167.146L6.86628 166.347Z" fill="url(#dotGrad)"/>
<path d="M16.9049 166.347L16.1063 165.549L15.3077 166.347L16.1063 167.146L16.9049 166.347Z" fill="url(#dotGrad)"/>
<path d="M26.9435 166.347L26.1449 165.549L25.3463 166.347L26.1449 167.146L26.9435 166.347Z" fill="url(#dotGrad)"/>
<path d="M36.9819 166.347L36.1834 165.549L35.3848 166.347L36.1834 167.146L36.9819 166.347Z" fill="url(#dotGrad)"/>
<path d="M47.0205 166.347L46.222 165.549L45.4234 166.347L46.222 167.146L47.0205 166.347Z" fill="url(#dotGrad)"/>
<path d="M57.0591 166.347L56.2606 165.549L55.462 166.347L56.2606 167.146L57.0591 166.347Z" fill="url(#dotGrad)"/>
<path d="M67.0976 166.347L66.2991 165.549L65.5005 166.347L66.2991 167.146L67.0976 166.347Z" fill="url(#dotGrad)"/>
<path d="M77.1362 166.347L76.3376 165.549L75.5391 166.347L76.3376 167.146L77.1362 166.347Z" fill="url(#dotGrad)"/>
<path d="M87.1747 166.347L86.3761 165.549L85.5776 166.347L86.3761 167.146L87.1747 166.347Z" fill="url(#dotGrad)"/>
<path d="M97.2133 166.347L96.4147 165.549L95.6161 166.347L96.4147 167.146L97.2133 166.347Z" fill="url(#dotGrad)"/>
<path d="M107.252 166.347L106.453 165.549L105.655 166.347L106.453 167.146L107.252 166.347Z" fill="url(#dotGrad)"/>
<path d="M117.29 166.347L116.492 165.549L115.693 166.347L116.492 167.146L117.29 166.347Z" fill="url(#dotGrad)"/>
<path d="M36.9833 -14.347L36.1847 -15.1456L35.3862 -14.347L36.1847 -13.5484L36.9833 -14.347Z" fill="url(#dotGrad)"/>
<path d="M47.0219 -14.347L46.2233 -15.1456L45.4248 -14.347L46.2233 -13.5484L47.0219 -14.347Z" fill="url(#dotGrad)"/>
<path d="M57.0604 -14.347L56.2618 -15.1456L55.4632 -14.347L56.2618 -13.5484L57.0604 -14.347Z" fill="url(#dotGrad)"/>
<path d="M67.099 -14.347L66.3004 -15.1456L65.5018 -14.347L66.3004 -13.5484L67.099 -14.347Z" fill="url(#dotGrad)"/>
<path d="M77.1375 -14.347L76.339 -15.1456L75.5404 -14.347L76.339 -13.5484L77.1375 -14.347Z" fill="url(#dotGrad)"/>
<path d="M87.176 -14.347L86.3775 -15.1456L85.5789 -14.347L86.3775 -13.5484L87.176 -14.347Z" fill="url(#dotGrad)"/>
<path d="M97.2146 -14.347L96.416 -15.1456L95.6175 -14.347L96.416 -13.5484L97.2146 -14.347Z" fill="url(#dotGrad)"/>
<path d="M107.253 -14.347L106.455 -15.1456L105.656 -14.347L106.455 -13.5484L107.253 -14.347Z" fill="url(#dotGrad)"/>
<path d="M117.292 -14.347L116.493 -15.1456L115.695 -14.347L116.493 -13.5484L117.292 -14.347Z" fill="url(#dotGrad)"/>
<path d="M127.33 -14.347L126.532 -15.1456L125.733 -14.347L126.532 -13.5484L127.33 -14.347Z" fill="url(#dotGrad)"/>
<path d="M137.369 -14.347L136.57 -15.1456L135.772 -14.347L136.57 -13.5484L137.369 -14.347Z" fill="url(#dotGrad)"/>
<path d="M147.407 -14.347L146.609 -15.1456L145.81 -14.347L146.609 -13.5484L147.407 -14.347Z" fill="url(#dotGrad)"/>
<path d="M157.446 -14.347L156.647 -15.1456L155.849 -14.347L156.647 -13.5484L157.446 -14.347Z" fill="url(#dotGrad)"/>
<path d="M167.484 -14.347L166.686 -15.1456L165.887 -14.347L166.686 -13.5484L167.484 -14.347Z" fill="url(#dotGrad)"/>
<path d="M177.523 -14.347L176.724 -15.1456L175.926 -14.347L176.724 -13.5484L177.523 -14.347Z" fill="url(#dotGrad)"/>
<path d="M187.561 -14.347L186.763 -15.1456L185.964 -14.347L186.763 -13.5484L187.561 -14.347Z" fill="url(#dotGrad)"/>
<path d="M197.6 -14.347L196.802 -15.1456L196.003 -14.347L196.802 -13.5484L197.6 -14.347Z" fill="url(#dotGrad)"/>
<path d="M207.639 -14.347L206.84 -15.1456L206.041 -14.347L206.84 -13.5484L207.639 -14.347Z" fill="url(#dotGrad)"/>
<path d="M217.677 -14.347L216.879 -15.1456L216.08 -14.347L216.879 -13.5484L217.677 -14.347Z" fill="url(#dotGrad)"/>
<path d="M36.9833 -4.30842L36.1847 -5.10698L35.3862 -4.30842L36.1847 -3.50985L36.9833 -4.30842Z" fill="url(#dotGrad)"/>
<path d="M47.0219 -4.30842L46.2233 -5.10698L45.4248 -4.30842L46.2233 -3.50985L47.0219 -4.30842Z" fill="url(#dotGrad)"/>
<path d="M57.0604 -4.30842L56.2618 -5.10698L55.4632 -4.30842L56.2618 -3.50985L57.0604 -4.30842Z" fill="url(#dotGrad)"/>
<path d="M67.099 -4.30842L66.3004 -5.10698L65.5018 -4.30842L66.3004 -3.50985L67.099 -4.30842Z" fill="url(#dotGrad)"/>
<path d="M77.1375 -4.30842L76.339 -5.10698L75.5404 -4.30842L76.339 -3.50985L77.1375 -4.30842Z" fill="url(#dotGrad)"/>
<path d="M87.176 -4.30842L86.3775 -5.10698L85.5789 -4.30842L86.3775 -3.50985L87.176 -4.30842Z" fill="url(#dotGrad)"/>
<path d="M97.2146 -4.30842L96.416 -5.10698L95.6175 -4.30842L96.416 -3.50985L97.2146 -4.30842Z" fill="url(#dotGrad)"/>
<path d="M107.253 -4.30842L106.455 -5.10698L105.656 -4.30842L106.455 -3.50985L107.253 -4.30842Z" fill="url(#dotGrad)"/>
<path d="M117.292 -4.30842L116.493 -5.10698L115.695 -4.30842L116.493 -3.50985L117.292 -4.30842Z" fill="url(#dotGrad)"/>
<path d="M127.33 -4.30842L126.532 -5.10698L125.733 -4.30842L126.532 -3.50985L127.33 -4.30842Z" fill="url(#dotGrad)"/>
<path d="M137.369 -4.30842L136.57 -5.10698L135.772 -4.30842L136.57 -3.50985L137.369 -4.30842Z" fill="url(#dotGrad)"/>
<path d="M147.407 -4.30842L146.609 -5.10698L145.81 -4.30842L146.609 -3.50985L147.407 -4.30842Z" fill="url(#dotGrad)"/>
<path d="M157.446 -4.30842L156.647 -5.10698L155.849 -4.30842L156.647 -3.50985L157.446 -4.30842Z" fill="url(#dotGrad)"/>
<path d="M167.484 -4.30842L166.686 -5.10698L165.887 -4.30842L166.686 -3.50985L167.484 -4.30842Z" fill="url(#dotGrad)"/>
<path d="M177.523 -4.30842L176.724 -5.10698L175.926 -4.30842L176.724 -3.50985L177.523 -4.30842Z" fill="url(#dotGrad)"/>
<path d="M187.561 -4.30842L186.763 -5.10698L185.964 -4.30842L186.763 -3.50985L187.561 -4.30842Z" fill="url(#dotGrad)"/>
<path d="M197.6 -4.30842L196.802 -5.10698L196.003 -4.30842L196.802 -3.50985L197.6 -4.30842Z" fill="url(#dotGrad)"/>
<path d="M207.639 -4.30842L206.84 -5.10698L206.041 -4.30842L206.84 -3.50985L207.639 -4.30842Z" fill="url(#dotGrad)"/>
<path d="M217.677 -4.30842L216.879 -5.10698L216.08 -4.30842L216.879 -3.50985L217.677 -4.30842Z" fill="url(#dotGrad)"/>
<path d="M36.9833 5.73018L36.1847 4.93162L35.3862 5.73018L36.1847 6.52874L36.9833 5.73018Z" fill="url(#dotGrad)"/>
<path d="M47.0219 5.73018L46.2233 4.93162L45.4248 5.73018L46.2233 6.52874L47.0219 5.73018Z" fill="url(#dotGrad)"/>
<path d="M57.0604 5.73018L56.2618 4.93162L55.4632 5.73018L56.2618 6.52874L57.0604 5.73018Z" fill="url(#dotGrad)"/>
<path d="M67.099 5.73018L66.3004 4.93162L65.5018 5.73018L66.3004 6.52874L67.099 5.73018Z" fill="url(#dotGrad)"/>
<path d="M77.1375 5.73018L76.339 4.93162L75.5404 5.73018L76.339 6.52874L77.1375 5.73018Z" fill="url(#dotGrad)"/>
<path d="M87.176 5.73018L86.3775 4.93162L85.5789 5.73018L86.3775 6.52874L87.176 5.73018Z" fill="url(#dotGrad)"/>
<path d="M97.2146 5.73018L96.416 4.93162L95.6175 5.73018L96.416 6.52874L97.2146 5.73018Z" fill="url(#dotGrad)"/>
<path d="M107.253 5.73018L106.455 4.93162L105.656 5.73018L106.455 6.52874L107.253 5.73018Z" fill="url(#dotGrad)"/>
<path d="M117.292 5.73018L116.493 4.93162L115.695 5.73018L116.493 6.52874L117.292 5.73018Z" fill="url(#dotGrad)"/>
<path d="M127.33 5.73018L126.532 4.93162L125.733 5.73018L126.532 6.52874L127.33 5.73018Z" fill="url(#dotGrad)"/>
<path d="M137.369 5.73018L136.57 4.93162L135.772 5.73018L136.57 6.52874L137.369 5.73018Z" fill="url(#dotGrad)"/>
<path d="M147.407 5.73018L146.609 4.93162L145.81 5.73018L146.609 6.52874L147.407 5.73018Z" fill="url(#dotGrad)"/>
<path d="M157.446 5.73018L156.647 4.93162L155.849 5.73018L156.647 6.52874L157.446 5.73018Z" fill="url(#dotGrad)"/>
<path d="M167.484 5.73018L166.686 4.93162L165.887 5.73018L166.686 6.52874L167.484 5.73018Z" fill="url(#dotGrad)"/>
<path d="M177.523 5.73018L176.724 4.93162L175.926 5.73018L176.724 6.52874L177.523 5.73018Z" fill="url(#dotGrad)"/>
<path d="M187.561 5.73018L186.763 4.93162L185.964 5.73018L186.763 6.52874L187.561 5.73018Z" fill="url(#dotGrad)"/>
<path d="M197.6 5.73018L196.802 4.93162L196.003 5.73018L196.802 6.52874L197.6 5.73018Z" fill="url(#dotGrad)"/>
<path d="M207.639 5.73018L206.84 4.93162L206.041 5.73018L206.84 6.52874L207.639 5.73018Z" fill="url(#dotGrad)"/>
<path d="M217.677 5.73018L216.879 4.93162L216.08 5.73018L216.879 6.52874L217.677 5.73018Z" fill="url(#dotGrad)"/>
<path d="M36.9833 15.7688L36.1847 14.9702L35.3862 15.7688L36.1847 16.5673L36.9833 15.7688Z" fill="url(#dotGrad)"/>
<path d="M47.0219 15.7688L46.2233 14.9702L45.4248 15.7688L46.2233 16.5673L47.0219 15.7688Z" fill="url(#dotGrad)"/>
<path d="M57.0604 15.7688L56.2618 14.9702L55.4632 15.7688L56.2618 16.5673L57.0604 15.7688Z" fill="url(#dotGrad)"/>
<path d="M67.099 15.7688L66.3004 14.9702L65.5018 15.7688L66.3004 16.5673L67.099 15.7688Z" fill="url(#dotGrad)"/>
<path d="M77.1375 15.7688L76.339 14.9702L75.5404 15.7688L76.339 16.5673L77.1375 15.7688Z" fill="url(#dotGrad)"/>
<path d="M87.176 15.7688L86.3775 14.9702L85.5789 15.7688L86.3775 16.5673L87.176 15.7688Z" fill="url(#dotGrad)"/>
<path d="M97.2146 15.7688L96.416 14.9702L95.6175 15.7688L96.416 16.5673L97.2146 15.7688Z" fill="url(#dotGrad)"/>
<path d="M107.253 15.7688L106.455 14.9702L105.656 15.7688L106.455 16.5673L107.253 15.7688Z" fill="url(#dotGrad)"/>
<path d="M117.292 15.7688L116.493 14.9702L115.695 15.7688L116.493 16.5673L117.292 15.7688Z" fill="url(#dotGrad)"/>
<path d="M127.33 15.7688L126.532 14.9702L125.733 15.7688L126.532 16.5673L127.33 15.7688Z" fill="url(#dotGrad)"/>
<path d="M137.369 15.7688L136.57 14.9702L135.772 15.7688L136.57 16.5673L137.369 15.7688Z" fill="url(#dotGrad)"/>
<path d="M147.407 15.7688L146.609 14.9702L145.81 15.7688L146.609 16.5673L147.407 15.7688Z" fill="url(#dotGrad)"/>
<path d="M157.446 15.7688L156.647 14.9702L155.849 15.7688L156.647 16.5673L157.446 15.7688Z" fill="url(#dotGrad)"/>
<path d="M167.484 15.7688L166.686 14.9702L165.887 15.7688L166.686 16.5673L167.484 15.7688Z" fill="url(#dotGrad)"/>
<path d="M177.523 15.7688L176.724 14.9702L175.926 15.7688L176.724 16.5673L177.523 15.7688Z" fill="url(#dotGrad)"/>
<path d="M187.561 15.7688L186.763 14.9702L185.964 15.7688L186.763 16.5673L187.561 15.7688Z" fill="url(#dotGrad)"/>
<path d="M197.6 15.7688L196.802 14.9702L196.003 15.7688L196.802 16.5673L197.6 15.7688Z" fill="url(#dotGrad)"/>
<path d="M207.639 15.7688L206.84 14.9702L206.041 15.7688L206.84 16.5673L207.639 15.7688Z" fill="url(#dotGrad)"/>
<path d="M217.677 15.7688L216.879 14.9702L216.08 15.7688L216.879 16.5673L217.677 15.7688Z" fill="url(#dotGrad)"/>
<path d="M36.9833 25.8073L36.1847 25.0087L35.3862 25.8073L36.1847 26.6058L36.9833 25.8073Z" fill="url(#dotGrad)"/>
<path d="M47.0219 25.8073L46.2233 25.0087L45.4248 25.8073L46.2233 26.6058L47.0219 25.8073Z" fill="url(#dotGrad)"/>
<path d="M57.0604 25.8073L56.2618 25.0087L55.4632 25.8073L56.2618 26.6058L57.0604 25.8073Z" fill="url(#dotGrad)"/>
<path d="M67.099 25.8073L66.3004 25.0087L65.5018 25.8073L66.3004 26.6058L67.099 25.8073Z" fill="url(#dotGrad)"/>
<path d="M77.1375 25.8073L76.339 25.0087L75.5404 25.8073L76.339 26.6058L77.1375 25.8073Z" fill="url(#dotGrad)"/>
<path d="M87.176 25.8073L86.3775 25.0087L85.5789 25.8073L86.3775 26.6058L87.176 25.8073Z" fill="url(#dotGrad)"/>
<path d="M97.2146 25.8073L96.416 25.0087L95.6175 25.8073L96.416 26.6058L97.2146 25.8073Z" fill="url(#dotGrad)"/>
<path d="M107.253 25.8073L106.455 25.0087L105.656 25.8073L106.455 26.6058L107.253 25.8073Z" fill="url(#dotGrad)"/>
<path d="M117.292 25.8073L116.493 25.0087L115.695 25.8073L116.493 26.6058L117.292 25.8073Z" fill="url(#dotGrad)"/>
<path d="M127.33 25.8073L126.532 25.0087L125.733 25.8073L126.532 26.6058L127.33 25.8073Z" fill="url(#dotGrad)"/>
<path d="M137.369 25.8073L136.57 25.0087L135.772 25.8073L136.57 26.6058L137.369 25.8073Z" fill="url(#dotGrad)"/>
<path d="M147.407 25.8073L146.609 25.0087L145.81 25.8073L146.609 26.6058L147.407 25.8073Z" fill="url(#dotGrad)"/>
<path d="M157.446 25.8073L156.647 25.0087L155.849 25.8073L156.647 26.6058L157.446 25.8073Z" fill="url(#dotGrad)"/>
<path d="M167.484 25.8073L166.686 25.0087L165.887 25.8073L166.686 26.6058L167.484 25.8073Z" fill="url(#dotGrad)"/>
<path d="M177.523 25.8073L176.724 25.0087L175.926 25.8073L176.724 26.6058L177.523 25.8073Z" fill="url(#dotGrad)"/>
<path d="M187.561 25.8073L186.763 25.0087L185.964 25.8073L186.763 26.6058L187.561 25.8073Z" fill="url(#dotGrad)"/>
<path d="M197.6 25.8073L196.802 25.0087L196.003 25.8073L196.802 26.6058L197.6 25.8073Z" fill="url(#dotGrad)"/>
<path d="M207.639 25.8073L206.84 25.0087L206.041 25.8073L206.84 26.6058L207.639 25.8073Z" fill="url(#dotGrad)"/>
<path d="M217.677 25.8073L216.879 25.0087L216.08 25.8073L216.879 26.6058L217.677 25.8073Z" fill="url(#dotGrad)"/>
<path d="M36.9833 35.8458L36.1847 35.0473L35.3862 35.8458L36.1847 36.6444L36.9833 35.8458Z" fill="url(#dotGrad)"/>
<path d="M47.0219 35.8458L46.2233 35.0473L45.4248 35.8458L46.2233 36.6444L47.0219 35.8458Z" fill="url(#dotGrad)"/>
<path d="M57.0604 35.8458L56.2618 35.0473L55.4632 35.8458L56.2618 36.6444L57.0604 35.8458Z" fill="url(#dotGrad)"/>
<path d="M67.099 35.8458L66.3004 35.0473L65.5018 35.8458L66.3004 36.6444L67.099 35.8458Z" fill="url(#dotGrad)"/>
<path d="M77.1375 35.8458L76.339 35.0473L75.5404 35.8458L76.339 36.6444L77.1375 35.8458Z" fill="url(#dotGrad)"/>
<path d="M87.176 35.8458L86.3775 35.0473L85.5789 35.8458L86.3775 36.6444L87.176 35.8458Z" fill="url(#dotGrad)"/>
<path d="M97.2146 35.8458L96.416 35.0473L95.6175 35.8458L96.416 36.6444L97.2146 35.8458Z" fill="url(#dotGrad)"/>
<path d="M107.253 35.8458L106.455 35.0473L105.656 35.8458L106.455 36.6444L107.253 35.8458Z" fill="url(#dotGrad)"/>
<path d="M117.292 35.8458L116.493 35.0473L115.695 35.8458L116.493 36.6444L117.292 35.8458Z" fill="url(#dotGrad)"/>
<path d="M127.33 35.8458L126.532 35.0473L125.733 35.8458L126.532 36.6444L127.33 35.8458Z" fill="url(#dotGrad)"/>
<path d="M137.369 35.8458L136.57 35.0473L135.772 35.8458L136.57 36.6444L137.369 35.8458Z" fill="url(#dotGrad)"/>
<path d="M147.407 35.8458L146.609 35.0473L145.81 35.8458L146.609 36.6444L147.407 35.8458Z" fill="url(#dotGrad)"/>
<path d="M157.446 35.8458L156.647 35.0473L155.849 35.8458L156.647 36.6444L157.446 35.8458Z" fill="url(#dotGrad)"/>
<path d="M167.484 35.8458L166.686 35.0473L165.887 35.8458L166.686 36.6444L167.484 35.8458Z" fill="url(#dotGrad)"/>
<path d="M177.523 35.8458L176.724 35.0473L175.926 35.8458L176.724 36.6444L177.523 35.8458Z" fill="url(#dotGrad)"/>
<path d="M187.561 35.8458L186.763 35.0473L185.964 35.8458L186.763 36.6444L187.561 35.8458Z" fill="url(#dotGrad)"/>
<path d="M197.6 35.8458L196.802 35.0473L196.003 35.8458L196.802 36.6444L197.6 35.8458Z" fill="url(#dotGrad)"/>
<path d="M207.639 35.8458L206.84 35.0473L206.041 35.8458L206.84 36.6444L207.639 35.8458Z" fill="url(#dotGrad)"/>
<path d="M217.677 35.8458L216.879 35.0473L216.08 35.8458L216.879 36.6444L217.677 35.8458Z" fill="url(#dotGrad)"/>
<path d="M36.9833 45.8844L36.1847 45.0859L35.3862 45.8844L36.1847 46.683L36.9833 45.8844Z" fill="url(#dotGrad)"/>
<path d="M47.0219 45.8844L46.2233 45.0859L45.4248 45.8844L46.2233 46.683L47.0219 45.8844Z" fill="url(#dotGrad)"/>
<path d="M57.0604 45.8844L56.2618 45.0859L55.4632 45.8844L56.2618 46.683L57.0604 45.8844Z" fill="url(#dotGrad)"/>
<path d="M67.099 45.8844L66.3004 45.0859L65.5018 45.8844L66.3004 46.683L67.099 45.8844Z" fill="url(#dotGrad)"/>
<path d="M77.1375 45.8844L76.339 45.0859L75.5404 45.8844L76.339 46.683L77.1375 45.8844Z" fill="url(#dotGrad)"/>
<path d="M87.176 45.8844L86.3775 45.0859L85.5789 45.8844L86.3775 46.683L87.176 45.8844Z" fill="url(#dotGrad)"/>
<path d="M97.2146 45.8844L96.416 45.0859L95.6175 45.8844L96.416 46.683L97.2146 45.8844Z" fill="url(#dotGrad)"/>
<path d="M107.253 45.8844L106.455 45.0859L105.656 45.8844L106.455 46.683L107.253 45.8844Z" fill="url(#dotGrad)"/>
<path d="M117.292 45.8844L116.493 45.0859L115.695 45.8844L116.493 46.683L117.292 45.8844Z" fill="url(#dotGrad)"/>
<path d="M127.33 45.8844L126.532 45.0859L125.733 45.8844L126.532 46.683L127.33 45.8844Z" fill="url(#dotGrad)"/>
<path d="M137.369 45.8844L136.57 45.0859L135.772 45.8844L136.57 46.683L137.369 45.8844Z" fill="url(#dotGrad)"/>
<path d="M147.407 45.8844L146.609 45.0859L145.81 45.8844L146.609 46.683L147.407 45.8844Z" fill="url(#dotGrad)"/>
<path d="M157.446 45.8844L156.647 45.0859L155.849 45.8844L156.647 46.683L157.446 45.8844Z" fill="url(#dotGrad)"/>
<path d="M167.484 45.8844L166.686 45.0859L165.887 45.8844L166.686 46.683L167.484 45.8844Z" fill="url(#dotGrad)"/>
<path d="M177.523 45.8844L176.724 45.0859L175.926 45.8844L176.724 46.683L177.523 45.8844Z" fill="url(#dotGrad)"/>
<path d="M187.561 45.8844L186.763 45.0859L185.964 45.8844L186.763 46.683L187.561 45.8844Z" fill="url(#dotGrad)"/>
<path d="M197.6 45.8844L196.802 45.0859L196.003 45.8844L196.802 46.683L197.6 45.8844Z" fill="url(#dotGrad)"/>
<path d="M207.639 45.8844L206.84 45.0859L206.041 45.8844L206.84 46.683L207.639 45.8844Z" fill="url(#dotGrad)"/>
<path d="M217.677 45.8844L216.879 45.0859L216.08 45.8844L216.879 46.683L217.677 45.8844Z" fill="url(#dotGrad)"/>
<path d="M36.9833 55.9228L36.1847 55.1242L35.3862 55.9228L36.1847 56.7214L36.9833 55.9228Z" fill="url(#dotGrad)"/>
<path d="M47.0219 55.9228L46.2233 55.1242L45.4248 55.9228L46.2233 56.7214L47.0219 55.9228Z" fill="url(#dotGrad)"/>
<path d="M57.0604 55.9228L56.2618 55.1242L55.4632 55.9228L56.2618 56.7214L57.0604 55.9228Z" fill="url(#dotGrad)"/>
<path d="M67.099 55.9228L66.3004 55.1242L65.5018 55.9228L66.3004 56.7214L67.099 55.9228Z" fill="url(#dotGrad)"/>
<path d="M77.1375 55.9228L76.339 55.1242L75.5404 55.9228L76.339 56.7214L77.1375 55.9228Z" fill="url(#dotGrad)"/>
<path d="M87.176 55.9228L86.3775 55.1242L85.5789 55.9228L86.3775 56.7214L87.176 55.9228Z" fill="url(#dotGrad)"/>
<path d="M97.2146 55.9228L96.416 55.1242L95.6175 55.9228L96.416 56.7214L97.2146 55.9228Z" fill="url(#dotGrad)"/>
<path d="M107.253 55.9228L106.455 55.1242L105.656 55.9228L106.455 56.7214L107.253 55.9228Z" fill="url(#dotGrad)"/>
<path d="M117.292 55.9228L116.493 55.1242L115.695 55.9228L116.493 56.7214L117.292 55.9228Z" fill="url(#dotGrad)"/>
<path d="M127.33 55.9228L126.532 55.1242L125.733 55.9228L126.532 56.7214L127.33 55.9228Z" fill="url(#dotGrad)"/>
<path d="M137.369 55.9228L136.57 55.1242L135.772 55.9228L136.57 56.7214L137.369 55.9228Z" fill="url(#dotGrad)"/>
<path d="M147.407 55.9228L146.609 55.1242L145.81 55.9228L146.609 56.7214L147.407 55.9228Z" fill="url(#dotGrad)"/>
<path d="M157.446 55.9228L156.647 55.1242L155.849 55.9228L156.647 56.7214L157.446 55.9228Z" fill="url(#dotGrad)"/>
<path d="M167.484 55.9228L166.686 55.1242L165.887 55.9228L166.686 56.7214L167.484 55.9228Z" fill="url(#dotGrad)"/>
<path d="M177.523 55.9228L176.724 55.1242L175.926 55.9228L176.724 56.7214L177.523 55.9228Z" fill="url(#dotGrad)"/>
<path d="M187.561 55.9228L186.763 55.1242L185.964 55.9228L186.763 56.7214L187.561 55.9228Z" fill="url(#dotGrad)"/>
<path d="M197.6 55.9228L196.802 55.1242L196.003 55.9228L196.802 56.7214L197.6 55.9228Z" fill="url(#dotGrad)"/>
<path d="M207.639 55.9228L206.84 55.1242L206.041 55.9228L206.84 56.7214L207.639 55.9228Z" fill="url(#dotGrad)"/>
<path d="M217.677 55.9228L216.879 55.1242L216.08 55.9228L216.879 56.7214L217.677 55.9228Z" fill="url(#dotGrad)"/>
<path d="M36.9833 65.9615L36.1847 65.1629L35.3862 65.9615L36.1847 66.7601L36.9833 65.9615Z" fill="url(#dotGrad)"/>
<path d="M47.0219 65.9615L46.2233 65.1629L45.4248 65.9615L46.2233 66.7601L47.0219 65.9615Z" fill="url(#dotGrad)"/>
<path d="M57.0604 65.9615L56.2618 65.1629L55.4632 65.9615L56.2618 66.7601L57.0604 65.9615Z" fill="url(#dotGrad)"/>
<path d="M67.099 65.9615L66.3004 65.1629L65.5018 65.9615L66.3004 66.7601L67.099 65.9615Z" fill="url(#dotGrad)"/>
<path d="M77.1375 65.9615L76.339 65.1629L75.5404 65.9615L76.339 66.7601L77.1375 65.9615Z" fill="url(#dotGrad)"/>
<path d="M87.176 65.9615L86.3775 65.1629L85.5789 65.9615L86.3775 66.7601L87.176 65.9615Z" fill="url(#dotGrad)"/>
<path d="M97.2146 65.9615L96.416 65.1629L95.6175 65.9615L96.416 66.7601L97.2146 65.9615Z" fill="url(#dotGrad)"/>
<path d="M107.253 65.9615L106.455 65.1629L105.656 65.9615L106.455 66.7601L107.253 65.9615Z" fill="url(#dotGrad)"/>
<path d="M117.292 65.9615L116.493 65.1629L115.695 65.9615L116.493 66.7601L117.292 65.9615Z" fill="url(#dotGrad)"/>
<path d="M127.33 65.9615L126.532 65.1629L125.733 65.9615L126.532 66.7601L127.33 65.9615Z" fill="url(#dotGrad)"/>
<path d="M137.369 65.9615L136.57 65.1629L135.772 65.9615L136.57 66.7601L137.369 65.9615Z" fill="url(#dotGrad)"/>
<path d="M147.407 65.9615L146.609 65.1629L145.81 65.9615L146.609 66.7601L147.407 65.9615Z" fill="url(#dotGrad)"/>
<path d="M157.446 65.9615L156.647 65.1629L155.849 65.9615L156.647 66.7601L157.446 65.9615Z" fill="url(#dotGrad)"/>
<path d="M167.484 65.9615L166.686 65.1629L165.887 65.9615L166.686 66.7601L167.484 65.9615Z" fill="url(#dotGrad)"/>
<path d="M177.523 65.9615L176.724 65.1629L175.926 65.9615L176.724 66.7601L177.523 65.9615Z" fill="url(#dotGrad)"/>
<path d="M187.561 65.9615L186.763 65.1629L185.964 65.9615L186.763 66.7601L187.561 65.9615Z" fill="url(#dotGrad)"/>
<path d="M197.6 65.9615L196.802 65.1629L196.003 65.9615L196.802 66.7601L197.6 65.9615Z" fill="url(#dotGrad)"/>
<path d="M207.639 65.9615L206.84 65.1629L206.041 65.9615L206.84 66.7601L207.639 65.9615Z" fill="url(#dotGrad)"/>
<path d="M217.677 65.9615L216.879 65.1629L216.08 65.9615L216.879 66.7601L217.677 65.9615Z" fill="url(#dotGrad)"/>
<path d="M36.9833 76.0001L36.1847 75.2015L35.3862 76.0001L36.1847 76.7987L36.9833 76.0001Z" fill="url(#dotGrad)"/>
<path d="M47.0219 76.0001L46.2233 75.2015L45.4248 76.0001L46.2233 76.7987L47.0219 76.0001Z" fill="url(#dotGrad)"/>
<path d="M57.0604 76.0001L56.2618 75.2015L55.4632 76.0001L56.2618 76.7987L57.0604 76.0001Z" fill="url(#dotGrad)"/>
<path d="M67.099 76.0001L66.3004 75.2015L65.5018 76.0001L66.3004 76.7987L67.099 76.0001Z" fill="url(#dotGrad)"/>
<path d="M77.1375 76.0001L76.339 75.2015L75.5404 76.0001L76.339 76.7987L77.1375 76.0001Z" fill="url(#dotGrad)"/>
<path d="M87.176 76.0001L86.3775 75.2015L85.5789 76.0001L86.3775 76.7987L87.176 76.0001Z" fill="url(#dotGrad)"/>
<path d="M97.2146 76.0001L96.416 75.2015L95.6175 76.0001L96.416 76.7987L97.2146 76.0001Z" fill="url(#dotGrad)"/>
<path d="M107.253 76.0001L106.455 75.2015L105.656 76.0001L106.455 76.7987L107.253 76.0001Z" fill="url(#dotGrad)"/>
<path d="M117.292 76.0001L116.493 75.2015L115.695 76.0001L116.493 76.7987L117.292 76.0001Z" fill="url(#dotGrad)"/>
<path d="M127.33 76.0001L126.532 75.2015L125.733 76.0001L126.532 76.7987L127.33 76.0001Z" fill="url(#dotGrad)"/>
<path d="M137.369 76.0001L136.57 75.2015L135.772 76.0001L136.57 76.7987L137.369 76.0001Z" fill="url(#dotGrad)"/>
<path d="M147.407 76.0001L146.609 75.2015L145.81 76.0001L146.609 76.7987L147.407 76.0001Z" fill="url(#dotGrad)"/>
<path d="M157.446 76.0001L156.647 75.2015L155.849 76.0001L156.647 76.7987L157.446 76.0001Z" fill="url(#dotGrad)"/>
<path d="M167.484 76.0001L166.686 75.2015L165.887 76.0001L166.686 76.7987L167.484 76.0001Z" fill="url(#dotGrad)"/>
<path d="M177.523 76.0001L176.724 75.2015L175.926 76.0001L176.724 76.7987L177.523 76.0001Z" fill="url(#dotGrad)"/>
<path d="M187.561 76.0001L186.763 75.2015L185.964 76.0001L186.763 76.7987L187.561 76.0001Z" fill="url(#dotGrad)"/>
<path d="M197.6 76.0001L196.802 75.2015L196.003 76.0001L196.802 76.7987L197.6 76.0001Z" fill="url(#dotGrad)"/>
<path d="M207.639 76.0001L206.84 75.2015L206.041 76.0001L206.84 76.7987L207.639 76.0001Z" fill="url(#dotGrad)"/>
<path d="M217.677 76.0001L216.879 75.2015L216.08 76.0001L216.879 76.7987L217.677 76.0001Z" fill="url(#dotGrad)"/>
<path d="M36.9833 86.0386L36.1847 85.24L35.3862 86.0386L36.1847 86.8371L36.9833 86.0386Z" fill="url(#dotGrad)"/>
<path d="M47.0219 86.0386L46.2233 85.24L45.4248 86.0386L46.2233 86.8371L47.0219 86.0386Z" fill="url(#dotGrad)"/>
<path d="M57.0604 86.0386L56.2618 85.24L55.4632 86.0386L56.2618 86.8371L57.0604 86.0386Z" fill="url(#dotGrad)"/>
<path d="M67.099 86.0386L66.3004 85.24L65.5018 86.0386L66.3004 86.8371L67.099 86.0386Z" fill="url(#dotGrad)"/>
<path d="M77.1375 86.0386L76.339 85.24L75.5404 86.0386L76.339 86.8371L77.1375 86.0386Z" fill="url(#dotGrad)"/>
<path d="M87.176 86.0386L86.3775 85.24L85.5789 86.0386L86.3775 86.8371L87.176 86.0386Z" fill="url(#dotGrad)"/>
<path d="M97.2146 86.0386L96.416 85.24L95.6175 86.0386L96.416 86.8371L97.2146 86.0386Z" fill="url(#dotGrad)"/>
<path d="M107.253 86.0386L106.455 85.24L105.656 86.0386L106.455 86.8371L107.253 86.0386Z" fill="url(#dotGrad)"/>
<path d="M117.292 86.0386L116.493 85.24L115.695 86.0386L116.493 86.8371L117.292 86.0386Z" fill="url(#dotGrad)"/>
<path d="M127.33 86.0386L126.532 85.24L125.733 86.0386L126.532 86.8371L127.33 86.0386Z" fill="url(#dotGrad)"/>
<path d="M137.369 86.0386L136.57 85.24L135.772 86.0386L136.57 86.8371L137.369 86.0386Z" fill="url(#dotGrad)"/>
<path d="M147.407 86.0386L146.609 85.24L145.81 86.0386L146.609 86.8371L147.407 86.0386Z" fill="url(#dotGrad)"/>
<path d="M157.446 86.0386L156.647 85.24L155.849 86.0386L156.647 86.8371L157.446 86.0386Z" fill="url(#dotGrad)"/>
<path d="M167.484 86.0386L166.686 85.24L165.887 86.0386L166.686 86.8371L167.484 86.0386Z" fill="url(#dotGrad)"/>
<path d="M177.523 86.0386L176.724 85.24L175.926 86.0386L176.724 86.8371L177.523 86.0386Z" fill="url(#dotGrad)"/>
<path d="M187.561 86.0386L186.763 85.24L185.964 86.0386L186.763 86.8371L187.561 86.0386Z" fill="url(#dotGrad)"/>
<path d="M197.6 86.0386L196.802 85.24L196.003 86.0386L196.802 86.8371L197.6 86.0386Z" fill="url(#dotGrad)"/>
<path d="M207.639 86.0386L206.84 85.24L206.041 86.0386L206.84 86.8371L207.639 86.0386Z" fill="url(#dotGrad)"/>
<path d="M217.677 86.0386L216.879 85.24L216.08 86.0386L216.879 86.8371L217.677 86.0386Z" fill="url(#dotGrad)"/>
<path d="M36.9833 96.077L36.1847 95.2785L35.3862 96.077L36.1847 96.8756L36.9833 96.077Z" fill="url(#dotGrad)"/>
<path d="M47.0219 96.077L46.2233 95.2785L45.4248 96.077L46.2233 96.8756L47.0219 96.077Z" fill="url(#dotGrad)"/>
<path d="M57.0604 96.077L56.2618 95.2785L55.4632 96.077L56.2618 96.8756L57.0604 96.077Z" fill="url(#dotGrad)"/>
<path d="M67.099 96.077L66.3004 95.2785L65.5018 96.077L66.3004 96.8756L67.099 96.077Z" fill="url(#dotGrad)"/>
<path d="M77.1375 96.077L76.339 95.2785L75.5404 96.077L76.339 96.8756L77.1375 96.077Z" fill="url(#dotGrad)"/>
<path d="M87.176 96.077L86.3775 95.2785L85.5789 96.077L86.3775 96.8756L87.176 96.077Z" fill="url(#dotGrad)"/>
<path d="M97.2146 96.077L96.416 95.2785L95.6175 96.077L96.416 96.8756L97.2146 96.077Z" fill="url(#dotGrad)"/>
<path d="M107.253 96.077L106.455 95.2785L105.656 96.077L106.455 96.8756L107.253 96.077Z" fill="url(#dotGrad)"/>
<path d="M117.292 96.077L116.493 95.2785L115.695 96.077L116.493 96.8756L117.292 96.077Z" fill="url(#dotGrad)"/>
<path d="M127.33 96.077L126.532 95.2785L125.733 96.077L126.532 96.8756L127.33 96.077Z" fill="url(#dotGrad)"/>
<path d="M137.369 96.077L136.57 95.2785L135.772 96.077L136.57 96.8756L137.369 96.077Z" fill="url(#dotGrad)"/>
<path d="M147.407 96.077L146.609 95.2785L145.81 96.077L146.609 96.8756L147.407 96.077Z" fill="url(#dotGrad)"/>
<path d="M157.446 96.077L156.647 95.2785L155.849 96.077L156.647 96.8756L157.446 96.077Z" fill="url(#dotGrad)"/>
<path d="M167.484 96.077L166.686 95.2785L165.887 96.077L166.686 96.8756L167.484 96.077Z" fill="url(#dotGrad)"/>
<path d="M177.523 96.077L176.724 95.2785L175.926 96.077L176.724 96.8756L177.523 96.077Z" fill="url(#dotGrad)"/>
<path d="M187.561 96.077L186.763 95.2785L185.964 96.077L186.763 96.8756L187.561 96.077Z" fill="url(#dotGrad)"/>
<path d="M197.6 96.077L196.802 95.2785L196.003 96.077L196.802 96.8756L197.6 96.077Z" fill="url(#dotGrad)"/>
<path d="M207.639 96.077L206.84 95.2785L206.041 96.077L206.84 96.8756L207.639 96.077Z" fill="url(#dotGrad)"/>
<path d="M217.677 96.077L216.879 95.2785L216.08 96.077L216.879 96.8756L217.677 96.077Z" fill="url(#dotGrad)"/>
<path d="M36.9833 106.116L36.1847 105.317L35.3862 106.116L36.1847 106.914L36.9833 106.116Z" fill="url(#dotGrad)"/>
<path d="M47.0219 106.116L46.2233 105.317L45.4248 106.116L46.2233 106.914L47.0219 106.116Z" fill="url(#dotGrad)"/>
<path d="M57.0604 106.116L56.2618 105.317L55.4632 106.116L56.2618 106.914L57.0604 106.116Z" fill="url(#dotGrad)"/>
<path d="M67.099 106.116L66.3004 105.317L65.5018 106.116L66.3004 106.914L67.099 106.116Z" fill="url(#dotGrad)"/>
<path d="M77.1375 106.116L76.339 105.317L75.5404 106.116L76.339 106.914L77.1375 106.116Z" fill="url(#dotGrad)"/>
<path d="M87.176 106.116L86.3775 105.317L85.5789 106.116L86.3775 106.914L87.176 106.116Z" fill="url(#dotGrad)"/>
<path d="M97.2146 106.116L96.416 105.317L95.6175 106.116L96.416 106.914L97.2146 106.116Z" fill="url(#dotGrad)"/>
<path d="M107.253 106.116L106.455 105.317L105.656 106.116L106.455 106.914L107.253 106.116Z" fill="url(#dotGrad)"/>
<path d="M117.292 106.116L116.493 105.317L115.695 106.116L116.493 106.914L117.292 106.116Z" fill="url(#dotGrad)"/>
<path d="M127.33 106.116L126.532 105.317L125.733 106.116L126.532 106.914L127.33 106.116Z" fill="url(#dotGrad)"/>
<path d="M137.369 106.116L136.57 105.317L135.772 106.116L136.57 106.914L137.369 106.116Z" fill="url(#dotGrad)"/>
<path d="M147.407 106.116L146.609 105.317L145.81 106.116L146.609 106.914L147.407 106.116Z" fill="url(#dotGrad)"/>
<path d="M157.446 106.116L156.647 105.317L155.849 106.116L156.647 106.914L157.446 106.116Z" fill="url(#dotGrad)"/>
<path d="M167.484 106.116L166.686 105.317L165.887 106.116L166.686 106.914L167.484 106.116Z" fill="url(#dotGrad)"/>
<path d="M177.523 106.116L176.724 105.317L175.926 106.116L176.724 106.914L177.523 106.116Z" fill="url(#dotGrad)"/>
<path d="M187.561 106.116L186.763 105.317L185.964 106.116L186.763 106.914L187.561 106.116Z" fill="url(#dotGrad)"/>
<path d="M197.6 106.116L196.802 105.317L196.003 106.116L196.802 106.914L197.6 106.116Z" fill="url(#dotGrad)"/>
<path d="M207.639 106.116L206.84 105.317L206.041 106.116L206.84 106.914L207.639 106.116Z" fill="url(#dotGrad)"/>
<path d="M217.677 106.116L216.879 105.317L216.08 106.116L216.879 106.914L217.677 106.116Z" fill="url(#dotGrad)"/>
<path d="M36.9833 116.154L36.1847 115.356L35.3862 116.154L36.1847 116.953L36.9833 116.154Z" fill="url(#dotGrad)"/>
<path d="M47.0219 116.154L46.2233 115.356L45.4248 116.154L46.2233 116.953L47.0219 116.154Z" fill="url(#dotGrad)"/>
<path d="M57.0604 116.154L56.2618 115.356L55.4632 116.154L56.2618 116.953L57.0604 116.154Z" fill="url(#dotGrad)"/>
<path d="M67.099 116.154L66.3004 115.356L65.5018 116.154L66.3004 116.953L67.099 116.154Z" fill="url(#dotGrad)"/>
<path d="M87.176 116.154L86.3775 115.356L85.5789 116.154L86.3775 116.953L87.176 116.154Z" fill="url(#dotGrad)"/>
<path d="M97.2146 116.154L96.416 115.356L95.6175 116.154L96.416 116.953L97.2146 116.154Z" fill="url(#dotGrad)"/>
<path d="M107.253 116.154L106.455 115.356L105.656 116.154L106.455 116.953L107.253 116.154Z" fill="url(#dotGrad)"/>
<path d="M117.292 116.154L116.493 115.356L115.695 116.154L116.493 116.953L117.292 116.154Z" fill="url(#dotGrad)"/>
<path d="M127.33 116.154L126.532 115.356L125.733 116.154L126.532 116.953L127.33 116.154Z" fill="url(#dotGrad)"/>
<path d="M137.369 116.154L136.57 115.356L135.772 116.154L136.57 116.953L137.369 116.154Z" fill="url(#dotGrad)"/>
<path d="M147.407 116.154L146.609 115.356L145.81 116.154L146.609 116.953L147.407 116.154Z" fill="url(#dotGrad)"/>
<path d="M157.446 116.154L156.647 115.356L155.849 116.154L156.647 116.953L157.446 116.154Z" fill="url(#dotGrad)"/>
<path d="M167.484 116.154L166.686 115.356L165.887 116.154L166.686 116.953L167.484 116.154Z" fill="url(#dotGrad)"/>
<path d="M177.523 116.154L176.724 115.356L175.926 116.154L176.724 116.953L177.523 116.154Z" fill="url(#dotGrad)"/>
<path d="M187.561 116.154L186.763 115.356L185.964 116.154L186.763 116.953L187.561 116.154Z" fill="url(#dotGrad)"/>
<path d="M197.6 116.154L196.802 115.356L196.003 116.154L196.802 116.953L197.6 116.154Z" fill="url(#dotGrad)"/>
<path d="M207.639 116.154L206.84 115.356L206.041 116.154L206.84 116.953L207.639 116.154Z" fill="url(#dotGrad)"/>
<path d="M217.677 116.154L216.879 115.356L216.08 116.154L216.879 116.953L217.677 116.154Z" fill="url(#dotGrad)"/>
<path d="M36.9833 126.193L36.1847 125.394L35.3862 126.193L36.1847 126.991L36.9833 126.193Z" fill="url(#dotGrad)"/>
<path d="M47.0219 126.193L46.2233 125.394L45.4248 126.193L46.2233 126.991L47.0219 126.193Z" fill="url(#dotGrad)"/>
<path d="M57.0604 126.193L56.2618 125.394L55.4632 126.193L56.2618 126.991L57.0604 126.193Z" fill="url(#dotGrad)"/>
<path d="M67.099 126.193L66.3004 125.394L65.5018 126.193L66.3004 126.991L67.099 126.193Z" fill="url(#dotGrad)"/>
<path d="M77.1375 126.193L76.339 125.394L75.5404 126.193L76.339 126.991L77.1375 126.193Z" fill="url(#dotGrad)"/>
<path d="M87.176 126.193L86.3775 125.394L85.5789 126.193L86.3775 126.991L87.176 126.193Z" fill="url(#dotGrad)"/>
<path d="M97.2146 126.193L96.416 125.394L95.6175 126.193L96.416 126.991L97.2146 126.193Z" fill="url(#dotGrad)"/>
<path d="M107.253 126.193L106.455 125.394L105.656 126.193L106.455 126.991L107.253 126.193Z" fill="url(#dotGrad)"/>
<path d="M117.292 126.193L116.493 125.394L115.695 126.193L116.493 126.991L117.292 126.193Z" fill="url(#dotGrad)"/>
<path d="M127.33 126.193L126.532 125.394L125.733 126.193L126.532 126.991L127.33 126.193Z" fill="url(#dotGrad)"/>
<path d="M137.369 126.193L136.57 125.394L135.772 126.193L136.57 126.991L137.369 126.193Z" fill="url(#dotGrad)"/>
<path d="M147.407 126.193L146.609 125.394L145.81 126.193L146.609 126.991L147.407 126.193Z" fill="url(#dotGrad)"/>
<path d="M157.446 126.193L156.647 125.394L155.849 126.193L156.647 126.991L157.446 126.193Z" fill="url(#dotGrad)"/>
<path d="M167.484 126.193L166.686 125.394L165.887 126.193L166.686 126.991L167.484 126.193Z" fill="url(#dotGrad)"/>
<path d="M177.523 126.193L176.724 125.394L175.926 126.193L176.724 126.991L177.523 126.193Z" fill="url(#dotGrad)"/>
<path d="M187.561 126.193L186.763 125.394L185.964 126.193L186.763 126.991L187.561 126.193Z" fill="url(#dotGrad)"/>
<path d="M197.6 126.193L196.802 125.394L196.003 126.193L196.802 126.991L197.6 126.193Z" fill="url(#dotGrad)"/>
<path d="M207.639 126.193L206.84 125.394L206.041 126.193L206.84 126.991L207.639 126.193Z" fill="url(#dotGrad)"/>
<path d="M217.677 126.193L216.879 125.394L216.08 126.193L216.879 126.991L217.677 126.193Z" fill="url(#dotGrad)"/>
<path d="M36.9833 136.231L36.1847 135.433L35.3862 136.231L36.1847 137.03L36.9833 136.231Z" fill="url(#dotGrad)"/>
<path d="M47.0219 136.231L46.2233 135.433L45.4248 136.231L46.2233 137.03L47.0219 136.231Z" fill="url(#dotGrad)"/>
<path d="M57.0604 136.231L56.2618 135.433L55.4632 136.231L56.2618 137.03L57.0604 136.231Z" fill="url(#dotGrad)"/>
<path d="M67.099 136.231L66.3004 135.433L65.5018 136.231L66.3004 137.03L67.099 136.231Z" fill="url(#dotGrad)"/>
<path d="M77.1375 136.231L76.339 135.433L75.5404 136.231L76.339 137.03L77.1375 136.231Z" fill="url(#dotGrad)"/>
<path d="M87.176 136.231L86.3775 135.433L85.5789 136.231L86.3775 137.03L87.176 136.231Z" fill="url(#dotGrad)"/>
<path d="M97.2146 136.231L96.416 135.433L95.6175 136.231L96.416 137.03L97.2146 136.231Z" fill="url(#dotGrad)"/>
<path d="M107.253 136.231L106.455 135.433L105.656 136.231L106.455 137.03L107.253 136.231Z" fill="url(#dotGrad)"/>
<path d="M117.292 136.231L116.493 135.433L115.695 136.231L116.493 137.03L117.292 136.231Z" fill="url(#dotGrad)"/>
<path d="M127.33 136.231L126.532 135.433L125.733 136.231L126.532 137.03L127.33 136.231Z" fill="url(#dotGrad)"/>
<path d="M137.369 136.231L136.57 135.433L135.772 136.231L136.57 137.03L137.369 136.231Z" fill="url(#dotGrad)"/>
<path d="M147.407 136.231L146.609 135.433L145.81 136.231L146.609 137.03L147.407 136.231Z" fill="url(#dotGrad)"/>
<path d="M157.446 136.231L156.647 135.433L155.849 136.231L156.647 137.03L157.446 136.231Z" fill="url(#dotGrad)"/>
<path d="M167.484 136.231L166.686 135.433L165.887 136.231L166.686 137.03L167.484 136.231Z" fill="url(#dotGrad)"/>
<path d="M177.523 136.231L176.724 135.433L175.926 136.231L176.724 137.03L177.523 136.231Z" fill="url(#dotGrad)"/>
<path d="M187.561 136.231L186.763 135.433L185.964 136.231L186.763 137.03L187.561 136.231Z" fill="url(#dotGrad)"/>
<path d="M197.6 136.231L196.802 135.433L196.003 136.231L196.802 137.03L197.6 136.231Z" fill="url(#dotGrad)"/>
<path d="M207.639 136.231L206.84 135.433L206.041 136.231L206.84 137.03L207.639 136.231Z" fill="url(#dotGrad)"/>
<path d="M217.677 136.231L216.879 135.433L216.08 136.231L216.879 137.03L217.677 136.231Z" fill="url(#dotGrad)"/>
<path d="M36.9833 146.27L36.1847 145.471L35.3862 146.27L36.1847 147.068L36.9833 146.27Z" fill="url(#dotGrad)"/>
<path d="M47.0219 146.27L46.2233 145.471L45.4248 146.27L46.2233 147.068L47.0219 146.27Z" fill="url(#dotGrad)"/>
<path d="M57.0604 146.27L56.2618 145.471L55.4632 146.27L56.2618 147.068L57.0604 146.27Z" fill="url(#dotGrad)"/>
<path d="M67.099 146.27L66.3004 145.471L65.5018 146.27L66.3004 147.068L67.099 146.27Z" fill="url(#dotGrad)"/>
<path d="M77.1375 146.27L76.339 145.471L75.5404 146.27L76.339 147.068L77.1375 146.27Z" fill="url(#dotGrad)"/>
<path d="M87.176 146.27L86.3775 145.471L85.5789 146.27L86.3775 147.068L87.176 146.27Z" fill="url(#dotGrad)"/>
<path d="M97.2146 146.27L96.416 145.471L95.6175 146.27L96.416 147.068L97.2146 146.27Z" fill="url(#dotGrad)"/>
<path d="M107.253 146.27L106.455 145.471L105.656 146.27L106.455 147.068L107.253 146.27Z" fill="url(#dotGrad)"/>
<path d="M117.292 146.27L116.493 145.471L115.695 146.27L116.493 147.068L117.292 146.27Z" fill="url(#dotGrad)"/>
<path d="M127.33 146.27L126.532 145.471L125.733 146.27L126.532 147.068L127.33 146.27Z" fill="url(#dotGrad)"/>
<path d="M137.369 146.27L136.57 145.471L135.772 146.27L136.57 147.068L137.369 146.27Z" fill="url(#dotGrad)"/>
<path d="M147.407 146.27L146.609 145.471L145.81 146.27L146.609 147.068L147.407 146.27Z" fill="url(#dotGrad)"/>
<path d="M157.446 146.27L156.647 145.471L155.849 146.27L156.647 147.068L157.446 146.27Z" fill="url(#dotGrad)"/>
<path d="M167.484 146.27L166.686 145.471L165.887 146.27L166.686 147.068L167.484 146.27Z" fill="url(#dotGrad)"/>
<path d="M177.523 146.27L176.724 145.471L175.926 146.27L176.724 147.068L177.523 146.27Z" fill="url(#dotGrad)"/>
<path d="M187.561 146.27L186.763 145.471L185.964 146.27L186.763 147.068L187.561 146.27Z" fill="url(#dotGrad)"/>
<path d="M197.6 146.27L196.802 145.471L196.003 146.27L196.802 147.068L197.6 146.27Z" fill="url(#dotGrad)"/>
<path d="M207.639 146.27L206.84 145.471L206.041 146.27L206.84 147.068L207.639 146.27Z" fill="url(#dotGrad)"/>
<path d="M217.677 146.27L216.879 145.471L216.08 146.27L216.879 147.068L217.677 146.27Z" fill="url(#dotGrad)"/>
<path d="M36.9833 156.308L36.1847 155.51L35.3862 156.308L36.1847 157.107L36.9833 156.308Z" fill="url(#dotGrad)"/>
<path d="M47.0219 156.308L46.2233 155.51L45.4248 156.308L46.2233 157.107L47.0219 156.308Z" fill="url(#dotGrad)"/>
<path d="M57.0604 156.308L56.2618 155.51L55.4632 156.308L56.2618 157.107L57.0604 156.308Z" fill="url(#dotGrad)"/>
<path d="M67.099 156.308L66.3004 155.51L65.5018 156.308L66.3004 157.107L67.099 156.308Z" fill="url(#dotGrad)"/>
<path d="M77.1375 156.308L76.339 155.51L75.5404 156.308L76.339 157.107L77.1375 156.308Z" fill="url(#dotGrad)"/>
<path d="M87.176 156.308L86.3775 155.51L85.5789 156.308L86.3775 157.107L87.176 156.308Z" fill="url(#dotGrad)"/>
<path d="M97.2146 156.308L96.416 155.51L95.6175 156.308L96.416 157.107L97.2146 156.308Z" fill="url(#dotGrad)"/>
<path d="M107.253 156.308L106.455 155.51L105.656 156.308L106.455 157.107L107.253 156.308Z" fill="url(#dotGrad)"/>
<path d="M117.292 156.308L116.493 155.51L115.695 156.308L116.493 157.107L117.292 156.308Z" fill="url(#dotGrad)"/>
<path d="M127.33 156.308L126.532 155.51L125.733 156.308L126.532 157.107L127.33 156.308Z" fill="url(#dotGrad)"/>
<path d="M137.369 156.308L136.57 155.51L135.772 156.308L136.57 157.107L137.369 156.308Z" fill="url(#dotGrad)"/>
<path d="M147.407 156.308L146.609 155.51L145.81 156.308L146.609 157.107L147.407 156.308Z" fill="url(#dotGrad)"/>
<path d="M157.446 156.308L156.647 155.51L155.849 156.308L156.647 157.107L157.446 156.308Z" fill="url(#dotGrad)"/>
<path d="M167.484 156.308L166.686 155.51L165.887 156.308L166.686 157.107L167.484 156.308Z" fill="url(#dotGrad)"/>
<path d="M177.523 156.308L176.724 155.51L175.926 156.308L176.724 157.107L177.523 156.308Z" fill="url(#dotGrad)"/>
<path d="M187.561 156.308L186.763 155.51L185.964 156.308L186.763 157.107L187.561 156.308Z" fill="url(#dotGrad)"/>
<path d="M197.6 156.308L196.802 155.51L196.003 156.308L196.802 157.107L197.6 156.308Z" fill="url(#dotGrad)"/>
<path d="M207.639 156.308L206.84 155.51L206.041 156.308L206.84 157.107L207.639 156.308Z" fill="url(#dotGrad)"/>
<path d="M217.677 156.308L216.879 155.51L216.08 156.308L216.879 157.107L217.677 156.308Z" fill="url(#dotGrad)"/>
<path d="M36.9833 166.347L36.1847 165.549L35.3862 166.347L36.1847 167.146L36.9833 166.347Z" fill="url(#dotGrad)"/>
<path d="M47.0219 166.347L46.2233 165.549L45.4248 166.347L46.2233 167.146L47.0219 166.347Z" fill="url(#dotGrad)"/>
<path d="M57.0604 166.347L56.2618 165.549L55.4632 166.347L56.2618 167.146L57.0604 166.347Z" fill="url(#dotGrad)"/>
<path d="M67.099 166.347L66.3004 165.549L65.5018 166.347L66.3004 167.146L67.099 166.347Z" fill="url(#dotGrad)"/>
<path d="M77.1375 166.347L76.339 165.549L75.5404 166.347L76.339 167.146L77.1375 166.347Z" fill="url(#dotGrad)"/>
<path d="M87.176 166.347L86.3775 165.549L85.5789 166.347L86.3775 167.146L87.176 166.347Z" fill="url(#dotGrad)"/>
<path d="M97.2146 166.347L96.416 165.549L95.6175 166.347L96.416 167.146L97.2146 166.347Z" fill="url(#dotGrad)"/>
<path d="M107.253 166.347L106.455 165.549L105.656 166.347L106.455 167.146L107.253 166.347Z" fill="url(#dotGrad)"/>
<path d="M117.292 166.347L116.493 165.549L115.695 166.347L116.493 167.146L117.292 166.347Z" fill="url(#dotGrad)"/>
<path d="M127.33 166.347L126.532 165.549L125.733 166.347L126.532 167.146L127.33 166.347Z" fill="url(#dotGrad)"/>
<path d="M137.369 166.347L136.57 165.549L135.772 166.347L136.57 167.146L137.369 166.347Z" fill="url(#dotGrad)"/>
<path d="M147.407 166.347L146.609 165.549L145.81 166.347L146.609 167.146L147.407 166.347Z" fill="url(#dotGrad)"/>
<path d="M157.446 166.347L156.647 165.549L155.849 166.347L156.647 167.146L157.446 166.347Z" fill="url(#dotGrad)"/>
<path d="M167.484 166.347L166.686 165.549L165.887 166.347L166.686 167.146L167.484 166.347Z" fill="url(#dotGrad)"/>
<path d="M177.523 166.347L176.724 165.549L175.926 166.347L176.724 167.146L177.523 166.347Z" fill="url(#dotGrad)"/>
<path d="M187.561 166.347L186.763 165.549L185.964 166.347L186.763 167.146L187.561 166.347Z" fill="url(#dotGrad)"/>
<path d="M197.6 166.347L196.802 165.549L196.003 166.347L196.802 167.146L197.6 166.347Z" fill="url(#dotGrad)"/>
<path d="M207.639 166.347L206.84 165.549L206.041 166.347L206.84 167.146L207.639 166.347Z" fill="url(#dotGrad)"/>
<path d="M217.677 166.347L216.879 165.549L216.08 166.347L216.879 167.146L217.677 166.347Z" fill="url(#dotGrad)"/>
</g>
<path d="M42.9119 97.1421V71.3468L76.7681 52.0004L112.237 69.8984V97.1421L78.7289 115.419C77.5103 116.084 76.0341 116.069 74.8289 115.38L42.9119 97.1421Z" fill="white"/>
<path d="M42.9119 71.3468V97.1421L74.8289 115.38C76.0341 116.069 77.5103 116.084 78.7289 115.419L112.237 97.1421V69.8984M42.9119 71.3468L76.7681 52.0004L112.237 69.8984M42.9119 71.3468L76.7681 87.4688L112.237 69.8984" stroke="#B3A59E" stroke-width="1.21824" stroke-linejoin="round"/>
<path d="M76.8334 87.7149L76.8334 114.354" stroke="#E7DFDA" stroke-width="1.21824" stroke-linecap="round" stroke-linejoin="round"/>
<path d="M121.969 57.5514L82.1825 37.0556C78.7795 35.3025 74.7443 35.2782 71.3205 36.9902L30.2485 57.5262C26.8875 59.2067 26.9448 64.0227 30.3449 65.6228L76.7681 87.469L121.871 65.601C125.208 63.983 125.265 59.2498 121.969 57.5514Z" fill="#F9F7F5" stroke="#B3A59E" stroke-width="1.21824" stroke-linejoin="round"/>
<path d="M75.4985 54.4648C78.0044 54.4648 80.2578 55.2164 81.8705 56.3232C83.5004 57.4417 84.3881 58.8526 84.3881 60.1494C84.3881 61.4266 83.523 62.6865 81.9018 63.6601C80.2925 64.6265 78.0302 65.2441 75.4985 65.2441C72.9668 65.2441 70.7044 64.6265 69.0952 63.6601C67.4739 62.6865 66.6088 61.4266 66.6088 60.1494C66.6088 58.8526 67.4966 57.4417 69.1264 56.3232C70.7392 55.2164 72.9926 54.4648 75.4985 54.4648Z" stroke="#B3A59E" stroke-width="1.22" stroke-linejoin="round"/>
<path d="M51.998 88.6041V74.8545L68.498 63.8545" stroke="#B3A59E" stroke-width="1.22" stroke-linecap="round" stroke-linejoin="round"/>
</g>
</g>
<defs>
<radialGradient id="dotGrad" cx="0" cy="0" r="1" gradientUnits="userSpaceOnUse" gradientTransform="translate(76.3382 76) rotate(90) scale(91.1456 141.339)">
<stop stop-color="#B3A59E"/>
<stop offset="0.980769" stop-color="#B3A59E" stop-opacity="0"/>
</radialGradient>
<clipPath id="clip0_4_7">
<path d="M0 76C0 34.0264 34.0264 0 76 0V0C117.974 0 152 34.0264 152 76V76C152 117.974 117.974 152 76 152V152C34.0264 152 0 117.974 0 76V76Z" fill="white"/>
</clipPath>
<clipPath id="clip1_4_7">
<path d="M0 76C0 34.0264 34.0264 0 76 0V0C117.974 0 152 34.0264 152 76V76C152 117.974 117.974 152 76 152V152C34.0264 152 0 117.974 0 76V76Z" fill="white"/>
</clipPath>
</defs>
</svg>
