<svg width="26" height="24" viewBox="0 0 26 24" fill="none" xmlns="http://www.w3.org/2000/svg">
<path d="M4.33325 21.5H21.6666" stroke="#27272A" stroke-width="1.5" stroke-linecap="round" stroke-linejoin="round"/>
<path d="M13.5417 9.5C13.5417 10.3284 12.8142 11 11.9167 11C11.0193 11 10.2917 10.3284 10.2917 9.5C10.2917 8.67157 11.0193 8 11.9167 8C12.8142 8 13.5417 8.67157 13.5417 9.5Z" stroke="#27272A" stroke-width="1.5" stroke-linecap="round" stroke-linejoin="round"/>
<path d="M19.5001 18.5H13.5417M10.2917 9.5C7.59936 9.5 5.41675 11.5147 5.41675 14C5.41675 16.4853 7.59936 18.5 10.2917 18.5H10.8334" stroke="#27272A" stroke-width="1.5" stroke-linecap="round" stroke-linejoin="round"/>
<path d="M14.625 21.5L13.2469 17.6838C13.0995 17.2754 12.6855 17 12.2192 17H12.1558C11.6895 17 11.2755 17.2754 11.1281 17.6838L9.75 21.5" stroke="#27272A" stroke-width="1.5" stroke-linecap="round" stroke-linejoin="round"/>
<path d="M17.1192 15.5L19.5 14.2282M11.2514 8.13107L10.1188 6.31596C9.35962 5.09933 9.81014 3.54364 11.125 2.84121C12.4399 2.13879 14.1213 2.55564 14.8804 3.77227L18.1794 9.05924C18.6932 9.88279 18.9502 10.2946 18.9502 10.7035C18.9502 10.9714 18.874 11.2346 18.7292 11.4666C18.5082 11.8208 18.0632 12.0585 17.1731 12.534C16.2831 13.0095 15.838 13.2472 15.396 13.2472C15.1065 13.2472 14.8221 13.1767 14.5713 13.0427C14.1885 12.8383 13.9316 12.4265 13.4177 11.6029L12.8655 10.7179" stroke="#27272A" stroke-width="1.5" stroke-linecap="round" stroke-linejoin="round"/>
</svg>
