<svg width="26" height="24" viewBox="0 0 26 24" fill="none" xmlns="http://www.w3.org/2000/svg">
<path d="M23.8334 5H14.7484C13.4115 5 12.9622 5.1398 12.6307 6.36394L10.1175 15.6416C9.52202 17.8398 9.2243 18.9389 8.43363 18.9976C7.64295 19.0564 7.09626 18.02 6.00287 15.9472L5.3844 14.7748C4.91344 13.882 4.67796 13.4356 4.20184 13.3147C3.48526 13.1327 2.71751 13.6703 2.16675 14" stroke="#27272A" stroke-width="1.5" stroke-linecap="round" stroke-linejoin="round"/>
<path d="M15.5984 11.0035C16.4434 10.9195 17.4761 11.038 17.8084 11.6395C18.4713 12.8395 19.5634 15.3595 19.9534 16.1395C20.1484 16.4395 20.3434 16.7995 21.1234 16.9795C21.6434 17.0395 22.3188 16.995 22.3188 16.995" stroke="#27272A" stroke-width="1.5" stroke-linecap="round"/>
<path d="M22.7505 10.998C21.1255 10.998 20.0855 12.66 19.1755 13.68C18.0055 15.24 16.7055 17.1 15.1455 16.98" stroke="#27272A" stroke-width="1.5" stroke-linecap="round"/>
</svg>
