<svg width="26" height="24" viewBox="0 0 26 24" fill="none" xmlns="http://www.w3.org/2000/svg">
<path d="M5.41675 3V13C5.41675 16.7712 5.41675 18.6569 6.68595 19.8284C7.95516 21 9.99791 21 14.0834 21H22.7501" stroke="#141B34" stroke-width="1.5" stroke-linecap="round"/>
<path d="M3.25 9L11.9167 9M21.6667 9L17.3333 9" stroke="#141B34" stroke-width="1.5" stroke-linecap="round"/>
<path d="M16.5172 4V6.55767C16.5172 7.69966 16.5172 8.27065 16.6766 8.8188C16.836 9.36696 17.1484 9.87028 17.7731 10.8769L18.6197 12.241C20.2116 14.8062 21.0076 16.0888 20.3546 17.0396L20.3445 17.0541C19.6819 18 17.9963 18 14.6251 18C11.2538 18 9.56822 18 8.90568 17.0541L8.89558 17.0396C8.24255 16.0888 9.03854 14.8062 10.6305 12.241L11.4771 10.8769C12.1018 9.87028 12.4142 9.36696 12.5735 8.8188C12.7329 8.27065 12.7329 7.69966 12.7329 6.55767V4" stroke="#141B34" stroke-width="1.5"/>
<path d="M11.375 4L17.875 4" stroke="#141B34" stroke-width="1.5" stroke-linecap="round" stroke-linejoin="round"/>
</svg>
