<svg width="26" height="26" viewBox="0 0 26 26" fill="none" xmlns="http://www.w3.org/2000/svg">
<path d="M13 6.2759C14.2059 7.14885 15.432 8.19186 16.62 9.3799C17.8081 10.568 18.8511 11.7942 19.7241 13.0001M13 6.2759C11.7942 7.14886 10.568 8.19187 9.37997 9.37991C8.1919 10.568 7.14887 11.7942 6.2759 13.0001M13 6.2759C16.8674 3.47619 20.5261 2.42567 22.0502 3.94977C23.5743 5.47388 22.5238 9.13266 19.7241 13.0001M19.7241 13.0001C22.5237 16.8674 23.5742 20.5261 22.0501 22.0502C20.9202 23.1802 18.6168 22.895 15.925 21.5309M19.7241 13.0001C18.8512 14.2059 17.8082 15.4321 16.6201 16.6201C15.4321 17.8082 14.2059 18.8512 13 19.7242M13 19.7242C11.7941 18.8512 10.5679 17.8082 9.37987 16.6201C8.19184 15.4321 7.14885 14.2059 6.2759 13.0001M13 19.7242C9.13265 22.5238 5.47394 23.5743 3.94985 22.0502C2.42577 20.5262 3.47626 16.8674 6.2759 13.0001M6.2759 13.0001C3.47618 9.13265 2.42565 5.47387 3.94976 3.94976C5.07975 2.81977 7.38314 3.10503 10.075 4.46916" stroke="#141B34" stroke-width="1.625" stroke-linecap="round"/>
<circle cx="12.9999" cy="13" r="2.16667" stroke="#141B34" stroke-width="1.625"/>
</svg>
