<svg width="26" height="24" viewBox="0 0 26 24" fill="none" xmlns="http://www.w3.org/2000/svg">
<path d="M16.25 8.5C14.4551 8.5 13 7.15685 13 5.5" stroke="#141B34" stroke-width="1.5" stroke-linecap="round" stroke-linejoin="round"/>
<path d="M13 5V19.5" stroke="#141B34" stroke-width="1.5" stroke-linecap="round" stroke-linejoin="round"/>
<path d="M21.6667 16.5C21.6667 14.8431 20.2117 13.5 18.4167 13.5" stroke="#141B34" stroke-width="1.5" stroke-linecap="round" stroke-linejoin="round"/>
<path d="M4.33325 16.5C4.33325 14.8431 5.78833 13.5 7.58325 13.5" stroke="#141B34" stroke-width="1.5" stroke-linecap="round" stroke-linejoin="round"/>
<path d="M17.3333 19.5C17.3333 20.6046 16.3632 21.5 15.1666 21.5C13.97 21.5 12.9999 20.6046 12.9999 19.5C12.9999 20.6046 12.0299 21.5 10.8333 21.5C9.63664 21.5 8.66659 20.6046 8.66659 19.5C8.66659 19.4404 8.67163 19.3815 8.67716 19.3232C8.33509 19.4362 7.9674 19.5 7.58325 19.5C5.78833 19.5 4.33325 18.1569 4.33325 16.5C4.33325 15.9246 4.51248 15.3892 4.81673 14.9326C3.55382 14.2336 2.70825 12.9582 2.70825 11.5C2.70825 10.5452 3.0715 9.66916 3.67627 8.98145C3.40641 8.54412 3.24992 8.03929 3.24992 7.5C3.24992 5.84315 4.70499 4.5 6.49992 4.5C6.88939 4.5 7.26151 4.56666 7.60758 4.68262C7.77667 3.45191 8.91241 2.5 10.2916 2.5C11.7874 2.5 12.9999 3.61929 12.9999 5C12.9999 3.61929 14.2125 2.5 15.7083 2.5C17.0874 2.5 18.2232 3.45191 18.3923 4.68262C18.7383 4.56666 19.1104 4.5 19.4999 4.5C21.2948 4.5 22.7499 5.84315 22.7499 7.5C22.7499 8.03929 22.5934 8.54412 22.3236 8.98145C22.9283 9.66916 23.2916 10.5452 23.2916 11.5C23.2916 12.9582 22.446 14.2336 21.1831 14.9326C21.4874 15.3892 21.6666 15.9246 21.6666 16.5C21.6666 18.1569 20.2115 19.5 18.4166 19.5C18.0324 19.5 17.6648 19.4362 17.3227 19.3232C17.3282 19.3815 17.3333 19.4404 17.3333 19.5Z" stroke="#141B34" stroke-width="1.5" stroke-linecap="round" stroke-linejoin="round"/>
</svg>
