<svg width="28" height="28" viewBox="0 0 28 28" fill="none" xmlns="http://www.w3.org/2000/svg">
<path d="M4.96921 11.8378C4.65136 14.2692 4.45829 16.7398 4.39662 19.243C7.77526 20.6536 10.9888 22.3808 14 24.3876C17.0113 22.3808 20.2247 20.6536 23.6034 19.243C23.5417 16.7398 23.3486 14.2692 23.0308 11.8379M4.96921 11.8378C3.94756 11.4944 2.91351 11.178 1.86792 10.8894C5.65421 8.23541 9.71531 5.94679 14.0001 4.07471C18.2848 5.94679 22.3459 8.23542 26.1322 10.8894C25.0866 11.178 24.0525 11.4944 23.0308 11.8379M4.96921 11.8378C8.10433 12.8916 11.1228 14.1994 14.0001 15.7368C16.8773 14.1994 19.8957 12.8916 23.0308 11.8379M7.875 17.5001C8.35825 17.5001 8.75 17.1083 8.75 16.6251C8.75 16.1418 8.35825 15.7501 7.875 15.7501C7.39175 15.7501 7 16.1418 7 16.6251C7 17.1083 7.39175 17.5001 7.875 17.5001ZM7.875 17.5001V13.2119C9.84839 11.9858 11.8926 10.8628 14 9.85057M5.82475 23.3248C7.19158 21.958 7.875 20.1665 7.875 18.3751V16.6251" stroke="#232120" stroke-width="1.2" stroke-linecap="round" stroke-linejoin="round"/>
</svg>
