<svg width="16" height="16" viewBox="0 0 16 16" fill="none" xmlns="http://www.w3.org/2000/svg">
<path d="M11.6703 1.34587C8.55261 1.88974 8 5.00004 8 5.00004V14.6667C8 14.6667 8.59117 11.4182 12.0002 11.0393C12.3662 10.9986 12.6667 10.7051 12.6667 10.3372V2.2621C12.6667 1.71031 12.2144 1.25096 11.6703 1.34587Z" stroke="#141B34" stroke-width="1.2" stroke-linecap="round" stroke-linejoin="round"/>
<path d="M3.55621 3.33338C5.19651 3.33109 6.77966 3.92477 8.00065 5.00004V14.6667C6.77966 13.5914 5.19651 12.9978 3.55621 13C2.51487 13 1.9942 13 1.76416 12.8528C1.62605 12.7644 1.56962 12.708 1.48122 12.5699C1.33398 12.3398 1.33398 11.9294 1.33398 11.1086V5.60219C1.33398 4.65033 1.33398 4.1744 1.69981 3.78861C2.06564 3.40283 2.44014 3.38292 3.18913 3.34311C3.31065 3.33665 3.43304 3.33338 3.55621 3.33338Z" stroke="#141B34" stroke-width="1.2" stroke-linecap="round" stroke-linejoin="round"/>
<path d="M8 14.6674C9.22099 13.5921 10.8041 12.9984 12.4444 13.0007C13.4858 13.0007 14.0065 13.0007 14.2365 12.8535C14.3746 12.7651 14.431 12.7087 14.5194 12.5706C14.6667 12.3405 14.6667 11.9301 14.6667 11.1093V5.60287C14.6667 4.65101 14.6667 4.17508 14.3008 3.78929C13.935 3.40351 13.4157 3.37318 12.6667 3.33337" stroke="#141B34" stroke-width="1.2" stroke-linecap="round" stroke-linejoin="round"/>
</svg>
