<svg width="24" height="24" viewBox="0 0 24 24" fill="none" xmlns="http://www.w3.org/2000/svg">
<path d="M12 1.5C17.799 1.5 22.5 6.20101 22.5 12C22.5 17.799 17.799 22.5 12 22.5C6.20101 22.5 1.5 17.799 1.5 12C1.5 6.20101 6.20101 1.5 12 1.5Z" fill="#C77785"/>
<path d="M12 1.5C17.799 1.5 22.5 6.20101 22.5 12C22.5 17.799 17.799 22.5 12 22.5C6.20101 22.5 1.5 17.799 1.5 12C1.5 6.20101 6.20101 1.5 12 1.5Z" stroke="#C77785"/>
<path d="M13.1222 17.25H10.8765C8.17546 17.25 6.82492 17.25 6.32723 16.3715C5.82953 15.4929 6.52031 14.3283 7.90187 11.9991L9.02468 10.1061C10.3518 7.8687 11.0153 6.75 11.9993 6.75C12.9834 6.75 13.6469 7.8687 14.974 10.1061L16.0968 11.9991C17.4784 14.3283 18.1692 15.4929 17.6715 16.3715C17.1738 17.25 15.8232 17.25 13.1222 17.25Z" stroke="white" stroke-width="1.2" stroke-linecap="round" stroke-linejoin="round"/>
<path d="M12 10.25V12.875" stroke="white" stroke-width="1.2" stroke-linecap="round" stroke-linejoin="round"/>
<path d="M12 14.9121V14.9179" stroke="white" stroke-width="1.2" stroke-linecap="round" stroke-linejoin="round"/>
</svg>
