<svg width="16" height="16" viewBox="0 0 16 16" fill="none" xmlns="http://www.w3.org/2000/svg">
<path d="M6 10C6 8.11438 6 7.17157 6.58579 6.58579C7.17157 6 8.11438 6 10 6L10.6667 6C12.5523 6 13.4951 6 14.0809 6.58579C14.6667 7.17157 14.6667 8.11438 14.6667 10V10.6667C14.6667 12.5523 14.6667 13.4951 14.0809 14.0809C13.4951 14.6667 12.5523 14.6667 10.6667 14.6667H10C8.11438 14.6667 7.17157 14.6667 6.58579 14.0809C6 13.4951 6 12.5523 6 10.6667L6 10Z" stroke="#242529" stroke-width="1.2" stroke-linecap="round" stroke-linejoin="round"/>
<path d="M11.3334 6.00001C11.3319 4.02862 11.302 3.00748 10.7282 2.3083C10.6174 2.17327 10.4936 2.04946 10.3585 1.93865C9.62098 1.33334 8.52515 1.33334 6.3335 1.33334C4.14184 1.33334 3.04601 1.33334 2.30845 1.93865C2.17342 2.04946 2.04961 2.17327 1.9388 2.30829C1.3335 3.04586 1.3335 4.14169 1.3335 6.33334C1.3335 8.525 1.3335 9.62082 1.9388 10.3584C2.04961 10.4934 2.17342 10.6172 2.30845 10.728C3.00763 11.3018 4.02877 11.3317 6.00016 11.3333" stroke="#242529" stroke-width="1.2" stroke-linecap="round" stroke-linejoin="round"/>
</svg>
