<svg width="16" height="16" viewBox="0 0 16 16" fill="none" xmlns="http://www.w3.org/2000/svg">
<path d="M12.6666 6.99967V6.66631C12.6666 4.15218 12.6666 2.89508 11.8856 2.11404C11.1045 1.33301 9.84745 1.33301 7.33332 1.33301C4.81922 1.33301 3.56213 1.33305 2.78109 2.11407C2.00006 2.8951 2.00005 4.15216 2.00003 6.66626L2 9.66634C1.99998 11.858 1.99997 12.9538 2.60526 13.6914C2.71608 13.8264 2.83991 13.9502 2.97495 14.061C3.71251 14.6663 4.80833 14.6663 6.99996 14.6663" stroke="#242529" stroke-width="1.2" stroke-linecap="round" stroke-linejoin="round"/>
<path d="M4.66675 4.66699H10.0001M4.66675 7.33366H7.33341" stroke="#242529" stroke-width="1.2" stroke-linecap="round" stroke-linejoin="round"/>
<path d="M12 12.3337L11 11.967V10.3337M8 11.667C8 13.3238 9.34315 14.667 11 14.667C12.6569 14.667 14 13.3238 14 11.667C14 10.0101 12.6569 8.66699 11 8.66699C9.34315 8.66699 8 10.0101 8 11.667Z" stroke="#242529" stroke-width="1.2" stroke-linecap="round" stroke-linejoin="round"/>
</svg>
