<svg width="18" height="18" viewBox="0 0 18 18" fill="none" xmlns="http://www.w3.org/2000/svg">
<path d="M6.12868 14.8713L14.8713 6.12868C15.2803 5.71974 15.4847 5.51527 15.594 5.2947C15.802 4.87504 15.802 4.38232 15.594 3.96266C15.4847 3.74209 15.2803 3.53762 14.8713 3.12868C14.4624 2.71974 14.2579 2.51527 14.0373 2.40597C13.6177 2.19801 13.125 2.19801 12.7053 2.40597C12.4847 2.51527 12.2803 2.71974 11.8713 3.12868L3.12868 11.8713C2.69513 12.3048 2.47836 12.5216 2.36418 12.7973C2.25 13.0729 2.25 13.3795 2.25 13.9926V15.75H4.00736C4.62049 15.75 4.92705 15.75 5.2027 15.6358C5.47836 15.5216 5.69513 15.3048 6.12868 14.8713Z" stroke="#242529" stroke-width="1.4" stroke-linecap="round" stroke-linejoin="round"/>
<path d="M9 15.75H13.5" stroke="#242529" stroke-width="1.4" stroke-linecap="round" stroke-linejoin="round"/>
<path d="M10.875 4.125L13.875 7.125" stroke="#242529" stroke-width="1.4" stroke-linecap="round" stroke-linejoin="round"/>
</svg>
