<svg viewBox="0 0 22 17" fill="none" xmlns="http://www.w3.org/2000/svg">
<path d="M0.80186 8.5724C0.732778 8.36513 0.732712 8.14073 0.801672 7.93343C2.19004 3.75972 6.1271 0.75 10.7671 0.75C15.405 0.75 19.3405 3.75692 20.7306 7.9276C20.7997 8.13487 20.7998 8.35927 20.7308 8.56658C19.3425 12.7403 15.4054 15.75 10.7654 15.75C6.12751 15.75 2.19195 12.7431 0.80186 8.5724Z" stroke="#71717A" stroke-width="1.5" stroke-linecap="round" stroke-linejoin="round"/>
<path d="M13.7663 8.25C13.7663 9.90685 12.4232 11.25 10.7663 11.25C9.10945 11.25 7.76631 9.90685 7.76631 8.25C7.76631 6.59315 9.10945 5.25 10.7663 5.25C12.4232 5.25 13.7663 6.59315 13.7663 8.25Z" stroke="#71717A" stroke-width="1.5" stroke-linecap="round" stroke-linejoin="round"/>
</svg>

