<svg width="42" height="42" viewBox="0 0 42 42" fill="none" xmlns="http://www.w3.org/2000/svg">
<path d="M13.9283 13.3572C13.9283 14.6591 13.4007 15.7145 12.7498 15.7145C12.0989 15.7145 11.5713 14.6591 11.5713 13.3572C11.5713 12.0554 12.0989 11 12.7498 11C13.4007 11 13.9283 12.0554 13.9283 13.3572Z" stroke="white" stroke-width="3" stroke-linecap="round" stroke-linejoin="round"/>
<path d="M12.7498 13.3572H12.7734V13.4044H12.7498V13.3572Z" stroke="white" stroke-width="3" stroke-linecap="round" stroke-linejoin="round"/>
<path d="M30.4275 13.3572C30.4275 14.6591 29.8998 15.7145 29.249 15.7145C28.5981 15.7145 28.0704 14.6591 28.0704 13.3572C28.0704 12.0554 28.5981 11 29.249 11C29.8998 11 30.4275 12.0554 30.4275 13.3572Z" stroke="white" stroke-width="3" stroke-linecap="round" stroke-linejoin="round"/>
<path d="M29.249 13.3572H29.2725V13.4044H29.249V13.3572Z" stroke="white" stroke-width="3" stroke-linecap="round" stroke-linejoin="round"/>
<path d="M31 34.1426C28.2509 31.3933 24.6517 30.0125 21.0486 30.0002C17.4131 29.9878 13.7738 31.3686 11 34.1426" stroke="white" stroke-width="3" stroke-linecap="round" stroke-linejoin="round"/>
</svg>
