<svg width="42" height="42" viewBox="0 0 42 42" fill="none" xmlns="http://www.w3.org/2000/svg">
<path d="M10.998 29.67C13.7471 32.4193 17.3464 33.8001 20.9495 33.8124C24.5849 33.8248 28.2243 32.444 30.998 29.67M13.926 13.1697C13.926 14.4716 13.3983 15.527 12.7475 15.527C12.0966 15.527 11.569 14.4716 11.569 13.1697C11.569 11.8679 12.0966 10.8125 12.7475 10.8125C13.3983 10.8125 13.926 11.8679 13.926 13.1697ZM12.7475 13.1697H12.771V13.2169H12.7475V13.1697ZM30.4251 13.1697C30.4251 14.4716 29.8975 15.527 29.2466 15.527C28.5958 15.527 28.0681 14.4716 28.0681 13.1697C28.0681 11.8679 28.5958 10.8125 29.2466 10.8125C29.8975 10.8125 30.4251 11.8679 30.4251 13.1697ZM29.2466 13.1697H29.2702V13.2169H29.2466V13.1697Z" stroke="white" stroke-width="3" stroke-linecap="round" stroke-linejoin="round"/>
</svg>
