<svg width="12" height="11" viewBox="0 0 12 11" fill="none" xmlns="http://www.w3.org/2000/svg">
<path d="M6.43343 3.2251H6.7251V1.0063C6.7251 0.78196 6.90696 0.600098 7.1313 0.600098C7.24425 0.600098 7.3521 0.647128 7.42896 0.729899L10.9016 4.4697C11.0292 4.60708 11.1001 4.78762 11.1001 4.9751C11.1001 5.16257 11.0292 5.34311 10.9016 5.4805L7.42896 9.2203C7.3521 9.30307 7.24425 9.3501 7.1313 9.3501C6.90696 9.3501 6.7251 9.16823 6.7251 8.9439V6.7251C3.485 6.7251 1.73578 9.06789 1.29543 9.7495C1.22274 9.86202 1.10009 9.93343 0.966138 9.93343C0.763979 9.93343 0.600098 9.76955 0.600098 9.56739V9.05843C0.600098 5.83677 3.21177 3.2251 6.43343 3.2251Z" stroke="#A1A1AA" stroke-width="1.2" stroke-linejoin="round"/>
</svg>
