<svg width="20" height="20" viewBox="0 0 20 20" fill="none" xmlns="http://www.w3.org/2000/svg">
<path d="M10 16.6663C10 16.6663 10.8333 16.6663 11.6667 18.333C11.6667 18.333 14.3137 14.1663 16.6667 13.333" stroke="currentColor" stroke-width="1.2" stroke-linecap="round" stroke-linejoin="round"/>
<path d="M16.6663 10.8376V8.88417C16.6663 8.20263 16.6663 7.86185 16.5395 7.55543C16.4126 7.24902 16.1717 7.00805 15.69 6.52613L11.7429 2.57729C11.3272 2.16137 11.1193 1.95341 10.8618 1.83018C10.8082 1.80456 10.7533 1.78181 10.6973 1.76204C10.4281 1.66699 10.1342 1.66699 9.54621 1.66699C6.84202 1.66699 5.48993 1.66699 4.57412 2.40571C4.3891 2.55494 4.22057 2.72355 4.0714 2.90864C3.33301 3.82485 3.33301 5.17753 3.33301 7.8829V11.6713C3.33301 14.8154 3.33301 16.3874 4.30932 17.3642C5.09522 18.1504 6.2667 18.3038 8.33301 18.3337M10.833 2.08384V2.50069C10.833 4.85873 10.833 6.03776 11.5652 6.77031C12.2975 7.50286 13.476 7.50286 15.833 7.50286H16.2497" stroke="currentColor" stroke-width="1.2" stroke-linecap="round" stroke-linejoin="round"/>
</svg>
