<svg width="20" height="20" viewBox="0 0 20 20" fill="none" xmlns="http://www.w3.org/2000/svg">
<path d="M16.6663 10.8337V8.88104C16.6663 8.19979 16.6663 7.85916 16.5395 7.55288C16.4126 7.24659 16.1717 7.00573 15.69 6.52402L11.7429 2.57689C11.3272 2.16116 11.1193 1.95329 10.8618 1.83011C10.8082 1.8045 10.7533 1.78176 10.6973 1.762C10.4281 1.66699 10.1342 1.66699 9.54621 1.66699C6.84202 1.66699 5.48993 1.66699 4.57412 2.40539C4.3891 2.55456 4.22057 2.72309 4.0714 2.9081C3.33301 3.82391 3.33301 5.17601 3.33301 7.8802V11.667C3.33301 14.8097 3.33301 16.381 4.30932 17.3573C5.19523 18.2433 6.57109 18.3253 9.16634 18.3329M10.833 2.08366V2.50033C10.833 4.85735 10.833 6.03586 11.5652 6.76809C12.2975 7.50033 13.476 7.50033 15.833 7.50033H16.2497" stroke="#A1A1AA" stroke-width="1.2" stroke-linecap="round" stroke-linejoin="round"/>
<path d="M16.6667 18.3337L14.8774 16.5444M14.8774 16.5444C14.9729 16.449 15.0616 16.3468 15.1428 16.2387C15.5017 15.7612 15.7142 15.1675 15.7142 14.5242C15.7142 12.9462 14.4351 11.667 12.8572 11.667C11.2792 11.667 10 12.9462 10 14.5242C10 16.1021 11.2792 17.3812 12.8572 17.3812C13.6461 17.3812 14.3604 17.0615 14.8774 16.5444Z" stroke="#A1A1AA" stroke-width="1.2" stroke-linecap="round" stroke-linejoin="round"/>
</svg>
