<svg width="16" height="16" viewBox="0 0 16 16" fill="none" xmlns="http://www.w3.org/2000/svg">
<path d="M2.66675 7.99967L2.66675 9.69578C2.66675 11.8591 2.66675 12.9408 3.25746 13.6735C3.3768 13.8215 3.51162 13.9563 3.65963 14.0756C4.39229 14.6663 5.47396 14.6663 7.63731 14.6663C8.10767 14.6663 8.34284 14.6663 8.5582 14.5903C8.60299 14.5745 8.64691 14.5563 8.68976 14.5358C8.89578 14.4373 9.06208 14.271 9.39467 13.9384L12.5524 10.7807C12.9377 10.3953 13.1304 10.2027 13.2319 9.95763C13.3334 9.71261 13.3334 9.44011 13.3334 8.8951V6.66634C13.3334 4.15218 13.3334 2.89511 12.5524 2.11406C11.7713 1.33301 10.5142 1.33301 8.00008 1.33301M8.66675 14.333V13.9997C8.66675 12.1141 8.66675 11.1712 9.25253 10.5855C9.83832 9.99967 10.7811 9.99967 12.6667 9.99967H13.0001" stroke="#242529" stroke-width="1.4" stroke-linecap="round" stroke-linejoin="round"/>
<path d="M6.66675 3.33301C6.27352 2.92845 5.22693 1.33301 4.66675 1.33301C4.10657 1.33301 3.05997 2.92845 2.66675 3.33301M4.66675 1.99967L4.66675 6.66634" stroke="#242529" stroke-width="1.4" stroke-linecap="round" stroke-linejoin="round"/>
</svg>
