<svg width="16" height="16" viewBox="0 0 16 16" fill="none" xmlns="http://www.w3.org/2000/svg">
<path d="M5.6001 10.2V5.79995C5.6001 5.46858 5.33147 5.19995 5.0001 5.19995C4.66873 5.19995 4.4001 5.46858 4.4001 5.79995V10.2C4.4001 10.5313 4.66873 10.8 5.0001 10.8C5.33147 10.8 5.6001 10.5313 5.6001 10.2Z" fill="currentColor"/>
<path d="M11.3599 3.19995H4.6399C3.40278 3.19995 2.3999 4.20283 2.3999 5.43995V10.56C2.3999 11.7971 3.40278 12.8 4.6399 12.8H11.3599C12.597 12.8 13.5999 11.7971 13.5999 10.56V5.43995C13.5999 4.20283 12.597 3.19995 11.3599 3.19995Z" stroke="currentColor" stroke-width="1.4"/>
</svg>
