<svg width="18" height="18" viewBox="0 0 18 18" fill="none" xmlns="http://www.w3.org/2000/svg">
<path d="M5.00827 12.1553L6.59467 13.7417M5.00827 12.1553L1.875 15.375H4.875L6.59467 13.7417M5.00827 12.1553C4.71538 11.8624 4.7215 11.3904 4.97653 11.064C5.57056 10.3037 5.78649 9.61616 5.84943 9.10363C5.91869 8.53971 6.05525 7.93005 6.45699 7.5283L7.12592 6.86121M6.59467 13.7417C6.88756 14.0346 7.35959 14.0285 7.68598 13.7735C8.44626 13.1794 9.13384 12.9635 9.64637 12.9006C10.2103 12.8313 10.82 12.6948 11.2217 12.293L11.8888 11.6241M11.8888 11.6241L7.12592 6.86121M11.8888 11.6241C12.1817 11.917 12.6566 11.917 12.9494 11.6241L16.125 8.44853M7.12592 6.86121C6.83302 6.56832 6.83302 6.09345 7.12592 5.80055L10.3015 2.625" stroke="#141B34" stroke-width="1.2" stroke-linecap="round" stroke-linejoin="round"/>
</svg>
