<svg width="20" height="20" viewBox="0 0 20 20" fill="none" xmlns="http://www.w3.org/2000/svg">
<path d="M2.5 9.99131V12.0833C2.5 14.8332 2.5 16.2081 3.35427 17.0624C4.20854 17.9167 5.58347 17.9167 8.33333 17.9167H11.6667C14.4165 17.9167 15.7915 17.9167 16.6457 17.0624C17.5 16.2081 17.5 14.8332 17.5 12.0833V9.99131C17.5 8.59029 17.5 7.88977 17.2034 7.28337C16.9068 6.67697 16.3539 6.2469 15.248 5.38675L13.5813 4.09046C11.8609 2.75238 11.0007 2.08333 10 2.08333C8.99927 2.08333 8.13907 2.75238 6.41868 4.09046L4.75201 5.38676L4.75201 5.38676C3.64611 6.2469 3.09316 6.67697 2.79658 7.28337C2.5 7.88977 2.5 8.59029 2.5 9.99131Z" stroke="currentColor" stroke-width="1.5" stroke-linecap="round" stroke-linejoin="round"/>
<path d="M12.5001 14.1667C11.8339 14.6853 10.9587 15 10.0001 15C9.04159 15 8.16639 14.6853 7.50012 14.1667" stroke="currentColor" stroke-width="1.5" stroke-linecap="round" stroke-linejoin="round"/>
</svg>
