<svg width="17" height="23" viewBox="-1.25 -1.25 19.5 25.5" fill="none" xmlns="http://www.w3.org/2000/svg" overflow="visible">
<path d="M8.25 17.25V12M8.25 12C8.76795 12 9.27057 11.9344 9.75 11.811M8.25 12C7.73205 12 7.22943 11.9344 6.75 11.811M10.5 19.2894C9.77119 19.4277 9.01904 19.5 8.25 19.5C7.48096 19.5 6.72882 19.4277 6 19.2894M9.75 21.672C9.25704 21.7236 8.75661 21.75 8.25 21.75C7.74339 21.75 7.24296 21.7236 6.75 21.672M10.5 17.25V17.0583C10.5 16.0754 11.1583 15.235 12.0085 14.7417C14.2455 13.4438 15.75 11.0226 15.75 8.25C15.75 4.10786 12.3921 0.75 8.25 0.75C4.10786 0.75 0.75 4.10786 0.75 8.25C0.75 11.0226 2.25446 13.4438 4.49155 14.7417C5.34173 15.235 6 16.0754 6 17.0583V17.25" stroke="currentColor" stroke-width="1.5" stroke-linecap="round" stroke-linejoin="round"/>
</svg>
