<svg width="19" height="19" viewBox="0 0 19 19" fill="none" xmlns="http://www.w3.org/2000/svg">
<path d="M13.6712 0.717035C9.77411 1.39688 9.08334 5.28475 9.08334 5.28475V17.3681C9.08334 17.3681 9.8223 13.3074 14.0836 12.8338C14.5411 12.7829 14.9167 12.4161 14.9167 11.9563V1.86233C14.9167 1.17259 14.3513 0.5984 13.6712 0.717035Z" stroke="currentColor" stroke-width="1.4" stroke-linecap="round" stroke-linejoin="round"/>
<path d="M3.52778 3.20142C5.57816 3.19856 7.55709 3.94066 9.08333 5.28475V17.3681C7.55709 16.024 5.57816 15.2819 3.52778 15.2848C2.2261 15.2848 1.57526 15.2848 1.28772 15.1007C1.11508 14.9902 1.04455 14.9197 0.934049 14.747C0.75 14.4595 0.75 13.9465 0.75 12.9205V6.03743C0.75 4.84761 0.75 4.2527 1.20728 3.77046C1.66457 3.28823 2.13269 3.26335 3.06893 3.21359C3.22084 3.20551 3.37382 3.20142 3.52778 3.20142Z" stroke="currentColor" stroke-width="1.5" stroke-linecap="round" stroke-linejoin="round"/>
<path d="M9.08334 17.3689C10.6096 16.0248 12.5885 15.2827 14.6389 15.2856C15.9406 15.2856 16.5914 15.2856 16.879 15.1016C17.0516 14.9911 17.1221 14.9205 17.2326 14.7479C17.4167 14.4603 17.4167 13.9473 17.4167 12.9213V6.03828C17.4167 4.84846 17.4167 4.25355 16.9594 3.77132C16.5021 3.28908 15.8529 3.25118 14.9167 3.20142" stroke="currentColor" stroke-width="1.5" stroke-linecap="round" stroke-linejoin="round"/>
</svg>
