<svg width="28" height="28" viewBox="0 0 28 28" fill="none" xmlns="http://www.w3.org/2000/svg">
<path d="M4.33333 4L3.16667 4C2.52233 4 2 4.52233 2 5.16667L2 21.5L3.75 25L5.5 21.5L5.5 5.16667C5.5 4.52233 4.97767 4 4.33333 4Z" stroke="currentColor" stroke-width="1.5" stroke-linecap="round" stroke-linejoin="round"/>
<path d="M24.1667 14.5015V9.83418C24.1667 7.08392 24.1667 5.70879 23.3124 4.8544C22.4581 4 21.0832 4 18.3333 4L14.8333 4C12.0835 4 10.7085 4 9.85427 4.8544C9 5.70879 9 7.08392 9 9.83418L9 19.1689C9 21.9191 9 23.2943 9.85427 24.1486C10.5781 24.8726 11.6757 24.9831 13.6667 25" stroke="currentColor" stroke-width="1.5" stroke-linecap="round" stroke-linejoin="round"/>
<path d="M13.667 8.66663L19.5003 8.66663" stroke="currentColor" stroke-width="1.5" stroke-linecap="round" stroke-linejoin="round"/>
<path d="M13.667 13.3334L19.5003 13.3334" stroke="currentColor" stroke-width="1.5" stroke-linecap="round" stroke-linejoin="round"/>
<path d="M16 22.6667C16 22.6667 17.75 23.25 18.9167 25C18.9167 25 20.6667 20.3333 25.3333 18" stroke="currentColor" stroke-width="1.5" stroke-linecap="round" stroke-linejoin="round"/>
<path d="M2 8.66663H5.5" stroke="currentColor" stroke-width="1.5" stroke-linecap="round" stroke-linejoin="round"/>
</svg>
