<svg width="21" height="21" viewBox="0 0 21 21" fill="none" xmlns="http://www.w3.org/2000/svg">
<path d="M13.7396 2.10324C14.8422 2.52866 15.8503 3.1671 16.7063 3.98211C17.5622 4.79712 18.2492 5.77275 18.7281 6.85328C19.207 7.9338 19.4684 9.09808 19.4973 10.2796C19.5263 11.4612 19.3222 12.6368 18.8968 13.7395C18.4714 14.8422 17.8329 15.8503 17.0179 16.7062C16.2029 17.5622 15.2273 18.2492 14.1468 18.7281C13.0662 19.207 11.902 19.4684 10.7204 19.4973C9.53887 19.5262 8.3632 19.3222 7.26052 18.8967C6.15785 18.4713 5.14976 17.8329 4.29382 17.0179C3.43788 16.2029 2.75085 15.2272 2.27196 14.1467C1.79306 13.0662 1.53168 11.9019 1.50274 10.7204C1.4738 9.53882 1.67787 8.36315 2.10329 7.26047C2.52871 6.15779 3.16715 5.14971 3.98217 4.29376C4.79718 3.43782 5.7728 2.75079 6.85333 2.2719C7.93386 1.79301 9.09813 1.53163 10.2797 1.50269C11.4612 1.47375 12.6369 1.67782 13.7396 2.10324L13.7396 2.10324Z" stroke="#E4E4E7" stroke-width="3"/>
<path d="M13.7396 2.10324C15.0647 2.61447 16.25 3.43205 17.1985 4.48914C18.1471 5.54623 18.832 6.81281 19.1973 8.18533" stroke="#A1A1AA" stroke-width="3" stroke-linecap="round"/>
</svg>
