<svg width="24" height="24" viewBox="0 0 24 24" fill="none" xmlns="http://www.w3.org/2000/svg">
<path d="M15.2401 3.60324C16.3427 4.02866 17.3508 4.6671 18.2068 5.48211C19.0627 6.29712 19.7497 7.27275 20.2286 8.35328C20.7075 9.4338 20.9689 10.5981 20.9978 11.7796C21.0268 12.9612 20.8227 14.1368 20.3973 15.2395C19.9719 16.3422 19.3334 17.3503 18.5184 18.2062C17.7034 19.0622 16.7278 19.7492 15.6472 20.2281C14.5667 20.707 13.4024 20.9684 12.2209 20.9973C11.0394 21.0262 9.86369 20.8222 8.76101 20.3967C7.65833 19.9713 6.65025 19.3329 5.79431 18.5179C4.93837 17.7029 4.25134 16.7272 3.77244 15.6467C3.29355 14.5662 3.03217 13.4019 3.00323 12.2204C2.97429 11.0388 3.17836 9.86315 3.60378 8.76047C4.0292 7.65779 4.66764 6.64971 5.48265 5.79376C6.29767 4.93782 7.27329 4.25079 8.35382 3.7719C9.43435 3.29301 10.5986 3.03163 11.7802 3.00269C12.9617 2.97375 14.1374 3.17782 15.2401 3.60324L15.2401 3.60324Z" stroke="#F1ECE9" stroke-width="3"/>
<path d="M15.2401 3.60324C16.5651 4.11447 17.7504 4.93205 18.699 5.98914C19.6476 7.04623 20.3325 8.31281 20.6978 9.68533" stroke="#72706F" stroke-width="3" stroke-linecap="round"/>
</svg>
