<svg width="15" height="15" viewBox="0 0 15 15" fill="none" xmlns="http://www.w3.org/2000/svg">
<path d="M5 7.8125L6.6875 9.5L9.5 5.5625M14 7.25C14 8.20121 13.5278 9.04213 12.805 9.55113C12.9561 10.422 12.6953 11.3504 12.0228 12.0229C11.3503 12.6955 10.4219 12.9562 9.55101 12.8052C9.042 13.5279 8.20114 14 7.25 14C6.29889 14 5.45804 13.5279 4.94903 12.8052C4.07799 12.9564 3.14942 12.6957 2.47678 12.0231C1.80415 11.3505 1.54344 10.4219 1.69465 9.55087C0.972055 9.04185 0.5 8.20105 0.5 7.25C0.5 6.29891 0.972094 5.45808 1.69473 4.94906C1.5436 4.0781 1.80433 3.14963 2.4769 2.47705C3.14949 1.80447 4.07797 1.54375 4.94895 1.69489C5.45796 0.972163 6.29884 0.5 7.25 0.5C8.20112 0.5 9.04197 0.972124 9.55098 1.6948C10.422 1.54358 11.3506 1.80429 12.0232 2.47693C12.6958 3.14955 12.9566 4.07811 12.8054 4.94913C13.5279 5.45815 14 6.29895 14 7.25Z" stroke="currentColor" stroke-linecap="round" stroke-linejoin="round"/>
</svg>
