<svg width="20" height="20" viewBox="0 0 20 20" fill="none" xmlns="http://www.w3.org/2000/svg">
<path d="M14.1665 9.00371C14.1665 8.7157 14.1665 8.57169 14.2099 8.44331C14.3359 8.07037 14.668 7.92563 15.0007 7.77407C15.3748 7.60368 15.5619 7.51849 15.7472 7.5035C15.9576 7.48649 16.1684 7.53181 16.3482 7.63274C16.5866 7.76654 16.7529 8.02078 16.9231 8.22751C17.7092 9.18237 18.1023 9.6598 18.2461 10.1863C18.3622 10.6112 18.3622 11.0555 18.2461 11.4804C18.0363 12.2483 17.3736 12.892 16.883 13.4878C16.6321 13.7926 16.5066 13.945 16.3482 14.0339C16.1684 14.1349 15.9576 14.1802 15.7472 14.1632C15.5619 14.1482 15.3748 14.063 15.0007 13.8926C14.668 13.741 14.3359 13.5963 14.2099 13.2234C14.1665 13.095 14.1665 12.951 14.1665 12.663V9.00371Z" stroke="currentColor" stroke-width="1.5"/>
<path d="M5.83325 9.00385C5.83325 8.64114 5.82307 8.31517 5.52985 8.06017C5.42319 7.96741 5.2818 7.90301 4.99901 7.77421C4.62492 7.60382 4.43788 7.51863 4.25255 7.50364C3.69651 7.45867 3.39735 7.83817 3.07669 8.22765C2.29054 9.18251 1.89747 9.65994 1.75364 10.1864C1.63757 10.6113 1.63757 11.0556 1.75364 11.4805C1.96342 12.2484 2.62618 12.8921 3.11676 13.488C3.42599 13.8636 3.72139 14.2063 4.25255 14.1633C4.43788 14.1483 4.62492 14.0631 4.99901 13.8927C5.2818 13.7639 5.42319 13.6995 5.52985 13.6068C5.82307 13.3518 5.83325 13.0258 5.83325 12.6631V9.00385Z" stroke="currentColor" stroke-width="1.5"/>
<path d="M4.1665 7.5C4.1665 4.73858 6.77818 2.5 9.99984 2.5C13.2215 2.5 15.8332 4.73858 15.8332 7.5" stroke="currentColor" stroke-width="1.5" stroke-linecap="square" stroke-linejoin="round"/>
<path d="M15.8333 14.168V14.8346C15.8333 16.3074 14.3409 17.5013 12.4999 17.5013H10.8333" stroke="currentColor" stroke-width="1.5" stroke-linecap="round" stroke-linejoin="round"/>
</svg>
