<svg width="20" height="20" viewBox="0 0 20 20" fill="none" xmlns="http://www.w3.org/2000/svg">
<path d="M12.0832 11.6654C12.0832 12.816 11.1504 13.7487 9.99984 13.7487C8.84924 13.7487 7.9165 12.816 7.9165 11.6654C7.9165 10.5148 8.84924 9.58203 9.99984 9.58203C11.1504 9.58203 12.0832 10.5148 12.0832 11.6654Z" stroke="#242529" stroke-width="1.5" stroke-linecap="round" stroke-linejoin="round"/>
<path d="M6.66675 6.57102C5.73399 6.5666 4.63324 6.46155 3.23173 6.18344C2.43407 6.02515 1.66675 6.61819 1.66675 7.4314V15.7789C1.66675 16.3525 2.06062 16.8563 2.62075 16.9798C8.42471 18.2597 9.37431 16.7549 13.3334 16.7549C14.5923 16.7549 15.6135 16.8738 16.3969 17.0217C17.31 17.1941 18.3334 16.4949 18.3334 15.5657V7.42003C18.3334 6.94656 18.0631 6.51792 17.6108 6.37776C16.9358 6.16854 15.7877 5.90265 14.1667 5.83203" stroke="#242529" stroke-width="1.3" stroke-linecap="round" stroke-linejoin="round"/>
<path d="M1.66675 9.16667C3.29285 9.16667 4.75411 7.83756 4.94092 6.4618M15.4172 6.25C15.4172 7.9497 16.888 9.55749 18.3334 9.55749M18.3334 14.1667C16.7509 14.1667 15.2168 15.2585 15.0851 16.7486M5.00049 17.0801C5.00049 15.2391 3.5081 13.7467 1.66715 13.7467" stroke="#242529" stroke-width="1.5" stroke-linecap="round" stroke-linejoin="round"/>
<path d="M7.91675 4.58333C7.91675 4.58333 9.41656 2.5 10.0001 2.5M12.0834 4.58333C12.0834 4.58333 10.5836 2.5 10.0001 2.5M10.0001 2.5L10.0001 7.08333" stroke="#242529" stroke-width="1.5" stroke-linecap="round" stroke-linejoin="round"/>
</svg>
