<svg width="20" height="20" viewBox="0 0 20 20" fill="none" xmlns="http://www.w3.org/2000/svg">
<path d="M15.5907 2.91409C14.0137 2.12948 12.0841 1.66797 10 1.66797C7.91591 1.66797 5.98625 2.12948 4.4093 2.91409C3.63599 3.29885 3.24933 3.49123 2.87466 4.09612C2.5 4.70101 2.5 5.2867 2.5 6.45808L2.5 9.36551C2.5 14.1017 6.2853 16.7349 8.47753 17.8628C9.0889 18.1774 9.39459 18.3346 9.99999 18.3346C10.6054 18.3346 10.9111 18.1774 11.5224 17.8628C13.7147 16.7349 17.5 14.1017 17.5 9.36551L17.5 6.45809C17.5 5.28671 17.5 4.70102 17.1253 4.09612C16.7507 3.49123 16.364 3.29885 15.5907 2.91409Z" stroke="currentColor" stroke-width="1.5" stroke-linecap="round" stroke-linejoin="round"/>
<path d="M9.99992 9.16536C10.9204 9.16536 11.6666 8.41917 11.6666 7.4987C11.6666 6.57822 10.9204 5.83203 9.99992 5.83203C9.07944 5.83203 8.33325 6.57822 8.33325 7.4987C8.33325 8.41917 9.07944 9.16536 9.99992 9.16536ZM9.99992 9.16536L9.99992 11.2487M11.6666 13.332H10.8333C10.373 13.332 9.99992 12.9589 9.99992 12.4987V11.2487M9.99992 11.2487H11.2499" stroke="currentColor" stroke-width="1.5" stroke-linecap="round" stroke-linejoin="round"/>
</svg>
