<svg width="20" height="20" viewBox="0 0 20 20" fill="none" xmlns="http://www.w3.org/2000/svg">
<g clip-path="url(#clip0_3005_15674)">
<path d="M15.344 3.33203C14.6017 3.33203 14 5.12289 14 7.33203H15.344C15.9918 7.33203 16.3156 7.33203 16.5161 7.1084C16.7166 6.88476 16.6817 6.59025 16.6119 6.00124C16.4276 4.44632 15.9295 3.33203 15.344 3.33203Z" stroke="#929294" stroke-width="1.5"/>
<path d="M14 7.3682V14.4292C14 15.437 14 15.9409 13.6921 16.1393C13.1888 16.4634 12.4107 15.7836 12.0195 15.5369C11.6961 15.333 11.5345 15.231 11.3551 15.2251C11.1612 15.2188 10.9967 15.3166 10.6473 15.5369L9.37337 16.3403C9.02974 16.557 8.8579 16.6654 8.66671 16.6654C8.47551 16.6654 8.30368 16.557 7.96004 16.3403L6.68612 15.5369C6.36281 15.333 6.20115 15.231 6.02173 15.2251C5.82785 15.2188 5.66332 15.3166 5.31396 15.5369C4.92267 15.7836 4.14462 16.4634 3.64134 16.1393C3.33337 15.9409 3.33337 15.437 3.33337 14.4292V7.3682C3.33337 5.46553 3.33337 4.5142 3.91916 3.92312C4.50495 3.33203 5.44776 3.33203 7.33337 3.33203H15.3334" stroke="#929294" stroke-width="1.5" stroke-linecap="round" stroke-linejoin="round"/>
<path d="M8.66671 7.33464C7.93033 7.33464 7.33337 7.78235 7.33337 8.33464C7.33337 8.88692 7.93033 9.33464 8.66671 9.33464C9.40309 9.33464 10 9.78235 10 10.3346C10 10.8869 9.40309 11.3346 8.66671 11.3346M8.66671 7.33464C9.24725 7.33464 9.74113 7.6129 9.92417 8.0013M8.66671 7.33464V6.66797M8.66671 11.3346C8.08617 11.3346 7.59228 11.0564 7.40924 10.668M8.66671 11.3346V12.0013" stroke="#929294" stroke-width="1.5" stroke-linecap="round"/>
</g>
<defs>
<clipPath id="clip0_3005_15674">
<rect width="16" height="16" fill="white" transform="translate(2 2)"/>
</clipPath>
</defs>
</svg>
