<svg width="18" height="18" viewBox="0 0 18 18" fill="none" xmlns="http://www.w3.org/2000/svg">
<path d="M11.625 1.5V3.75M4.875 1.5L4.875 3.75M8.25 1.5V3.75" stroke="#242529" stroke-width="1.4" stroke-linecap="round" stroke-linejoin="round"/>
<path d="M14.25 9.75V7.875C14.25 5.40013 14.25 4.16269 13.4812 3.39384C12.7123 2.625 11.4749 2.625 9 2.625L7.5 2.625C5.02513 2.625 3.78769 2.625 3.01884 3.39384C2.25 4.16269 2.25 5.40013 2.25 7.875L2.25 11.25C2.25 13.7249 2.25 14.9623 3.01884 15.7312C3.78769 16.5 5.02513 16.5 7.5 16.5H9.75" stroke="#242529" stroke-width="1.4" stroke-linecap="round" stroke-linejoin="round"/>
<path d="M5.25 11.25H8.25M5.25 8.25L11.25 8.25" stroke="#242529" stroke-width="1.4" stroke-linecap="round" stroke-linejoin="round"/>
<path d="M15.75 14.25H13.5M13.5 14.25H11.25M13.5 14.25V16.5M13.5 14.25V12" stroke="#242529" stroke-width="1.4" stroke-linecap="round" stroke-linejoin="round"/>
</svg>
