<svg width="16" height="16" viewBox="0 0 16 16" fill="none" xmlns="http://www.w3.org/2000/svg">
<path d="M11 1.33337V3.33337M5 1.33337L5 3.33337M8 1.33337V3.33337" stroke="#71717A" stroke-width="1.1" stroke-linecap="round" stroke-linejoin="round"/>
<path d="M8.66602 2.33337H7.33268C5.13279 2.33337 4.03285 2.33337 3.34943 3.01679C2.66602 3.70021 2.66602 4.80015 2.66602 7.00004L2.66602 10C2.66602 12.1999 2.66602 13.2999 3.34943 13.9833C4.03285 14.6667 5.13279 14.6667 7.33268 14.6667H8.66602C10.8659 14.6667 11.9658 14.6667 12.6493 13.9833C13.3327 13.2999 13.3327 12.1999 13.3327 10V7.00004C13.3327 4.80015 13.3327 3.70021 12.6493 3.01679C11.9658 2.33337 10.8659 2.33337 8.66602 2.33337Z" stroke="#71717A" stroke-width="1.1" stroke-linecap="round" stroke-linejoin="round"/>
<path d="M5.33398 10H8.00065M5.33398 7.33337L10.6673 7.33337" stroke="#71717A" stroke-width="1.1" stroke-linecap="round" stroke-linejoin="round"/>
</svg>
