<svg width="16" height="16" viewBox="0 0 16 16" fill="none" xmlns="http://www.w3.org/2000/svg">
<path d="M8.62415 3.6239C8.62415 3.27866 8.34427 2.99878 7.99902 2.99878C7.65378 2.99878 7.3739 3.27866 7.3739 3.6239V7.37463H3.62317C3.27792 7.37463 2.99805 7.65451 2.99805 7.99976C2.99805 8.345 3.27792 8.62488 3.62317 8.62488L7.3739 8.62488V12.3756C7.3739 12.7209 7.65378 13.0007 7.99902 13.0007C8.34427 13.0007 8.62415 12.7209 8.62415 12.3756V8.62488L12.3749 8.62488C12.7201 8.62488 13 8.345 13 7.99976C13 7.65451 12.7201 7.37463 12.3749 7.37463H8.62415V3.6239Z" fill="#242529"/>
</svg>
