<svg width="16" height="16" viewBox="0 0 16 16" fill="none" xmlns="http://www.w3.org/2000/svg">
<g clip-path="url(#clip0_115_54)">
<path d="M12.1318 7.88477C12.1228 7.39953 12.3081 6.8785 12.7383 6.52441L13.5156 5.88379C13.5613 5.84613 13.5736 5.7808 13.5439 5.72949L12.539 3.99023C12.5094 3.93892 12.4471 3.91671 12.3916 3.9375L11.4492 4.29004C10.9264 4.48583 10.3815 4.38472 9.9658 4.13379C9.91776 4.10478 9.8685 4.07703 9.81932 4.0498C9.39527 3.81506 9.03613 3.39374 8.94432 2.84375L8.77928 1.85156C8.76954 1.79312 8.71841 1.75 8.65916 1.75H6.65037C6.59122 1.75011 6.54096 1.79319 6.53123 1.85156L6.36522 2.84375C6.27338 3.39372 5.91427 3.81508 5.49022 4.0498C5.44117 4.07696 5.39261 4.10486 5.34471 4.13379C4.9289 4.38487 4.38336 4.48598 3.86033 4.29004L2.91795 3.9375C2.86248 3.91674 2.80011 3.93893 2.77049 3.99023L1.76658 5.72949C1.737 5.78074 1.74833 5.84611 1.79393 5.88379L2.57225 6.52441C3.00214 6.87849 3.18766 7.39966 3.17869 7.88477C3.17817 7.91297 3.17772 7.94138 3.17772 7.96973C3.17772 7.99804 3.17817 8.02652 3.17869 8.05469C3.18761 8.53978 3.00214 9.06101 2.57225 9.41504L1.79393 10.0557C1.7484 10.0934 1.73702 10.1587 1.76658 10.21L2.77049 11.9492C2.8001 12.0005 2.86249 12.0227 2.91795 12.002L3.86033 11.6494C4.38336 11.4535 4.92891 11.5546 5.34471 11.8057C5.39261 11.8346 5.44117 11.8625 5.49022 11.8896C5.91431 12.1244 6.27343 12.5456 6.36522 13.0957L6.53123 14.0879C6.54096 14.1463 6.59122 14.1893 6.65037 14.1895H8.65916C8.71841 14.1895 8.76954 14.1463 8.77928 14.0879L8.94432 13.0957C9.03608 12.5457 9.39526 12.1244 9.81932 11.8896C9.86851 11.8624 9.91776 11.8347 9.9658 11.8057C10.3815 11.5547 10.9263 11.4536 11.4492 11.6494L12.3916 12.002C12.447 12.0227 12.5094 12.0005 12.539 11.9492L13.5439 10.21C13.5735 10.1587 13.5613 10.0933 13.5156 10.0557L12.7383 9.41504C12.3082 9.061 12.1229 8.53986 12.1318 8.05469V7.88477ZM9.2285 7.96973C9.2285 7.10102 8.52391 6.39673 7.65526 6.39648C6.78639 6.39648 6.08201 7.10087 6.08201 7.96973C6.0821 8.83852 6.78645 9.54297 7.65526 9.54297C8.52386 9.54272 9.22841 8.83837 9.2285 7.96973ZM10.7285 7.96973C10.7284 9.66679 9.35228 11.0427 7.65526 11.043C5.95802 11.043 4.5821 9.66694 4.58201 7.96973C4.58201 6.27244 5.95797 4.89648 7.65526 4.89648C9.35233 4.89673 10.7285 6.27259 10.7285 7.96973ZM13.6308 8.08203C13.629 8.18335 13.6685 8.2379 13.6914 8.25684L14.4687 8.89746C15.0806 9.40116 15.239 10.2736 14.8428 10.96L13.8379 12.6992C13.4416 13.3854 12.6073 13.6852 11.8652 13.4072L10.9228 13.0537C10.8949 13.0434 10.8283 13.0373 10.7412 13.0898C10.677 13.1286 10.6116 13.1658 10.5459 13.2021C10.4563 13.2518 10.4287 13.3137 10.4238 13.3428L10.2588 14.335C10.1284 15.1165 9.45156 15.6895 8.65916 15.6895H6.65037C5.8581 15.6893 5.18218 15.1164 5.05174 14.335L4.88572 13.3428C4.88087 13.3137 4.85332 13.2518 4.76365 13.2021C4.69812 13.1659 4.6333 13.1285 4.56932 13.0898C4.48172 13.0369 4.41438 13.0433 4.3867 13.0537L3.44432 13.4072C2.70222 13.6851 1.86788 13.3855 1.47166 12.6992L0.466779 10.96C0.0705376 10.2737 0.229002 9.40116 0.840802 8.89746L1.61815 8.25684C1.64106 8.23797 1.68057 8.18349 1.67869 8.08203C1.678 8.04467 1.67772 8.00723 1.67772 7.96973C1.67772 7.93225 1.678 7.89475 1.67869 7.85742C1.68057 7.75596 1.64106 7.70148 1.61815 7.68262L0.840802 7.04199C0.228976 6.53832 0.0705821 5.66581 0.466779 4.97949L1.47166 3.24023C1.86789 2.55394 2.70221 2.25427 3.44432 2.53223L4.3867 2.88574C4.41442 2.89609 4.48179 2.90246 4.56932 2.84961C4.6333 2.81098 4.69812 2.77359 4.76365 2.7373C4.85331 2.68768 4.88087 2.62579 4.88572 2.59668L5.05174 1.60449C5.18211 0.822958 5.85804 0.250107 6.65037 0.25H8.65916C9.45162 0.25 10.1284 0.822839 10.2588 1.60449L10.4238 2.59668C10.4287 2.62579 10.4562 2.68767 10.5459 2.7373C10.6116 2.77367 10.6771 2.81088 10.7412 2.84961C10.8282 2.90208 10.8949 2.89601 10.9228 2.88574L11.8652 2.53223C12.6073 2.2542 13.4416 2.55392 13.8379 3.24023L14.8428 4.97949C15.239 5.66582 15.0806 6.5383 14.4687 7.04199L13.6914 7.68262C13.6684 7.70163 13.629 7.75625 13.6308 7.85742C13.6315 7.89475 13.6318 7.93224 13.6318 7.96973C13.6318 8.00723 13.6315 8.04466 13.6308 8.08203Z" fill="#929294"/>
</g>
<defs>
<clipPath id="clip0_115_54">
<rect width="16" height="16" fill="white"/>
</clipPath>
</defs>
</svg>
