<svg viewBox="0 0 15 15" fill="none" xmlns="http://www.w3.org/2000/svg">
<path d="M6.04883 0.826172C6.4817 -0.275125 7.98903 -0.275146 8.42188 0.826172L9.78125 4.28613L13.2939 4.58496C13.8772 4.63447 14.2702 5.04867 14.4102 5.50488C14.5497 5.95993 14.4594 6.51755 14.0342 6.90332L11.3359 9.34863L12.1631 13.0156C12.2883 13.5718 12.0632 14.0857 11.6797 14.3809C11.2926 14.6784 10.7292 14.76 10.2363 14.4414L7.23438 12.5L4.23438 14.4414C3.74142 14.7598 3.17801 14.6786 2.79102 14.3809C2.40765 14.0857 2.18248 13.5716 2.30762 13.0156L3.13379 9.34863L0.436523 6.90332C0.011492 6.51762 -0.0788784 5.95985 0.0605469 5.50488C0.200505 5.0488 0.59379 4.63466 1.17676 4.58496L4.68848 4.28613L6.04883 0.826172Z" fill="#D1C1B7"/>
</svg>
