<svg width="14" height="14" viewBox="0 0 14 14" fill="none" xmlns="http://www.w3.org/2000/svg">
<path d="M6.52104 0.942552C6.65029 0.63178 7.09054 0.63178 7.21979 0.942552L8.64994 4.38103C8.70443 4.51204 8.82764 4.60156 8.96908 4.6129L12.6812 4.9105C13.0167 4.93739 13.1528 5.35609 12.8971 5.57505L10.0689 7.99775C9.96112 8.09006 9.91406 8.2349 9.94698 8.37292L10.8111 11.9953C10.8892 12.3227 10.533 12.5815 10.2458 12.406L7.06766 10.4649C6.94656 10.3909 6.79427 10.3909 6.67318 10.4649L3.49508 12.406C3.20784 12.5815 2.85168 12.3227 2.92977 11.9953L3.79385 8.37292C3.82677 8.2349 3.77971 8.09006 3.67195 7.99775L0.8437 5.57506C0.588081 5.35609 0.724123 4.93739 1.05963 4.9105L4.77175 4.6129C4.91319 4.60156 5.0364 4.51204 5.09089 4.38103L6.52104 0.942552Z" fill="#A1A1AA" stroke="#A1A1AA" stroke-width="1.41938" stroke-linecap="round" stroke-linejoin="round"/>
</svg>
