<svg viewBox="0 0 16 16" fill="none" xmlns="http://www.w3.org/2000/svg">
  <path
    d="M13 4H3M12.333 4L11.8 11.567C11.748 12.347 11.722 12.737 11.555 13.037C11.408 13.3 11.185 13.513 10.916 13.647C10.61 13.8 10.218 13.8 9.435 13.8H6.565C5.782 13.8 5.39 13.8 5.084 13.647C4.815 13.513 4.592 13.3 4.445 13.037C4.278 12.737 4.252 12.347 4.2 11.567L3.667 4M6.667 7V10.667M9.333 7V10.667M10 4V2.667C10 2.313 10 2.136 9.936 2C9.879 1.88 9.787 1.78 9.667 1.724C9.531 1.66 9.354 1.66 9 1.66H7C6.646 1.66 6.469 1.66 6.333 1.724C6.213 1.78 6.121 1.88 6.064 2C6 2.136 6 2.313 6 2.667V4"
    stroke="currentColor" strokeWidth="1.2" strokeLinecap="round" strokeLinejoin="round" />
</svg>
